<svg xmlns="http://www.w3.org/2000/svg" viewBox="0 0 436.41 117.9"><defs><style>.cls-1{fill:#231f20;}.cls-2{fill:#ea4977;}.cls-3{fill:none;stroke:#231f20;stroke-miterlimit:10;}</style></defs><title>Asset 6</title><g id="Layer_2" data-name="Layer 2"><g id="Layer_1-2" data-name="Layer 1"><path class="cls-1" d="M18.1,52.42v-.9H33.05v.9H29.9l6,16.6,5.4-16.6H38v-.9H44.7v.9H42.5l-7.4,22.9H29.4l-9.25-22.9Z"/><path class="cls-1" d="M47.7,68.17V52.42H45v-.9H47.7V45.07l9.3-2.3v8.75h6.5v.9H57V69.27a9.16,9.16,0,0,0,.48,3.45,1.92,1.92,0,0,0,2,1.1,3.25,3.25,0,0,0,2.63-1.5,8.67,8.67,0,0,0,1.47-4.1l.85.1a9.67,9.67,0,0,1-2.2,5.48q-1.8,2-6,2a10.47,10.47,0,0,1-6.35-1.65C48.44,73.07,47.7,71.07,47.7,68.17Z"/><path class="cls-2" d="M65,51.52h12v4.6a8.37,8.37,0,0,1,2.45-3.7,7.61,7.61,0,0,1,5-1.4q7.75,0,7.75,8.35V74.42h2.8v.9H80.9v-.9h2V58.17a11.39,11.39,0,0,0-.4-3.87,1.45,1.45,0,0,0-1.45-.88c-1.06,0-2,.7-2.82,2.1a9.93,9.93,0,0,0-1.23,5.1v13.8H79.2v.9H65v-.9h2.75v-22H65Z"/><circle class="cls-3" cx="58.95" cy="58.95" r="53.31"/><circle class="cls-3" cx="58.95" cy="58.95" r="58.45"/><path class="cls-1" d="M130.55,53.88v-1H147v1h-3.47l6.6,18.26,5.94-18.26h-3.68v-1h7.42v1h-2.42l-8.14,25.19H143L132.81,53.88Z"/><path class="cls-1" d="M160.14,52.89h13.48V78.08h3.08v1H160.36v-1h3V53.88h-3.25Zm8.31-3.79c-1.94,0-3.33-.5-4.15-1.49a5.54,5.54,0,0,1-1.24-3.68,5.07,5.07,0,0,1,1.35-3.63,5.33,5.33,0,0,1,4.09-1.43,6,6,0,0,1,4.18,1.29,4.68,4.68,0,0,1,1.43,3.68,5.29,5.29,0,0,1-1.37,3.83A5.74,5.74,0,0,1,168.45,49.1Z"/><path class="cls-1" d="M203.37,52.89v1l-13,24.2h.71a10.31,10.31,0,0,0,7.26-2.42q2.64-2.41,4.13-7.86h.77l-.88,11.27h-23.1v-.82l13.25-24.37h-.6c-3.71,0-6.28.61-7.73,1.82s-2.74,3.79-3.88,7.75h-.71l.71-10.56Z"/><path class="cls-1" d="M219.05,71.21V53.88h-3v-1h3V45.8l10.23-2.53v9.62h7.15v1h-7.15V72.42a10.14,10.14,0,0,0,.52,3.79A2.11,2.11,0,0,0,232,77.42a3.58,3.58,0,0,0,2.89-1.65,9.53,9.53,0,0,0,1.62-4.51l.94.11a10.69,10.69,0,0,1-2.42,6q-2,2.23-6.55,2.23t-7-1.81C219.85,76.6,219.05,74.4,219.05,71.21Z"/><path class="cls-1" d="M238,37.82h13.25V58a9.23,9.23,0,0,1,2.7-4.07,8.37,8.37,0,0,1,5.5-1.54q8.52,0,8.52,9.19V78.08H271v1H255.46v-1h2.25V60.21a12.59,12.59,0,0,0-.44-4.27,1.59,1.59,0,0,0-1.59-1c-1.18,0-2.21.77-3.11,2.31a10.94,10.94,0,0,0-1.35,5.61V78.08h2.37v1H238v-1h3V38.81h-3Z"/><path class="cls-1" d="M275.67,76c-2.37-2.43-3.55-5.83-3.55-10.17s1.33-7.67,4-10a14.92,14.92,0,0,1,10.15-3.47q12.48,0,12,12.54H282.74V67q0,5.39,1.37,8.14a4.91,4.91,0,0,0,4.79,2.75q6.38,0,8.36-6.82l1,.16a11.4,11.4,0,0,1-3.77,6.16q-2.73,2.2-8.17,2.2Q279.21,79.62,275.67,76Zm7.12-12.18h5.67V61.09a23.06,23.06,0,0,0-.53-6.08,2,2,0,0,0-2.08-1.62,2.45,2.45,0,0,0-2.32,1.73,16.85,16.85,0,0,0-.74,6Z"/><path class="cls-2" d="M310.24,52.89h13.25V58a9.23,9.23,0,0,1,2.7-4.07,8.37,8.37,0,0,1,5.5-1.54q8.52,0,8.52,9.19V78.08h3.08v1H327.73v-1H330V60.21a12.87,12.87,0,0,0-.44-4.27A1.59,1.59,0,0,0,328,55c-1.18,0-2.21.77-3.11,2.31a10.94,10.94,0,0,0-1.35,5.61V78.08h2.37v1H310.24v-1h3V53.88h-3Z"/><path class="cls-2" d="M347.83,76c-2.37-2.43-3.55-5.83-3.55-10.17s1.33-7.67,4-10a14.92,14.92,0,0,1,10.15-3.47q12.48,0,12,12.54H354.9V67c0,3.59.45,6.3,1.37,8.14a4.91,4.91,0,0,0,4.79,2.75q6.38,0,8.36-6.82l1,.16a11.4,11.4,0,0,1-3.77,6.16q-2.73,2.2-8.17,2.2Q351.38,79.62,347.83,76ZM355,63.78h5.67V61.09a23.06,23.06,0,0,0-.53-6.08A2,2,0,0,0,358,53.39a2.44,2.44,0,0,0-2.31,1.73,16.85,16.85,0,0,0-.74,6Z"/><path class="cls-2" d="M389.55,53.88v-1h14.19v1h-2.26l4.95,18.54,4.9-18.54h-3.8v-1H415v1h-2.31l-6.6,25.19h-7.54l-4.78-16.88-5.17,16.88h-7.37l-8.14-25.19h-2.48v-1h16.67v1h-3.3L389,72.58l4-12.87-1.38-5.83Z"/><path class="cls-2" d="M415.45,79.62V69.78h.66c.95,3.19,2.24,5.42,3.85,6.71A9.44,9.44,0,0,0,426,78.41q5.61,0,5.61-3.57a2.49,2.49,0,0,0-1.37-2.31,18.5,18.5,0,0,0-5.5-1.87A21.36,21.36,0,0,1,418.48,68q-3-2-3-6.27a9.09,9.09,0,0,1,2.64-6.85,9.67,9.67,0,0,1,7-2.56,13.61,13.61,0,0,1,5.56,1.27,4.62,4.62,0,0,0,1.59.44,1.28,1.28,0,0,0,.94-.39,6.13,6.13,0,0,0,.93-1.43h.61v8.42h-.66q-2.81-7.15-8.69-7.15a6.65,6.65,0,0,0-3.85.9,2.72,2.72,0,0,0-1.27,2.29,2,2,0,0,0,.39,1.29c.25.31.46.54.6.69a3,3,0,0,0,.72.46c.33.17.6.3.82.39s.56.21,1,.36a8,8,0,0,0,1,.27,44.84,44.84,0,0,1,5.39,1.62,18.47,18.47,0,0,1,3.13,1.68c2,1.4,3,3.64,3,6.74s-.92,5.44-2.75,7a11.14,11.14,0,0,1-7.54,2.39,14.65,14.65,0,0,1-6.6-1.59,2.06,2.06,0,0,0-1-.44c-.81,0-1.6.68-2.37,2Z"/></g></g></svg>