<svg id="Layer_1" data-name="Layer 1" xmlns="http://www.w3.org/2000/svg" viewBox="0 0 963.96 442.55"><defs><style>.cls-1,.cls-9{fill:none;stroke:#231f20;}.cls-1,.cls-16,.cls-17,.cls-18,.cls-19,.cls-2,.cls-3,.cls-4,.cls-5,.cls-6,.cls-9{stroke-miterlimit:10;}.cls-1,.cls-2,.cls-3,.cls-4,.cls-5,.cls-6{stroke-width:2px;}.cls-2{fill:#39b54a;}.cls-16,.cls-2{stroke:#006838;}.cls-3{fill:#f15a29;}.cls-17,.cls-3{stroke:#9e1d20;}.cls-4,.cls-6{fill:#f7941d;}.cls-18,.cls-4{stroke:#ef4136;}.cls-5{fill:#f8c27a;}.cls-19,.cls-5{stroke:#f7941d;}.cls-6{stroke:#f15a29;}.cls-7{font-size:20px;}.cls-10,.cls-20,.cls-7,.cls-8{fill:#231f20;}.cls-10,.cls-20,.cls-7{font-family:MyriadPro-Regular, Myriad Pro;}.cls-10{font-size:15px;}.cls-11{letter-spacing:0em;}.cls-12{letter-spacing:0em;}.cls-13{letter-spacing:-0.01em;}.cls-14{letter-spacing:-0.01em;}.cls-15{letter-spacing:-0.02em;}.cls-16{fill:#8dc63f;}.cls-16,.cls-17,.cls-18,.cls-19{stroke-width:0.75px;}.cls-17{fill:#ec7959;}.cls-18{fill:#fbb040;}.cls-19{fill:#f2d0a7;}.cls-20{font-size:18px;}.cls-21{letter-spacing:-0.01em;}</style></defs><title>vtn_issue2_websiteimg</title><line class="cls-1" x1="62.4" y1="343.65" x2="853.79" y2="343.69"/><path class="cls-1" d="M144.81,346.64v19.29" transform="translate(-13.51 -23.49)"/><path class="cls-1" d="M219.86,346.64v19" transform="translate(-13.51 -23.49)"/><path class="cls-1" d="M289.56,346v20" transform="translate(-13.51 -23.49)"/><path class="cls-1" d="M362.87,346v21" transform="translate(-13.51 -23.49)"/><path class="cls-1" d="M433.31,346v22.06" transform="translate(-13.51 -23.49)"/><path class="cls-1" d="M506.15,346.65v19.27" transform="translate(-13.51 -23.49)"/><path class="cls-1" d="M649.27,347.08V366" transform="translate(-13.51 -23.49)"/><path class="cls-1" d="M721.94,346v21" transform="translate(-13.51 -23.49)"/><path class="cls-1" d="M794.69,346v19.28" transform="translate(-13.51 -23.49)"/><rect class="cls-2" x="62.4" y="201.82" width="68.9" height="141.84"/><rect class="cls-3" x="206.36" y="272.73" width="69.22" height="69.22"/><rect class="cls-4" x="275.58" y="129.36" width="73.78" height="212.59"/><rect class="cls-5" x="419.8" y="201.82" width="72.84" height="140.14"/><rect class="cls-2" x="635.77" y="272.73" width="72.66" height="69.22"/><rect class="cls-6" x="708.43" y="201.82" width="72.75" height="140.14"/><rect class="cls-3" x="853.79" y="272.73" width="70.96" height="70.96"/><text class="cls-7" transform="translate(70.76 367.02)">2010</text><text class="cls-7" transform="translate(218.14 367.02)">2012</text><text class="cls-7" transform="translate(286.38 367.02)">2013</text><text class="cls-7" transform="translate(142.82 367.02)">2011</text><text class="cls-7" transform="translate(355.34 367.02)">2014</text><text class="cls-7" transform="translate(432.01 367.02)">2015</text><text class="cls-7" transform="translate(507.06 367.02)">2016</text><text class="cls-7" transform="translate(576.62 367.02)">2017</text><text class="cls-7" transform="translate(646.01 367.02)">2018</text><text class="cls-7" transform="translate(718.72 367.02)">2019</text><text class="cls-7" transform="translate(795.97 367.02)">2020</text><text class="cls-7" transform="translate(866.86 367.02)">2021</text><path class="cls-8" d="M45.59,25.54H57.85c3.8,0,6.65.52,8.55,1.54a5.41,5.41,0,0,1,2.85,5.19q0,5.61-6.77,6.72v.08c5.47.69,8.2,3.06,8.2,7.14q0,4.47-3.36,6.25t-9.68,1.78h-12v-.78h2.67V26.32H45.59Zm10.66.78V39h1.07a3.27,3.27,0,0,0,3-1.29,7.38,7.38,0,0,0,.84-4V31.77a8.75,8.75,0,0,0-.74-4.24,3.05,3.05,0,0,0-2.83-1.21Zm0,13.41V53.46h1.93a3.34,3.34,0,0,0,3.15-1.55,9.25,9.25,0,0,0,.91-4.6V45.14a6.3,6.3,0,0,0-1.11-4.06c-.74-.9-2.05-1.35-3.94-1.35Z" transform="translate(-13.51 -23.49)"/><path class="cls-8" d="M96.14,54.24H86.8l-.46-3a5.34,5.34,0,0,1-1.94,2.52,6.81,6.81,0,0,1-3.84.88q-6.34,0-6.35-6.84V35.46h-2.3v-.73h9.92V48.79A9.58,9.58,0,0,0,82.18,52a1.38,1.38,0,0,0,1.4.78,2.29,2.29,0,0,0,1.86-1.27A6.47,6.47,0,0,0,86.26,48V35.46H84.38v-.73h9.51V53.5h2.25Z" transform="translate(-13.51 -23.49)"/><path class="cls-8" d="M96.8,34.73h10V53.5h2.3v.74H97V53.5h2.26v-18H96.8ZM103,31.9a3.84,3.84,0,0,1-3.1-1.11A4.17,4.17,0,0,1,99,28a3.78,3.78,0,0,1,1-2.7,4,4,0,0,1,3-1.07,4.47,4.47,0,0,1,3.12,1A3.49,3.49,0,0,1,107.21,28a4,4,0,0,1-1,2.85A4.28,4.28,0,0,1,103,31.9Z" transform="translate(-13.51 -23.49)"/><path class="cls-8" d="M109.8,23.49h10v30h2.3v.74H110V53.5h2.25V24.23H109.8Z" transform="translate(-13.51 -23.49)"/><path class="cls-8" d="M136.86,54.24l-.46-2.87q-1.4,3.29-5.65,3.28a6.5,6.5,0,0,1-5.48-2.54q-2-2.53-2-7.58,0-10.22,8.12-10.21c2.41,0,4,.67,4.76,2V24.23h-2.5v-.74H144v30h2v.74Zm-5.17-2.76a1.7,1.7,0,0,0,1.66,1.41,2.64,2.64,0,0,0,2.09-1.07,4.83,4.83,0,0,0,.88-3.15V39.73a6,6,0,0,0-.69-3,2.24,2.24,0,0,0-2.06-1.23c-.9,0-1.51.6-1.84,1.8a27.35,27.35,0,0,0-.49,6.31v2.14A23,23,0,0,0,131.69,51.48Z" transform="translate(-13.51 -23.49)"/><path class="cls-8" d="M146.86,34.73h10V53.5h2.3v.74H147V53.5h2.26v-18h-2.42Zm6.19-2.83a3.84,3.84,0,0,1-3.1-1.11A4.17,4.17,0,0,1,149,28a3.78,3.78,0,0,1,1-2.7,4,4,0,0,1,3.05-1.07,4.47,4.47,0,0,1,3.12,1A3.49,3.49,0,0,1,157.27,28a4,4,0,0,1-1,2.85A4.28,4.28,0,0,1,153.05,31.9Z" transform="translate(-13.51 -23.49)"/><path class="cls-8" d="M160.1,34.73H170V38.5a6.89,6.89,0,0,1,2-3,6.25,6.25,0,0,1,4.1-1.14q6.36,0,6.36,6.84V53.5h2.29v.74h-11.6V53.5h1.68V40.18a9.43,9.43,0,0,0-.33-3.18,1.19,1.19,0,0,0-1.19-.72c-.87,0-1.64.58-2.31,1.73a8.14,8.14,0,0,0-1,4.18V53.5h1.77v.74H160.1V53.5h2.26v-18H160.1Z" transform="translate(-13.51 -23.49)"/><path class="cls-8" d="M201.72,32.59l1.14-.69c.17-.85-.16-1.27-1-1.27-1.18,0-1.76.9-1.76,2.7a12.43,12.43,0,0,0,.28,2.46,6.25,6.25,0,0,1,3.12,5.35,6.14,6.14,0,0,1-2.25,5.07,9.54,9.54,0,0,1-6.11,1.8,17.53,17.53,0,0,1-3.32-.33C190.63,48.45,190,49,190,49.4s.88.58,2.63.58h4.18q9.3,0,9.3,6.68a6.78,6.78,0,0,1-2.8,5.72c-1.88,1.41-4.79,2.11-8.76,2.11q-10.12,0-10.12-4.38,0-2.38,3.15-3.28l2.46,1.1a8.52,8.52,0,0,0-.33,2.26q0,3.53,5.25,3.52a8.56,8.56,0,0,0,4.92-1.19,3.48,3.48,0,0,0,1.72-3,2.45,2.45,0,0,0-1-2.35,9.54,9.54,0,0,0-4.16-.6h-4c-2.21,0-3.8-.37-4.76-1.11a3.32,3.32,0,0,1-1.43-2.72,3.82,3.82,0,0,1,1-2.71,18.83,18.83,0,0,1,3.65-2.68,5.94,5.94,0,0,1-4.75-6.24,6.22,6.22,0,0,1,2.21-5q2.22-1.87,6.64-1.88a9.41,9.41,0,0,1,4.55,1,9.59,9.59,0,0,1-.24-2A4.1,4.1,0,0,1,200.57,30a4.19,4.19,0,0,1,2.75-1,3.57,3.57,0,0,1,2.44.8,2.75,2.75,0,0,1,.92,2.19,2.68,2.68,0,0,1-.74,2.07,2.55,2.55,0,0,1-1.78.68,2.64,2.64,0,0,1-1.73-.56A2,2,0,0,1,201.72,32.59ZM193,40.26v2.22a9.69,9.69,0,0,0,.48,3.73,1.52,1.52,0,0,0,1.43,1,1.44,1.44,0,0,0,1.39-1,11.42,11.42,0,0,0,.44-4v-2a13.62,13.62,0,0,0-.41-4.2,1.43,1.43,0,0,0-1.38-1,1.55,1.55,0,0,0-1.45,1.05A11.32,11.32,0,0,0,193,40.26Z" transform="translate(-13.51 -23.49)"/><path class="cls-8" d="M207.21,54.65V47.31h.49a9.88,9.88,0,0,0,2.87,5,7.06,7.06,0,0,0,4.51,1.43q4.18,0,4.18-2.66a1.87,1.87,0,0,0-1-1.73,13.92,13.92,0,0,0-4.1-1.39,16,16,0,0,1-4.68-2,5.17,5.17,0,0,1-2.25-4.67,6.8,6.8,0,0,1,2-5.11,7.22,7.22,0,0,1,5.25-1.9,10.2,10.2,0,0,1,4.14.94,3.36,3.36,0,0,0,1.19.33.94.94,0,0,0,.69-.29,4.65,4.65,0,0,0,.7-1.07h.45v6.28h-.49c-1.4-3.56-3.55-5.33-6.48-5.33a5,5,0,0,0-2.87.67,2,2,0,0,0-.94,1.71,1.41,1.41,0,0,0,.29,1q.28.34.45.51a1.93,1.93,0,0,0,.53.35l.61.29c.17.07.42.15.76.26a6.87,6.87,0,0,0,.76.21,30.74,30.74,0,0,1,4,1.21,13.83,13.83,0,0,1,2.34,1.25,5.67,5.67,0,0,1,2.25,5,6.58,6.58,0,0,1-2.05,5.25,8.27,8.27,0,0,1-5.62,1.78,10.81,10.81,0,0,1-4.92-1.19,1.58,1.58,0,0,0-.78-.32c-.6,0-1.18.5-1.76,1.51Z" transform="translate(-13.51 -23.49)"/><path class="cls-8" d="M247.43,25.91q-6.36,0-6.35,12.26v3.24q0,5.82,1.68,9.12a5.33,5.33,0,0,0,5,3.3q4.5,0,8.28-8.77h.74l-.29,9.14H256a2.44,2.44,0,0,0-.45-.63.85.85,0,0,0-.6-.19,23.48,23.48,0,0,0-3,.64,22.05,22.05,0,0,1-5.25.63q-6.67,0-10.35-3.61T232.71,40.2q0-7.23,3.84-11.17t10.31-3.94a18.83,18.83,0,0,1,4.9.64,20.26,20.26,0,0,0,2.8.63.92.92,0,0,0,.62-.18,2.3,2.3,0,0,0,.45-.64h.45l.33,8.9h-.74a25,25,0,0,0-3.79-6.34A5.83,5.83,0,0,0,247.43,25.91Z" transform="translate(-13.51 -23.49)"/><path class="cls-8" d="M262.27,52q-2.62-2.62-2.62-7.52c0-3.27.93-5.79,2.81-7.55s4.5-2.64,7.89-2.64,5.92.81,7.58,2.44,2.51,4.1,2.51,7.44q0,10.45-10.42,10.45Q264.89,54.65,262.27,52Zm10.29-5.86V42.68a27.69,27.69,0,0,0-.43-5.8c-.28-1.22-.95-1.83-2-1.83a2.06,2.06,0,0,0-1.45.52,3.11,3.11,0,0,0-.8,1.7,30.8,30.8,0,0,0-.37,5.62v3.19a28.76,28.76,0,0,0,.27,5.37,8.34,8.34,0,0,0,.55,1.48,1.74,1.74,0,0,0,1.76,1,2.08,2.08,0,0,0,2.09-1.84A27.93,27.93,0,0,0,272.56,46.17Z" transform="translate(-13.51 -23.49)"/><path class="cls-8" d="M281.42,23.49h10v30h2.3v.74H281.58V53.5h2.26V24.23h-2.42Z" transform="translate(-13.51 -23.49)"/><path class="cls-8" d="M294.38,23.49h10v30h2.3v.74H294.54V53.5h2.25V24.23h-2.41Z" transform="translate(-13.51 -23.49)"/><path class="cls-8" d="M317.34,44.61h1.18V41.45a20.25,20.25,0,0,0-.43-5.23,1.66,1.66,0,0,0-1.66-1.33,2.38,2.38,0,0,0-1.33.39,1.2,1.2,0,0,0-.59,1.07,4.16,4.16,0,0,0,.24,1.37h1a5.77,5.77,0,0,1,.32,2.07,2.68,2.68,0,0,1-1,2.09,3.79,3.79,0,0,1-2.58.88q-3.53,0-3.53-3.4,0-5,8.57-5,4.88,0,6.74,1.66t1.87,6.09v8.32c0,1.42.4,2.13,1.19,2.13s1.47-1.41,1.64-4.22l.61,0c-.11,2.4-.56,4.06-1.35,5a4.94,4.94,0,0,1-3.89,1.35q-4.92,0-5.66-3a4.42,4.42,0,0,1-1.6,2.29,5.41,5.41,0,0,1-3.12.74c-4,0-6.07-1.65-6.07-5a4,4,0,0,1,2.32-4A17.72,17.72,0,0,1,317.34,44.61Zm-1.42,7.79a.85.85,0,0,0,.86.61c.43,0,.82-.35,1.19-1a6.24,6.24,0,0,0,.55-2.89V45.26h-.28c-1.7,0-2.55,1.25-2.55,3.73v.66A10.12,10.12,0,0,0,315.92,52.4Z" transform="translate(-13.51 -23.49)"/><path class="cls-8" d="M339.39,34.73V38a5.69,5.69,0,0,1,5.66-3.65,6.48,6.48,0,0,1,5.47,2.54q2,2.53,2,7.71t-2.11,7.62q-2.12,2.46-6.33,2.46a6.85,6.85,0,0,1-3-.49,3.89,3.89,0,0,1-1.6-1.52V63.26h5.29V64H329.59v-.74h2.26V35.46h-2.17v-.73Zm4.76,2.81c-.27-1-.81-1.46-1.6-1.46a2.62,2.62,0,0,0-2.13,1.54,7.8,7.8,0,0,0-.95,4.12v7.5a6,6,0,0,0,.7,3,2.22,2.22,0,0,0,2.05,1.23c.9,0,1.52-.6,1.85-1.8a27.94,27.94,0,0,0,.49-6.31V43.21A25.34,25.34,0,0,0,344.15,37.54Z" transform="translate(-13.51 -23.49)"/><path class="cls-8" d="M354.64,54.65V47.31h.5a9.81,9.81,0,0,0,2.87,5,7,7,0,0,0,4.51,1.43c2.78,0,4.18-.89,4.18-2.66a1.86,1.86,0,0,0-1-1.73,13.82,13.82,0,0,0-4.1-1.39,16,16,0,0,1-4.67-2,5.18,5.18,0,0,1-2.26-4.67,6.8,6.8,0,0,1,2-5.11,7.22,7.22,0,0,1,5.25-1.9,10.17,10.17,0,0,1,4.14.94,3.41,3.41,0,0,0,1.19.33,1,1,0,0,0,.7-.29,4.69,4.69,0,0,0,.69-1.07H369v6.28h-.5c-1.39-3.56-3.55-5.33-6.47-5.33a4.92,4.92,0,0,0-2.87.67,2,2,0,0,0-.95,1.71,1.47,1.47,0,0,0,.29,1q.29.34.45.51a2.1,2.1,0,0,0,.53.35l.62.29c.16.07.41.15.76.26a6.31,6.31,0,0,0,.76.21,31,31,0,0,1,4,1.21A13.83,13.83,0,0,1,368,42.6a5.67,5.67,0,0,1,2.25,5,6.58,6.58,0,0,1-2.05,5.25,8.23,8.23,0,0,1-5.61,1.78,10.75,10.75,0,0,1-4.92-1.19,1.65,1.65,0,0,0-.78-.32c-.6,0-1.19.5-1.76,1.51Z" transform="translate(-13.51 -23.49)"/><path class="cls-8" d="M374.34,51.93q-2.64-2.73-2.64-7.59t3-7.44a11.14,11.14,0,0,1,7.57-2.58q9.3,0,8.93,9.34H379.61v1.6a13.91,13.91,0,0,0,1,6.07,3.65,3.65,0,0,0,3.57,2.05c3.17,0,5.24-1.69,6.23-5.08l.73.12a8.4,8.4,0,0,1-2.8,4.59c-1.36,1.1-3.39,1.64-6.09,1.64C378.75,54.65,376.11,53.74,374.34,51.93Zm5.31-9.09h4.23v-2a17.22,17.22,0,0,0-.39-4.53,1.53,1.53,0,0,0-1.56-1.21,1.82,1.82,0,0,0-1.72,1.29,12.41,12.41,0,0,0-.56,4.45Z" transform="translate(-13.51 -23.49)"/><path class="cls-8" d="M406.59,54.24l-.45-2.87q-1.39,3.29-5.66,3.28A6.48,6.48,0,0,1,395,52.11q-2-2.53-1.95-7.58,0-10.22,8.12-10.21c2.4,0,4,.67,4.75,2V24.23h-2.5v-.74h10.25v30h2v.74Zm-5.17-2.76a1.71,1.71,0,0,0,1.67,1.41,2.66,2.66,0,0,0,2.09-1.07,4.89,4.89,0,0,0,.88-3.15V39.73a6,6,0,0,0-.7-3,2.22,2.22,0,0,0-2.05-1.23c-.9,0-1.52.6-1.85,1.8a27.94,27.94,0,0,0-.49,6.31v2.14A23,23,0,0,0,401.42,51.48Z" transform="translate(-13.51 -23.49)"/><path class="cls-8" d="M424,34.73h10V53.5h2.29v.74H424.14V53.5h2.25v-18H424Zm6.19-2.83a3.81,3.81,0,0,1-3.09-1.11,4.12,4.12,0,0,1-.92-2.75,3.77,3.77,0,0,1,1-2.7,4,4,0,0,1,3.06-1.07,4.46,4.46,0,0,1,3.11,1A3.5,3.5,0,0,1,434.39,28a3.91,3.91,0,0,1-1,2.85A4.26,4.26,0,0,1,430.16,31.9Z" transform="translate(-13.51 -23.49)"/><path class="cls-8" d="M437.22,34.73h9.88V38.5a6.72,6.72,0,0,1,2-3,6.23,6.23,0,0,1,4.1-1.14q6.35,0,6.35,6.84V53.5h2.3v.74H450.25V53.5h1.68V40.18a9.52,9.52,0,0,0-.32-3.18,1.2,1.2,0,0,0-1.19-.72c-.88,0-1.65.58-2.32,1.73a8.14,8.14,0,0,0-1,4.18V53.5h1.76v.74H437.22V53.5h2.25v-18h-2.25Z" transform="translate(-13.51 -23.49)"/><path class="cls-8" d="M471.82,48.38V35.46h-2.26v-.73h2.26V29.44l7.63-1.89v7.18h5.33v.73h-5.33V49.28a7.58,7.58,0,0,0,.39,2.83,1.56,1.56,0,0,0,1.61.9,2.68,2.68,0,0,0,2.16-1.23,7.16,7.16,0,0,0,1.21-3.36l.69.08a8,8,0,0,1-1.8,4.49q-1.47,1.66-4.88,1.66a8.6,8.6,0,0,1-5.21-1.35Q471.82,52,471.82,48.38Z" transform="translate(-13.51 -23.49)"/><path class="cls-8" d="M485.92,23.49h9.88v15a6.89,6.89,0,0,1,2-3,6.27,6.27,0,0,1,4.1-1.14q6.36,0,6.36,6.84V53.5h2.29v.74H499V53.5h1.68V40.18a9.43,9.43,0,0,0-.33-3.18,1.18,1.18,0,0,0-1.18-.72c-.88,0-1.65.58-2.32,1.73a8.14,8.14,0,0,0-1,4.18V53.5h1.77v.74H485.92V53.5h2.26V24.23h-2.26Z" transform="translate(-13.51 -23.49)"/><path class="cls-8" d="M514,51.93a10.47,10.47,0,0,1-2.65-7.59c0-3.24,1-5.72,3-7.44a11.11,11.11,0,0,1,7.56-2.58q9.32,0,8.94,9.34H519.3v1.6a14.08,14.08,0,0,0,1,6.07,3.65,3.65,0,0,0,3.57,2.05q4.75,0,6.23-5.08l.74.12A8.47,8.47,0,0,1,528.05,53c-1.35,1.1-3.38,1.64-6.09,1.64C518.44,54.65,515.79,53.74,514,51.93Zm5.31-9.09h4.22v-2a17.22,17.22,0,0,0-.39-4.53,1.53,1.53,0,0,0-1.56-1.21,1.83,1.83,0,0,0-1.72,1.29,12.47,12.47,0,0,0-.55,4.45Z" transform="translate(-13.51 -23.49)"/><path class="cls-8" d="M540.17,25.54h14.76v.9h-4.35v26.9h1.48a7.38,7.38,0,0,0,5.55-2.13,25.31,25.31,0,0,0,4.2-6.56h.86l-.77,9.59H540.17v-.9h2.42V26.44h-2.42Z" transform="translate(-13.51 -23.49)"/><path class="cls-8" d="M574,44.61h1.19V41.45a20.25,20.25,0,0,0-.43-5.23,1.67,1.67,0,0,0-1.66-1.33,2.36,2.36,0,0,0-1.33.39,1.21,1.21,0,0,0-.6,1.07,3.94,3.94,0,0,0,.25,1.37h1a5.76,5.76,0,0,1,.33,2.07,2.68,2.68,0,0,1-1,2.09,3.84,3.84,0,0,1-2.59.88q-3.52,0-3.52-3.4,0-5,8.57-5,4.88,0,6.74,1.66c1.24,1.1,1.87,3.13,1.87,6.09v8.32c0,1.42.39,2.13,1.18,2.13s1.48-1.41,1.64-4.22l.62,0c-.11,2.4-.56,4.06-1.35,5a5,5,0,0,1-3.9,1.35c-3.28,0-5.16-1-5.66-3a4.31,4.31,0,0,1-1.6,2.29,5.37,5.37,0,0,1-3.11.74q-6.07,0-6.07-5a4,4,0,0,1,2.32-4A17.67,17.67,0,0,1,574,44.61Zm-1.41,7.79a.84.84,0,0,0,.86.61c.42,0,.82-.35,1.19-1a6.24,6.24,0,0,0,.55-2.89V45.26h-.29c-1.69,0-2.54,1.25-2.54,3.73v.66A9.71,9.71,0,0,0,572.58,52.4Z" transform="translate(-13.51 -23.49)"/><path class="cls-8" d="M587.6,54.65V47.31h.49a9.88,9.88,0,0,0,2.87,5,7.08,7.08,0,0,0,4.51,1.43q4.18,0,4.19-2.66a1.88,1.88,0,0,0-1-1.73,13.82,13.82,0,0,0-4.1-1.39,15.86,15.86,0,0,1-4.67-2,5.16,5.16,0,0,1-2.26-4.67,6.8,6.8,0,0,1,2-5.11,7.22,7.22,0,0,1,5.25-1.9,10.17,10.17,0,0,1,4.14.94,3.36,3.36,0,0,0,1.19.33.94.94,0,0,0,.69-.29,4.34,4.34,0,0,0,.7-1.07H602v6.28h-.49C600.11,37,598,35.18,595,35.18a5,5,0,0,0-2.87.67,2,2,0,0,0-.94,1.71,1.47,1.47,0,0,0,.29,1q.29.34.45.51a2.1,2.1,0,0,0,.53.35l.62.29c.16.07.41.15.75.26a7.53,7.53,0,0,0,.76.21,30.74,30.74,0,0,1,4,1.21A13.83,13.83,0,0,1,601,42.6a5.67,5.67,0,0,1,2.25,5,6.58,6.58,0,0,1-2.05,5.25,8.25,8.25,0,0,1-5.61,1.78,10.75,10.75,0,0,1-4.92-1.19,1.65,1.65,0,0,0-.78-.32c-.6,0-1.19.5-1.77,1.51Z" transform="translate(-13.51 -23.49)"/><path class="cls-8" d="M606.09,48.38V35.46h-2.25v-.73h2.25V29.44l7.63-1.89v7.18h5.33v.73h-5.33V49.28a7.58,7.58,0,0,0,.39,2.83,1.58,1.58,0,0,0,1.62.9,2.65,2.65,0,0,0,2.15-1.23,7.06,7.06,0,0,0,1.21-3.36l.7.08A7.89,7.89,0,0,1,618,53q-1.47,1.66-4.88,1.66a8.57,8.57,0,0,1-5.2-1.35Q606.09,52,606.09,48.38Z" transform="translate(-13.51 -23.49)"/><path class="cls-8" d="M632.38,26.61l-4.51.57-.09-.82,9.27-1.27h3.32V53.46h3.2v.78h-15.5v-.78h4.31Z" transform="translate(-13.51 -23.49)"/><path class="cls-8" d="M658,54.65q-6,0-9.06-4t-3.1-11.23q0-7.21,3.32-10.76c2.22-2.37,5.24-3.55,9.09-3.55s6.86,1.18,9.06,3.53,3.3,6.09,3.3,11.23-1.11,8.89-3.32,11.26S662,54.65,658,54.65Zm-3.75-16.32V42c0,2.66,0,4.53.06,5.62a19.77,19.77,0,0,0,.43,3.4,3.39,3.39,0,0,0,1.19,2.28,3.59,3.59,0,0,0,1.93.51,8.53,8.53,0,0,0,1.66-.12,2.11,2.11,0,0,0,1-.51,5.11,5.11,0,0,0,.72-.78,3.34,3.34,0,0,0,.47-1.21c.12-.55.22-1.05.31-1.52a16.36,16.36,0,0,0,.16-2c.06-1.75.08-3.51.08-5.29V38.7c0-5.35-.2-8.82-.59-10.39S660.1,26,658.25,26a3.11,3.11,0,0,0-3.41,2.42C654.43,30,654.23,33.31,654.23,38.33Z" transform="translate(-13.51 -23.49)"/><path class="cls-8" d="M695.47,39,701.3,26.2h-4.15v-.66h8.08v.66h-2.7l-6.2,13.69V53.46h2.51v.78h-13v-.78h2.5V40.67l-7-14.47h-1.93v-.66h13.12v.66H689.9Z" transform="translate(-13.51 -23.49)"/><path class="cls-8" d="M704.84,51.93q-2.64-2.73-2.64-7.59t3-7.44a11.11,11.11,0,0,1,7.56-2.58q9.32,0,8.94,9.34H710.11v1.6a14.08,14.08,0,0,0,1,6.07,3.66,3.66,0,0,0,3.57,2.05q4.75,0,6.23-5.08l.74.12A8.42,8.42,0,0,1,718.86,53c-1.35,1.1-3.38,1.64-6.08,1.64Q707.49,54.65,704.84,51.93Zm5.31-9.09h4.22v-2a17.22,17.22,0,0,0-.39-4.53,1.52,1.52,0,0,0-1.55-1.21,1.83,1.83,0,0,0-1.73,1.29,12.7,12.7,0,0,0-.55,4.45Z" transform="translate(-13.51 -23.49)"/><path class="cls-8" d="M733,44.61h1.19V41.45a20.72,20.72,0,0,0-.43-5.23,1.67,1.67,0,0,0-1.66-1.33,2.39,2.39,0,0,0-1.34.39,1.22,1.22,0,0,0-.59,1.07,4.16,4.16,0,0,0,.24,1.37h1a5.76,5.76,0,0,1,.33,2.07,2.66,2.66,0,0,1-1,2.09,3.79,3.79,0,0,1-2.58.88q-3.52,0-3.53-3.4,0-5,8.57-5,4.88,0,6.75,1.66t1.86,6.09v8.32c0,1.42.4,2.13,1.19,2.13s1.48-1.41,1.64-4.22l.62,0c-.11,2.4-.56,4.06-1.36,5A4.94,4.94,0,0,1,740,54.65q-4.92,0-5.66-3a4.42,4.42,0,0,1-1.6,2.29,5.39,5.39,0,0,1-3.11.74q-6.07,0-6.07-5a4,4,0,0,1,2.31-4A17.76,17.76,0,0,1,733,44.61Zm-1.42,7.79a.85.85,0,0,0,.86.61c.43,0,.82-.35,1.19-1a6.23,6.23,0,0,0,.56-2.89V45.26h-.29c-1.7,0-2.54,1.25-2.54,3.73v.66A10.27,10.27,0,0,0,731.57,52.4Z" transform="translate(-13.51 -23.49)"/><path class="cls-8" d="M759.35,35.87c-1,0-1.9.66-2.66,2a9.07,9.07,0,0,0-1.15,4.68v11h2.91v.74H745.66V53.5h2.25v-18h-2.25v-.73h9.88v3.93A5.5,5.5,0,0,1,761,34.32a4.54,4.54,0,0,1,3.14,1.08,4,4,0,0,1,1.21,3.08,4.55,4.55,0,0,1-.91,3.05,3.42,3.42,0,0,1-2.76,1.07A3.15,3.15,0,0,1,759,41.37a3.78,3.78,0,0,1-.22-3.4h1.47C760.89,36.57,760.61,35.87,759.35,35.87Z" transform="translate(-13.51 -23.49)"/><path class="cls-8" d="M766.4,54.65V47.31h.49a9.88,9.88,0,0,0,2.87,5,7.08,7.08,0,0,0,4.51,1.43q4.18,0,4.19-2.66a1.88,1.88,0,0,0-1-1.73,13.82,13.82,0,0,0-4.1-1.39,15.86,15.86,0,0,1-4.67-2,5.16,5.16,0,0,1-2.26-4.67,6.8,6.8,0,0,1,2-5.11,7.22,7.22,0,0,1,5.25-1.9,10.17,10.17,0,0,1,4.14.94,3.36,3.36,0,0,0,1.19.33.94.94,0,0,0,.69-.29,4.34,4.34,0,0,0,.7-1.07h.45v6.28h-.49c-1.39-3.56-3.55-5.33-6.48-5.33a5,5,0,0,0-2.87.67,2,2,0,0,0-.94,1.71,1.47,1.47,0,0,0,.29,1q.29.34.45.51a2.1,2.1,0,0,0,.53.35l.62.29c.16.07.41.15.75.26a7.53,7.53,0,0,0,.76.21,30.74,30.74,0,0,1,4,1.21,13.83,13.83,0,0,1,2.34,1.25,5.67,5.67,0,0,1,2.25,5,6.58,6.58,0,0,1-2,5.25,8.25,8.25,0,0,1-5.61,1.78,10.75,10.75,0,0,1-4.92-1.19,1.65,1.65,0,0,0-.78-.32c-.6,0-1.19.5-1.77,1.51Z" transform="translate(-13.51 -23.49)"/><path class="cls-8" d="M790.47,34.73h10V53.5h2.3v.74H790.63V53.5h2.26v-18h-2.42Zm6.19-2.83a3.84,3.84,0,0,1-3.1-1.11,4.17,4.17,0,0,1-.92-2.75,3.78,3.78,0,0,1,1-2.7,4,4,0,0,1,3.05-1.07,4.47,4.47,0,0,1,3.12,1A3.49,3.49,0,0,1,800.88,28a4,4,0,0,1-1,2.85A4.28,4.28,0,0,1,796.66,31.9Z" transform="translate(-13.51 -23.49)"/><path class="cls-8" d="M803.71,34.73h9.88V38.5a6.89,6.89,0,0,1,2-3,6.25,6.25,0,0,1,4.1-1.14q6.36,0,6.36,6.84V53.5h2.29v.74h-11.6V53.5h1.68V40.18A9.43,9.43,0,0,0,818.1,37a1.19,1.19,0,0,0-1.19-.72c-.87,0-1.64.58-2.31,1.73a8.14,8.14,0,0,0-1,4.18V53.5h1.76v.74H803.71V53.5H806v-18h-2.26Z" transform="translate(-13.51 -23.49)"/><path class="cls-8" d="M838.31,48.38V35.46h-2.25v-.73h2.25V29.44l7.63-1.89v7.18h5.33v.73h-5.33V49.28a7.58,7.58,0,0,0,.39,2.83A1.58,1.58,0,0,0,848,53a2.65,2.65,0,0,0,2.15-1.23,7.06,7.06,0,0,0,1.21-3.36l.7.08A7.89,7.89,0,0,1,850.2,53c-1,1.11-2.61,1.66-4.87,1.66a8.58,8.58,0,0,1-5.21-1.35C838.92,52.4,838.31,50.76,838.31,48.38Z" transform="translate(-13.51 -23.49)"/><path class="cls-8" d="M852.42,23.49h9.88v15a6.89,6.89,0,0,1,2-3,6.25,6.25,0,0,1,4.1-1.14q6.36,0,6.35,6.84V53.5h2.3v.74h-11.6V53.5h1.68V40.18a9.43,9.43,0,0,0-.33-3.18,1.2,1.2,0,0,0-1.19-.72c-.87,0-1.65.58-2.32,1.73a8.14,8.14,0,0,0-1,4.18V53.5h1.76v.74H852.42V53.5h2.25V24.23h-2.25Z" transform="translate(-13.51 -23.49)"/><path class="cls-8" d="M880.52,51.93q-2.64-2.73-2.64-7.59t3-7.44a11.14,11.14,0,0,1,7.57-2.58q9.3,0,8.93,9.34H885.79v1.6a13.91,13.91,0,0,0,1,6.07,3.64,3.64,0,0,0,3.56,2.05q4.75,0,6.24-5.08l.73.12a8.4,8.4,0,0,1-2.8,4.59c-1.36,1.1-3.39,1.64-6.09,1.64C884.93,54.65,882.29,53.74,880.52,51.93Zm5.31-9.09h4.23v-2a17.22,17.22,0,0,0-.39-4.53,1.53,1.53,0,0,0-1.56-1.21,1.82,1.82,0,0,0-1.72,1.29,12.41,12.41,0,0,0-.56,4.45Z" transform="translate(-13.51 -23.49)"/><path class="cls-8" d="M918.2,51.29q1.29,2,4.66,2A6.45,6.45,0,0,0,928,51.21c1.2-1.4,1.81-3.51,1.81-6.36V26.32h-2.67v-.78h6v.78h-2.26V44.57c0,3.39-.75,5.91-2.25,7.58s-4.16,2.5-8,2.5-6.72-.79-8.73-2.38-3-4.3-3-8.15V26.32h-2.26v-.78h12.92v.78h-2.67V45.51A10.74,10.74,0,0,0,918.2,51.29Z" transform="translate(-13.51 -23.49)"/><path class="cls-8" d="M938.38,54.65a3.32,3.32,0,0,1-2.67-1,3.82,3.82,0,0,1-.88-2.55,3.67,3.67,0,0,1,.92-2.52,3.33,3.33,0,0,1,2.6-1,4,4,0,0,1,2.67.86A3.22,3.22,0,0,1,942,51a3.79,3.79,0,0,1-.92,2.71A3.54,3.54,0,0,1,938.38,54.65Z" transform="translate(-13.51 -23.49)"/><path class="cls-8" d="M957.17,53.79a6.14,6.14,0,0,0,3.63-1.11,3.8,3.8,0,0,0,1.58-3.34,3.92,3.92,0,0,0-1.7-3.42,16.35,16.35,0,0,0-4.84-2.07,32.92,32.92,0,0,1-4.55-1.54,12.36,12.36,0,0,1-2.69-1.72q-2.54-2.13-2.54-6.6a8.58,8.58,0,0,1,2.61-6.27,9.55,9.55,0,0,1,7.11-2.63,17.12,17.12,0,0,1,4.53.64,16.86,16.86,0,0,0,2.93.63c.38,0,.73-.27,1-.82h.45l.29,8.28h-.66a25.83,25.83,0,0,0-4.12-5.72A6.54,6.54,0,0,0,955.55,26a5.91,5.91,0,0,0-3.91,1.17,3.86,3.86,0,0,0-1.39,3.12,3.33,3.33,0,0,0,1.66,3,14.88,14.88,0,0,0,4.07,1.7q2.43.66,3.18.9c.51.17,1.14.39,1.89.68a9.87,9.87,0,0,1,1.84.9,13,13,0,0,1,1.52,1.19,5.77,5.77,0,0,1,1.25,1.58,9.35,9.35,0,0,1,1.11,4.67A9.48,9.48,0,0,1,964,52a10,10,0,0,1-7.28,2.68,27.14,27.14,0,0,1-5.35-.61c-2-.41-3.12-.62-3.34-.62q-.57,0-1.11,1.23h-.57l-.41-9.76h.7a22.57,22.57,0,0,0,4.61,6.24A8.56,8.56,0,0,0,957.17,53.79Z" transform="translate(-13.51 -23.49)"/><path class="cls-8" d="M973.84,54.65a3.32,3.32,0,0,1-2.67-1,3.87,3.87,0,0,1-.88-2.55,3.64,3.64,0,0,1,.93-2.52,3.32,3.32,0,0,1,2.6-1,3.9,3.9,0,0,1,2.66.86,3.22,3.22,0,0,1,1,2.58,3.83,3.83,0,0,1-.92,2.71A3.57,3.57,0,0,1,973.84,54.65Z" transform="translate(-13.51 -23.49)"/><line class="cls-9" x1="131.3" y1="343.65" x2="131.3" y2="428.44"/><line class="cls-9" x1="206.36" y1="341.96" x2="206.36" y2="428.44"/><line class="cls-9" x1="275.58" y1="341.96" x2="276.05" y2="428.44"/><line class="cls-9" x1="349.36" y1="343.49" x2="349.36" y2="428.44"/><line class="cls-9" x1="419.8" y1="344.57" x2="419.8" y2="428.44"/><line class="cls-9" x1="492.65" y1="341.96" x2="492.65" y2="428.44"/><line class="cls-9" x1="708.43" y1="343.53" x2="708.43" y2="428.44"/><line class="cls-9" x1="781.18" y1="341.96" x2="781.18" y2="428.44"/><line class="cls-9" x1="853.79" y1="343.69" x2="853.79" y2="428.44"/><text class="cls-10" transform="translate(63.64 382.79)">2 build<tspan x="43.18" y="0">-</tspan><tspan x="0" y="18">ings; no </tspan><tspan x="0" y="36">de</tspan><tspan class="cls-11" x="15.97" y="36">a</tspan><tspan x="23.14" y="36">ths or </tspan><tspan x="0" y="54">inju</tspan><tspan class="cls-12" x="23.74" y="54">r</tspan><tspan x="28.71" y="54">ie</tspan><tspan class="cls-13" x="39.73" y="54">s</tspan><tspan x="45.51" y="54">.</tspan></text><text class="cls-10" transform="translate(209.71 382.79)">1 build<tspan x="43.18" y="0">-</tspan><tspan x="0" y="18">ing; 4 </tspan><tspan x="0" y="36">de</tspan><tspan class="cls-11" x="15.97" y="36">a</tspan><tspan x="23.14" y="36">th</tspan><tspan class="cls-14" x="36.43" y="36">s</tspan><tspan x="42.21" y="36">, no </tspan><tspan x="0" y="54">inju</tspan><tspan class="cls-12" x="23.74" y="54">r</tspan><tspan x="28.71" y="54">ie</tspan><tspan class="cls-13" x="39.73" y="54">s</tspan><tspan x="45.51" y="54">.</tspan></text><text class="cls-10" transform="translate(279.5 382.79)">3 build<tspan x="43.18" y="0">-</tspan><tspan x="0" y="18">ings; 6 </tspan><tspan x="0" y="36">de</tspan><tspan class="cls-11" x="15.97" y="36">a</tspan><tspan x="23.14" y="36">ths; 24 </tspan><tspan x="0" y="54">inju</tspan><tspan class="cls-12" x="23.74" y="54">r</tspan><tspan x="28.71" y="54">ie</tspan><tspan class="cls-13" x="39.73" y="54">s</tspan><tspan x="45.51" y="54">.</tspan></text><text class="cls-10" transform="translate(428.75 382.79)">2 build<tspan x="43.18" y="0">-</tspan><tspan x="0" y="18">ings; 12 </tspan><tspan x="0" y="36">inju</tspan><tspan class="cls-12" x="23.74" y="36">r</tspan><tspan x="28.71" y="36">ie</tspan><tspan class="cls-13" x="39.73" y="36">s</tspan><tspan x="45.51" y="36">.</tspan></text><text class="cls-10" transform="translate(644.39 382.79)">1 build<tspan x="43.18" y="0">-</tspan><tspan x="0" y="18">ing; no </tspan><tspan x="0" y="36">de</tspan><tspan class="cls-11" x="15.97" y="36">a</tspan><tspan x="23.14" y="36">ths or </tspan><tspan x="0" y="54">inju</tspan><tspan class="cls-12" x="23.74" y="54">r</tspan><tspan x="28.71" y="54">ie</tspan><tspan class="cls-13" x="39.73" y="54">s</tspan><tspan x="45.51" y="54">.</tspan></text><text class="cls-10" transform="translate(712.79 382.79)">2 build<tspan x="43.18" y="0">-</tspan><tspan x="0" y="18">ings; 3 </tspan><tspan x="0" y="36">de</tspan><tspan class="cls-11" x="15.97" y="36">a</tspan><tspan x="23.14" y="36">ths; 18 </tspan><tspan x="0" y="54">inju</tspan><tspan class="cls-12" x="23.74" y="54">r</tspan><tspan x="28.71" y="54">ie</tspan><tspan class="cls-13" x="39.73" y="54">s</tspan><tspan x="45.51" y="54">.</tspan></text><text class="cls-10" transform="translate(859.73 382.79)">1 building; 10 <tspan x="0" y="18">de</tspan><tspan class="cls-11" x="15.97" y="18">a</tspan><tspan x="23.14" y="18">ths; 11 </tspan><tspan x="0" y="36">inju</tspan><tspan class="cls-12" x="23.74" y="36">r</tspan><tspan x="28.71" y="36">ies; 151 </tspan><tspan x="0" y="54">missin</tspan><tspan class="cls-15" x="39.73" y="54">g</tspan><tspan x="47.89" y="54">.</tspan></text><rect class="cls-16" x="100.8" y="213.52" width="22.15" height="22.15"/><rect class="cls-16" x="70.76" y="213.52" width="22.15" height="22.15"/><rect class="cls-16" x="70.76" y="242.82" width="22.15" height="22.15"/><rect class="cls-16" x="100.8" y="242.82" width="22.15" height="22.15"/><rect class="cls-16" x="70.76" y="272.79" width="22.15" height="22.15"/><rect class="cls-16" x="100.8" y="272.79" width="22.15" height="22.15"/><rect class="cls-16" x="646.01" y="283.86" width="22.15" height="22.15"/><rect class="cls-16" x="677.22" y="283.86" width="22.15" height="22.15"/><rect class="cls-17" x="218.14" y="283.86" width="22.15" height="22.15"/><rect class="cls-17" x="246.86" y="283.86" width="22.15" height="22.15"/><rect class="cls-18" x="283.73" y="136.85" width="22.15" height="22.15"/><rect class="cls-18" x="318.15" y="136.85" width="22.15" height="22.15"/><rect class="cls-18" x="283.73" y="166.44" width="22.15" height="22.15"/><rect class="cls-18" x="318.15" y="166.44" width="22.15" height="22.15"/><rect class="cls-18" x="283.73" y="196.02" width="22.15" height="22.15"/><rect class="cls-18" x="318.15" y="196.02" width="22.15" height="22.15"/><rect class="cls-18" x="283.73" y="225.61" width="22.15" height="22.15"/><rect class="cls-18" x="318.15" y="224.59" width="22.15" height="22.15"/><rect class="cls-18" x="283.73" y="254.5" width="22.15" height="22.15"/><rect class="cls-18" x="318.15" y="254.5" width="22.15" height="22.15"/><rect class="cls-18" x="283.73" y="284.08" width="22.15" height="22.15"/><rect class="cls-18" x="318.15" y="284.08" width="22.15" height="22.15"/><rect class="cls-19" x="428.75" y="213.52" width="22.15" height="22.15"/><rect class="cls-19" x="461.96" y="213.52" width="22.15" height="22.15"/><rect class="cls-19" x="428.75" y="243.43" width="22.15" height="22.15"/><rect class="cls-19" x="461.96" y="243.43" width="22.15" height="22.15"/><rect class="cls-19" x="428.75" y="272.79" width="22.15" height="22.15"/><rect class="cls-19" x="461.96" y="273.34" width="22.15" height="22.15"/><rect class="cls-17" x="859.73" y="283.86" width="22.15" height="22.15"/><rect class="cls-17" x="895.08" y="283.86" width="22.15" height="22.15"/><rect class="cls-18" x="718.72" y="213.52" width="22.15" height="22.15"/><rect class="cls-18" x="748.75" y="213.52" width="22.15" height="22.15"/><rect class="cls-18" x="718.72" y="243.43" width="22.15" height="22.15"/><rect class="cls-18" x="748.75" y="243.43" width="22.15" height="22.15"/><rect class="cls-18" x="718.72" y="273.34" width="22.15" height="22.15"/><rect class="cls-18" x="748.75" y="273.34" width="22.15" height="22.15"/><text class="cls-7" transform="translate(44.7 276.87)">1</text><text class="cls-7" transform="translate(45.16 208.55)">2</text><text class="cls-7" transform="translate(46.38 135.48)">3</text><text class="cls-20" transform="translate(15.07 268.99) rotate(-90)"># of buildings</text><text class="cls-20" transform="translate(9.22 349.15)"><tspan class="cls-21">y</tspan><tspan x="8.3" y="0">ear</tspan></text></svg>