<svg id="Layer_1" data-name="Layer 1" xmlns="http://www.w3.org/2000/svg" viewBox="0 0 939.54 258.75"><defs><style>.cls-1{fill:#8dc63f;stroke:#00a651;}.cls-1,.cls-4{stroke-miterlimit:10;}.cls-2{font-size:24px;fill:#fff;font-family:ArialMT, Arial;}.cls-3{letter-spacing:-0.02em;}.cls-4{fill:none;stroke:#fff;stroke-width:3px;}</style></defs><title>indiana_voting_rules2</title><rect class="cls-1" x="0.5" y="0.5" width="418.1" height="54.93"/><text class="cls-2" transform="translate(6.13 38.07)">Displays the resident<tspan class="cls-3" x="222.77" y="0">’</tspan><tspan x="227.67" y="0">s photo?</tspan></text><circle class="cls-1" cx="378.84" cy="26.06" r="22.99"/><line class="cls-4" x1="372.21" y1="29.53" x2="376.38" y2="36.6"/><line class="cls-4" x1="376.38" y1="36.6" x2="389.65" y2="15.52"/><rect class="cls-1" x="0.5" y="68.11" width="539.39" height="54.93"/><text class="cls-2" transform="translate(6.13 105.67)">Name conforms to the registration record?</text><circle class="cls-1" cx="500.85" cy="95.57" r="22.99"/><line class="cls-4" x1="494.22" y1="99.04" x2="498.38" y2="106.11"/><line class="cls-4" x1="498.38" y1="106.11" x2="511.65" y2="85.03"/><rect class="cls-1" x="0.5" y="135.71" width="938.54" height="54.93"/><text class="cls-2" transform="translate(6.13 173.28)">Has an expiration date (and is currently active or expired after the last election)?</text><circle class="cls-1" cx="898.31" cy="163.18" r="22.99"/><line class="cls-4" x1="891.67" y1="166.65" x2="895.84" y2="173.71"/><line class="cls-4" x1="895.84" y1="173.71" x2="909.11" y2="152.64"/><rect class="cls-1" x="0.5" y="203.32" width="451.29" height="54.93"/><text class="cls-2" transform="translate(6.13 240.89)">Issued by the federal government?</text><circle class="cls-1" cx="413.82" cy="230.78" r="22.99"/><line class="cls-4" x1="407.19" y1="234.26" x2="411.36" y2="241.32"/><line class="cls-4" x1="411.36" y1="241.32" x2="424.62" y2="220.25"/></svg>