<svg xmlns="http://www.w3.org/2000/svg" viewBox="0 0 490.93 313.52"><defs><style>.cls-1{fill:none;stroke:#c02026;stroke-miterlimit:10;stroke-width:13px;}.cls-2{fill:#c02026;}</style></defs><title>25kheader</title><g id="Layer_2" data-name="Layer 2"><g id="Layer_1-2" data-name="Layer 1"><rect class="cls-1" x="17.3" y="58.87" width="456.34" height="195.77" rx="31.2" transform="translate(-34.02 74.8) rotate(-16.22)"/><path class="cls-2" d="M50.3,169.65a5.57,5.57,0,0,0-.29-.58c-.17-.32-.37-.68-.6-1.07s-.45-.82-.65-1.26a8.63,8.63,0,0,1-.47-1.2,10.32,10.32,0,0,1-.38-2.12,11.17,11.17,0,0,0-.37-2.07,3,3,0,0,0-.6-1.07,2.66,2.66,0,0,1-.6-1.07,4.31,4.31,0,0,1-.19-1,4.65,4.65,0,0,0-.18-1,1.37,1.37,0,0,0-.5-.75,6.45,6.45,0,0,0-.81-.49,6.15,6.15,0,0,1-.81-.46,1.28,1.28,0,0,1-.5-.72.83.83,0,0,1,.31-1,1.69,1.69,0,0,0,.61-.88c-.28-.57-.56-1.17-.84-1.78a14.56,14.56,0,0,1-.67-1.83,5.4,5.4,0,0,1,0-3.3A3.34,3.34,0,0,1,45.2,144a5.7,5.7,0,0,1,3.72.13,3.93,3.93,0,0,1,2.39,2.73,23.21,23.21,0,0,1,.75,3.69,23.78,23.78,0,0,0,.77,3.75c.36,1.21.74,2.4,1.16,3.58s.8,2.36,1.16,3.57a11.35,11.35,0,0,1,.45,3.17,11.63,11.63,0,0,0,.46,3.17,3.42,3.42,0,0,0,.67,1.4,1.09,1.09,0,0,0,.89.36,4.18,4.18,0,0,0,1.16-.29c.44-.16.94-.33,1.51-.49l.51-.15a2.09,2.09,0,0,1,.52-.09l.53-.16A9.3,9.3,0,0,1,64,168q1.11-.06,2.22-.06l2.14,0a11.51,11.51,0,0,0,1.92-.15c.85.41,1.81.83,2.86,1.26a26.11,26.11,0,0,1,3,1.4,14,14,0,0,1,2.46,1.69,4.43,4.43,0,0,1,1.43,2.1,2.14,2.14,0,0,1,0,1.12,2,2,0,0,0,0,1.12,3.29,3.29,0,0,0,.45,1,3.34,3.34,0,0,1,.44.94,9.42,9.42,0,0,1,.34,3.15,10.45,10.45,0,0,1-.7,3.27,9,9,0,0,1-1.71,2.79,5.69,5.69,0,0,1-2.7,1.68,5.31,5.31,0,0,1-4.14-.39c-1.3-.68-2.28-2.15-2.93-4.39a10.47,10.47,0,0,1-.41-2.61,6.32,6.32,0,0,1,.49-2.69,1.59,1.59,0,0,1,.37-.83c.23-.32.49-.64.76-.95s.53-.59.74-.85.31-.42.29-.49-.21-.23-.54-.37l-1.11-.43c-.41-.15-.8-.27-1.18-.38a5.7,5.7,0,0,0-.74-.16l-6.83-.16c-.48.1-.89.2-1.25.31a1.08,1.08,0,0,0-.73.76,4.73,4.73,0,0,0,0,1.89,25.9,25.9,0,0,0,.87,3.69,5,5,0,0,0,.19.56,1.65,1.65,0,0,0,.18.32,2,2,0,0,1,.18.32,4.51,4.51,0,0,1,.21.61,1.37,1.37,0,0,1,0,.89,1.51,1.51,0,0,1-.36.48,2.5,2.5,0,0,0-.36.37.58.58,0,0,0,0,.56c.05.18.33.41.83.68a6.61,6.61,0,0,0,.78.47,18.16,18.16,0,0,1,.9,3.91,22.49,22.49,0,0,0,.75,3.79c0,.07.09.38.22.92s.24,1.13.39,1.74.31,1.55.54,2.45a1.59,1.59,0,0,0,1,1.34,6.13,6.13,0,0,0,2.27.56,22.78,22.78,0,0,0,3.11,0c1.14-.06,2.28-.18,3.41-.35s2.2-.36,3.22-.56,1.88-.4,2.55-.6a8.75,8.75,0,0,1,3.41-.06A10.94,10.94,0,0,1,87.05,201a14.59,14.59,0,0,1,3.61,3.15,13.58,13.58,0,0,1,2.56,5q.15.54.42,1.47a18.52,18.52,0,0,1,.48,2,13.83,13.83,0,0,1,.27,1.92,3,3,0,0,1-.15,1.38,1.87,1.87,0,0,1,.63,1A3.14,3.14,0,0,1,95,218c0,.41-.07.85-.11,1.31s-.06.92-.06,1.4a5.6,5.6,0,0,0,.21,1.42,1.82,1.82,0,0,1,.1.84,1.27,1.27,0,0,1-.22.53,2.46,2.46,0,0,1-.42.44,1.63,1.63,0,0,0-.43.62,3.72,3.72,0,0,0-.32,1c0,.32-.07.65-.09,1a6,6,0,0,1-.12,1,2.24,2.24,0,0,1-.49.92,1.47,1.47,0,0,1-.68.54,4.51,4.51,0,0,0-.82.48A9.26,9.26,0,0,0,90,230.85c-.41.47-.82.93-1.23,1.37a18.93,18.93,0,0,1-1.35,1.33,9,9,0,0,1-1.85,1.2,28,28,0,0,0-2.53,1.2,15.61,15.61,0,0,0-2.78,1.88,8.66,8.66,0,0,0-2,2.45,3.67,3.67,0,0,0-.27,2.95c.58,2,1.17,3.78,1.79,5.36s1.2,3.33,1.76,5.26a6,6,0,0,0,.67,1.51c.29.48.59.95.9,1.42s.62,1,.92,1.45a6.4,6.4,0,0,1,.68,1.54,5.21,5.21,0,0,1,0,3.34A8.06,8.06,0,0,1,82.78,266L82,266l-1.72.68a4.16,4.16,0,0,1-1.8-.84,6.47,6.47,0,0,1-1.33-1.47,9.38,9.38,0,0,1-.95-1.87c-.25-.68-.48-1.34-.66-2-.4-1.35-.71-2.49-.94-3.41s-.42-1.91-.58-3a7.91,7.91,0,0,1-.1-2.05,5.64,5.64,0,0,0-.22-2,4.64,4.64,0,0,0-1-1.87,4.46,4.46,0,0,1-1-1.82,5.12,5.12,0,0,0-1.83-2.8,7.45,7.45,0,0,0-3-1.26,14.81,14.81,0,0,0-3.5-.26l-3.48.17c-1.1.07-2.08.1-2.94.08a2.69,2.69,0,0,1-1.86-.62A22.48,22.48,0,0,0,52.75,240c-.8-.48-1.56-1-2.3-1.5a17.88,17.88,0,0,1-2.06-1.72,8.42,8.42,0,0,1-1.64-2.25,6,6,0,0,1-2.42-3.35,4.23,4.23,0,0,1,0-2.49,3.87,3.87,0,0,1-.64-1.38,4.35,4.35,0,0,1-.11-2,8.53,8.53,0,0,1,.6-1.92,15.26,15.26,0,0,1,1-1.82c.37-.59.7-1.16,1-1.71l2.43-.59,2-.69a8.57,8.57,0,0,1,3.22,1.1,4.29,4.29,0,0,1,2,2.59,4.35,4.35,0,0,1-.12,3.29A8.57,8.57,0,0,1,54,227.83c-.65.62-1.26,1.18-1.83,1.69a1.53,1.53,0,0,0-.6,1.63,2.93,2.93,0,0,0,1.27,1.45,10.52,10.52,0,0,0,2.34,1.2,15.28,15.28,0,0,0,2.59.73,4.54,4.54,0,0,0,1.93.05q5.12.66,7.27,0c1.43-.45,2.11-1.14,2-2a15.71,15.71,0,0,0-.35-2.1c-.18-.84-.37-1.68-.56-2.54s-.35-1.64-.46-2.36a3.41,3.41,0,0,1,0-1.6.7.7,0,0,0,0-.47,1.64,1.64,0,0,0-.47-.65,5,5,0,0,1-.87-2c-.19-.67-.33-1.18-.41-1.53s-.16-.68-.24-1-.17-.72-.28-1.17-.29-1.1-.54-2l-.19-.64a8.16,8.16,0,0,1-.43-1c-.23-.57-.46-1.17-.7-1.8s-.46-1.2-.65-1.72l-.3-.84a1.69,1.69,0,0,0-1.21-1.27,9.27,9.27,0,0,0-2.66-.59,34.11,34.11,0,0,0-3.46-.13l-3.61,0c-1.16,0-2.2,0-3.14,0a4.79,4.79,0,0,1-2-.37l-1,.29a2.69,2.69,0,0,1-1.72-.43,20,20,0,0,1-2.48-1.45c-.87-.58-1.67-1.17-2.4-1.76a10,10,0,0,1-1.47-1.37,5.7,5.7,0,0,1-.85-1.41c-.2-.5-.39-1.05-.57-1.66-.11-.39-.29-1-.52-1.82s-.46-1.68-.64-2.59a11.41,11.41,0,0,1-.26-2.6,2.19,2.19,0,0,1,.67-1.76l-.31-1.07a5.08,5.08,0,0,1-.21-1.73,8.9,8.9,0,0,1,.22-1.72,10.54,10.54,0,0,1,.46-1.52,8.09,8.09,0,0,1,.49-1.1,8.56,8.56,0,0,0,.13-1.23,3.47,3.47,0,0,1,.35-1.29,7.54,7.54,0,0,1,1.54-1.9,24.85,24.85,0,0,1,2.72-2.21,29.77,29.77,0,0,1,3.5-2.12A21.07,21.07,0,0,1,48,172.81l1-.31a2.21,2.21,0,0,0,.86-.45,1.59,1.59,0,0,0,.48-.83,3.4,3.4,0,0,0-.09-1.51Zm4,8.91a1.89,1.89,0,0,0-.58-1c-.25-.18-.84-.14-1.76.13a32.72,32.72,0,0,0-4.54,1.73,13.37,13.37,0,0,0-2.83,1.75,7.61,7.61,0,0,0-1.54,1.66A7.62,7.62,0,0,0,42,185.37a1,1,0,0,1-.38.66l.2.7a1.49,1.49,0,0,1,0,.86,4.25,4.25,0,0,1-.33.77c-.14.25-.29.51-.45.76a2.71,2.71,0,0,0-.32.88,3,3,0,0,0-.05,1.12,6.89,6.89,0,0,1,.06,1.11,5,5,0,0,1-.15,1.09,1.9,1.9,0,0,1-.59,1,10.89,10.89,0,0,0,1.34,2,6,6,0,0,1,1.16,2.18l.11.37a6.91,6.91,0,0,0,1.53,1.09A19,19,0,0,0,46.41,201a20.57,20.57,0,0,0,2.37.79,6.37,6.37,0,0,0,1.9.25l8.87-.6c.39.15.63,0,.7-.38a4.67,4.67,0,0,0-.07-1.63,18.35,18.35,0,0,0-.57-2.27q-.39-1.25-.75-2.28c-.24-.68-.43-1.23-.59-1.65s-.22-.54-.17-.36c-.13-.46-.31-1-.54-1.58l-.69-1.77c-.23-.59-.45-1.14-.66-1.66a13,13,0,0,1-.47-1.32,4.91,4.91,0,0,1-.05-.76c0-.45,0-.92-.07-1.43s-.06-1-.08-1.49a5,5,0,0,0-.11-1c0-.18-.19-.58-.41-1.21S54.57,179.35,54.34,178.56Zm17.27,42.23c.41,1.42.8,2.85,1.16,4.27A27.36,27.36,0,0,0,74,228.85a7.87,7.87,0,0,0,1.6,2.58,2.16,2.16,0,0,0,2.2.61c.52-.46,1-.91,1.58-1.33s.93-.73,1.48-1.1a10.47,10.47,0,0,1,1.6-.9,5.34,5.34,0,0,0,1.81-1.25,9.22,9.22,0,0,0,1.16-1.59l1-1.67a7,7,0,0,1,1.16-1.49,7,7,0,0,1,0-1.77c.08-.66.16-1.33.26-2s.17-1.33.21-2a4.92,4.92,0,0,0-.16-1.72,2.43,2.43,0,0,0-.51-.95,2.49,2.49,0,0,1-.49-.9,3.85,3.85,0,0,1-.13-1,3.43,3.43,0,0,0-.12-1,4.2,4.2,0,0,0-.67-1.29,9.78,9.78,0,0,0-1.11-1.24,11.56,11.56,0,0,0-1.32-1.06,9.58,9.58,0,0,0-1.23-.72,4.58,4.58,0,0,0-1.37-.33,13.46,13.46,0,0,0-1.42,0c-.48,0-1,0-1.44,0a5.38,5.38,0,0,1-1.47-.18,15,15,0,0,1-3.11-.2,21,21,0,0,0-3.43-.24,4.62,4.62,0,0,0-2.51.64c-.61.41-.75,1.22-.39,2.43.13.47.32,1.09.57,1.87s.49,1.53.75,2.27.47,1.38.64,1.93.28.84.29.87a3.14,3.14,0,0,0,.26.42c.17.24.36.53.58.88s.43.71.64,1.11a6.65,6.65,0,0,1,.48,1.14,3.7,3.7,0,0,1,.11.49A5.86,5.86,0,0,0,71.61,220.79Z"/><path class="cls-2" d="M160.4,207.54a11.07,11.07,0,0,1,.36,2.15,3.08,3.08,0,0,1-.53,2.07,3,3,0,0,0-.29.9,10.37,10.37,0,0,0-.15,1.08c0,.36-.07.68-.12,1s-.13.44-.24.47a1,1,0,0,1-.42,0,2.08,2.08,0,0,0-.5,0l-.31.32a8,8,0,0,1-1.36,2.11,19.18,19.18,0,0,1-2.11,2.12,17.52,17.52,0,0,1-2.41,1.77,9.68,9.68,0,0,1-2.27,1.07,4.43,4.43,0,0,1-1.39.2,3.84,3.84,0,0,1-1-.17,6.69,6.69,0,0,1-.72-.29.91.91,0,0,0-.63,0,2.42,2.42,0,0,0-1.14.77,2.06,2.06,0,0,1-.92.7.31.31,0,0,1-.41-.2c-.09-.18-.35-.29-.79-.32a12,12,0,0,1-2.28-.38l-2.6-.66c-.88-.23-1.71-.41-2.48-.56a4.28,4.28,0,0,0-1.86,0,2.81,2.81,0,0,1-1.22-.39c-.67-.31-1.46-.64-2.37-1a17.81,17.81,0,0,0-2.91-.83,6,6,0,0,0-2.88.08,3.2,3.2,0,0,0-2.08,1.59,6.1,6.1,0,0,0-.65,2.57l-.32.09-.16.05a2,2,0,0,0-1.1.78,3.55,3.55,0,0,0-.58,1.33,5.88,5.88,0,0,0-.11,1.51,6.69,6.69,0,0,0,.24,1.41,14.15,14.15,0,0,0,.67,1.81,13.48,13.48,0,0,1,.67,1.8c.06.21.12.43.19.64a2.92,2.92,0,0,1,.11.61,5.59,5.59,0,0,0-1.38.22,7.08,7.08,0,0,0-1.3.53,7.4,7.4,0,0,1-1.29.52,1.89,1.89,0,0,1-1.74-.19,6.52,6.52,0,0,1-1.24-1.27,11.42,11.42,0,0,0-1.73-1.75c-.66-.54-1.33-1.09-2-1.62a15.61,15.61,0,0,1-1.82-1.68,4.73,4.73,0,0,1-1.12-1.93c-.26-.89-.48-1.79-.67-2.71s-.41-1.83-.68-2.75a3.39,3.39,0,0,1,0-2.09c.22-.64.46-1.31.74-2a12.53,12.53,0,0,0,.67-2.29,6.06,6.06,0,0,0-.23-2.89,1.06,1.06,0,0,1,0-.73l.33-.64a8.57,8.57,0,0,0,.92-2.13c.32-1,.67-2.06,1-3.26s.82-2.42,1.28-3.67a19.9,19.9,0,0,1,1.6-3.37,2.75,2.75,0,0,1,.41-.58,1.24,1.24,0,0,1,.45-.25,3.53,3.53,0,0,1,.55-.1,4,4,0,0,0,.66-.13,1.57,1.57,0,0,0,.73-.39,1.24,1.24,0,0,0,.26-.51,5.4,5.4,0,0,0,.09-.58,1.49,1.49,0,0,1,.27-.66,2.16,2.16,0,0,1,1.34-.79,3.8,3.8,0,0,0,1.58-.75,7.17,7.17,0,0,0,.83-.91c.26-.32.5-.65.74-1a9.38,9.38,0,0,1,.77-.92,4.84,4.84,0,0,1,1-.77,28.2,28.2,0,0,0,3.55-2.57,26.37,26.37,0,0,0,3.16-3.18,21.63,21.63,0,0,0,2.49-3.68,16.22,16.22,0,0,0,1.54-4.07,4.59,4.59,0,0,1,.29-.9c.15-.35.3-.71.44-1.08a7,7,0,0,0,.33-1.08,1.87,1.87,0,0,0,0-.85,2.07,2.07,0,0,0-.28-.58,1.76,1.76,0,0,1-.29-.58.61.61,0,0,1,.11-.62c.15-.15.31-.32.5-.49a2.06,2.06,0,0,0,.68-1,4.47,4.47,0,0,0,.23-1.2,6.32,6.32,0,0,0-.09-1.28,9,9,0,0,0-.26-1.2,9.14,9.14,0,0,0-.42-1.15,8.41,8.41,0,0,0-.62-1.15,3.74,3.74,0,0,0-.89-.93,3.61,3.61,0,0,0-1.63-.54.4.4,0,0,1-.4-.29.79.79,0,0,1,0-.43.89.89,0,0,0,0-.43,1.17,1.17,0,0,0-.63-.66,7,7,0,0,0-1.19-.52c-.46-.16-.9-.32-1.33-.49a2.36,2.36,0,0,1-1-.61,4.37,4.37,0,0,0-1.59-.67,24.53,24.53,0,0,0-2.56-.53c-.91-.14-1.78-.23-2.6-.28a6,6,0,0,0-1.72.06,10.22,10.22,0,0,0-3.39,1.71,22.62,22.62,0,0,1-3.22,2.07c-.81.43-1.9.93-3.28,1.5a25.73,25.73,0,0,0-3.9,2,11,11,0,0,0-3,2.72,3.82,3.82,0,0,0-.56,3.53,3,3,0,0,0,1,1.52,10.87,10.87,0,0,0,1.79,1.17,22.41,22.41,0,0,0,2.2,1,16.06,16.06,0,0,1,2.24,1.1,9.77,9.77,0,0,1,1.85,1.4,4.24,4.24,0,0,1,1.14,1.9,3.6,3.6,0,0,1-.19,2.63,7.58,7.58,0,0,1-1.67,2.26,10.88,10.88,0,0,1-2.4,1.71,13.34,13.34,0,0,1-2.45,1,7.82,7.82,0,0,1-2.57.34c-.54,0-1,0-1.23,0a2.3,2.3,0,0,1-.71,0,.82.82,0,0,1-.48-.38c-.14-.21-.34-.57-.61-1.08a6.13,6.13,0,0,0-1-1.47c-.39-.41-.78-.82-1.15-1.23s-.72-.86-1.05-1.32a5.62,5.62,0,0,1-.78-1.71,10.46,10.46,0,0,1-.28-3.23,34,34,0,0,1,.45-4.13,37.32,37.32,0,0,1,.94-4.07,13.92,13.92,0,0,1,1.22-3.05,2.92,2.92,0,0,0,.35-1,9.6,9.6,0,0,1,.21-1,2.33,2.33,0,0,1,.42-.85,2,2,0,0,1,1-.59l1-.28a3,3,0,0,0,1.17-.57,1.6,1.6,0,0,0,.47-1.18,1.35,1.35,0,0,1,.53-1,5,5,0,0,1,1.17-.74c.45-.21.9-.4,1.37-.58s.85-.3,1.14-.38a10.67,10.67,0,0,0,2-.92c.61-.37,1.22-.76,1.84-1.17s1.22-.8,1.84-1.15a9.21,9.21,0,0,1,2-.84l.87-.19a61.58,61.58,0,0,1,7.71-1.43,17,17,0,0,1,5.76.29,15.39,15.39,0,0,1,5.16,2.39,68.23,68.23,0,0,1,6,4.75,12.39,12.39,0,0,1,1.52,1.74,4,4,0,0,0,1.89,1.39,8.51,8.51,0,0,0,0,3c.19,1,.38,1.95.59,2.93a8.65,8.65,0,0,1,.25,1.75,9.23,9.23,0,0,1-.06,1.5,13,13,0,0,1-.24,1.46c-.1.49-.2,1.06-.28,1.7a6,6,0,0,0-.09,1.1,8,8,0,0,1,0,.85,2,2,0,0,1-.2.78,3.38,3.38,0,0,1-.73.88,2.37,2.37,0,0,0-.66,1.12,5.27,5.27,0,0,0-.14,1.11,6.38,6.38,0,0,1-.12,1.08,1.52,1.52,0,0,1-.69.93,11.84,11.84,0,0,0-2,2.09c-.6.8-1.18,1.6-1.73,2.42s-1.13,1.6-1.72,2.36a7.2,7.2,0,0,1-2.13,1.83,11.9,11.9,0,0,0-2.51,2c-.74.76-1.47,1.53-2.17,2.31s-1.41,1.55-2.14,2.31a11.5,11.5,0,0,1-2.48,1.94,2.86,2.86,0,0,0-.83.73,3.16,3.16,0,0,0-.44.88c-.1.32-.2.65-.29,1a4.71,4.71,0,0,1-.41,1,3,3,0,0,1-.88,1.07,7.59,7.59,0,0,1-1,.57,4.56,4.56,0,0,0-1,.72,3.93,3.93,0,0,0-.85,1.55,2.27,2.27,0,0,1-.64,1c-.31.28-.59.56-.86.83a3.68,3.68,0,0,0-.65.86,1.43,1.43,0,0,0-.06,1.09,1.5,1.5,0,0,1,0,.89c-.09.28-.19.56-.3.85s-.22.56-.31.84a1.34,1.34,0,0,0,0,.84,2.08,2.08,0,0,0,.29.61,2.13,2.13,0,0,0,.68.65,2.7,2.7,0,0,0,1.13.39,3.81,3.81,0,0,0,1.63-.18,12.88,12.88,0,0,0,1.87-.72,13,13,0,0,1,1.88-.72,4.89,4.89,0,0,1,1.59-.2c.53,0,1,.05,1.57.09s1,.08,1.54.11a4.37,4.37,0,0,0,1.45-.17,1.81,1.81,0,0,0,1.35-1.95c.16,0,.33.19.49.49l.48.93c.15.33.3.63.46.91s.3.41.4.38a1.27,1.27,0,0,0,.33-.88.7.7,0,0,1,.54-.71.91.91,0,0,1,.71.14l.85.51a4.83,4.83,0,0,0,1,.46,1.86,1.86,0,0,0,1.19,0,4.52,4.52,0,0,1,2.56.16c1,.31,2,.66,3.13,1.06s2.15.75,3.22,1A5.28,5.28,0,0,0,148,216a4.27,4.27,0,0,0,2.14-1.29,7.91,7.91,0,0,0,1.25-2,14.66,14.66,0,0,0,.78-2.4,16.31,16.31,0,0,1,.72-2.39,7.42,7.42,0,0,1,1.16-2,4.05,4.05,0,0,1,2-1.25c1.36-.39,2.34-.3,3,.27A5.75,5.75,0,0,1,160.4,207.54Zm-33.88-55.48-2.3.67c.14,0,.24,0,.29.2a.87.87,0,0,1,0,.53.43.43,0,0,1-.19-.23s0-.06,0-.07,0,0,0-.06l-.11-.37.16.76a2.5,2.5,0,0,0,.71,1.42,1.6,1.6,0,0,0,1.51.43,4.64,4.64,0,0,1,.15-1.38,2.59,2.59,0,0,0,0-1.38Z"/><path class="cls-2" d="M213.72,171.45a2.74,2.74,0,0,1,0,1.53,2.94,2.94,0,0,0,0,1.53,2.76,2.76,0,0,0,.42.84,2.38,2.38,0,0,1,.43.89,5,5,0,0,1,.19,1.13,4.86,4.86,0,0,1-.07,1.27,3.28,3.28,0,0,1-.4,1.1,1.44,1.44,0,0,1-.88.66,1.36,1.36,0,0,1-.44.07l0,.39a.86.86,0,0,0,.48.65,1.82,1.82,0,0,0,.66.09,3.39,3.39,0,0,1,.65,0,.55.55,0,0,1,.42.44.74.74,0,0,1-.09.69,4.68,4.68,0,0,1-.49.52,2.6,2.6,0,0,0-.47.57,1,1,0,0,0,0,.85,5.5,5.5,0,0,0,.49,1.19,6.27,6.27,0,0,1,.48,1.14,2.76,2.76,0,0,1,.1.75.7.7,0,0,1-.4.61l-1,2.83a2.08,2.08,0,0,1-.72,1.11,8.37,8.37,0,0,1-.9.58,3.27,3.27,0,0,0-.69.52.84.84,0,0,0-.09.87,5.53,5.53,0,0,1,0,2.43,4.61,4.61,0,0,1-1,1.88,6.72,6.72,0,0,1-1.71,1.39,10.35,10.35,0,0,1-2.25,1,6.65,6.65,0,0,1-2.37.22.91.91,0,0,0-.08.72c.09.32.39.48.89.47s.88,0,1.14-.07a1.87,1.87,0,0,1-.13,1.25,3,3,0,0,1-.8,1,5.24,5.24,0,0,1-1.24.71,15,15,0,0,1-1.47.51,16.86,16.86,0,0,1-1.81.44c-.57.11-1,.22-1.45.33a2.22,2.22,0,0,0-.94.54,7.23,7.23,0,0,0-.67.78l-.62.78a1.38,1.38,0,0,1-.72.5l-.49-.09a.86.86,0,0,0-.39,0,1.8,1.8,0,0,0-.35.08,8.62,8.62,0,0,0-1.46.56,7.89,7.89,0,0,1-1.46.57,14.93,14.93,0,0,1-3.2.53c-1.22.08-2.3.17-3.24.25a2.17,2.17,0,0,1-1.28-.24,5.09,5.09,0,0,1-.93-.69,7.14,7.14,0,0,0-.93-.71,2,2,0,0,0-1.24-.28,4.65,4.65,0,0,0-1,.1c-.31.07-.6.13-.88.17a3.6,3.6,0,0,1-.87,0,2.61,2.61,0,0,1-1-.35,5.52,5.52,0,0,1-1.33-1L175,206.82a10.37,10.37,0,0,0-1.24-1.06,3.6,3.6,0,0,0-1.57-.62,3.12,3.12,0,0,1-1.22-.51,2.06,2.06,0,0,1-.84-1,6.13,6.13,0,0,0,.32-1.71,1.45,1.45,0,0,0-.67-.7l-.65-.22a1.66,1.66,0,0,1-.65-.45,3.72,3.72,0,0,1-.64-1.41,16.42,16.42,0,0,0-.74-2,16.58,16.58,0,0,1-.74-2.05,4.54,4.54,0,0,1,1.06-4.71,8,8,0,0,1,2-1.52,12.6,12.6,0,0,1,2.46-1,15.14,15.14,0,0,1,2.39-.46,8.76,8.76,0,0,1,2.56.07,5.29,5.29,0,0,1,2.24.91,3.64,3.64,0,0,1,1.38,2,14.42,14.42,0,0,1,.57,3.78,14.3,14.3,0,0,0,.58,3.77,3.77,3.77,0,0,0,.68,1.34c.31.4.62.79.95,1.18s.64.78,1,1.17a3.64,3.64,0,0,1,.66,1.28,1.78,1.78,0,0,1,0,.28c0,.11,0,.2.05.27.71-.24,1.38-.49,2-.76a21.52,21.52,0,0,1,2.05-.72,7.08,7.08,0,0,1,2.77-.25,6.65,6.65,0,0,0,2.61-.21,6,6,0,0,0,1.61-.73c.51-.32,1-.65,1.48-1s1-.66,1.49-1a6.58,6.58,0,0,1,1.66-.75,3.08,3.08,0,0,0,1.49-.87,5.62,5.62,0,0,0,.87-1.29l.7-1.48a4.3,4.3,0,0,1,1-1.38,10.46,10.46,0,0,0,2.37-3,14,14,0,0,0,1.3-3.59,14.48,14.48,0,0,0,.31-3.83,16.34,16.34,0,0,0-.65-3.81,15.86,15.86,0,0,0-2-4.27,22.89,22.89,0,0,0-3.22-3.87,24.29,24.29,0,0,0-4.09-3.22,23.11,23.11,0,0,0-4.65-2.24,19.46,19.46,0,0,0-4.88-1,12.9,12.9,0,0,0-4.7.47,15.24,15.24,0,0,0-3.27,1.41q-1.66.94-3.09,1.83a4.2,4.2,0,0,0-1.26,1.15c-.35.47-.68.94-1,1.42a15.71,15.71,0,0,1-1,1.37,4.26,4.26,0,0,1-1.34,1.06,13.35,13.35,0,0,0-.75,1.63,16.88,16.88,0,0,1-.82,1.84A8.7,8.7,0,0,1,171,178a3,3,0,0,1-1.46.94,2.11,2.11,0,0,1-2-.45,7.79,7.79,0,0,1-1.77-2.21,21.62,21.62,0,0,1-1.52-3.33c-.46-1.25-.88-2.51-1.24-3.75-.44-1.54-.82-2.94-1.11-4.23s-.52-2.2-.68-2.73c-.29-1-.61-2-1-2.94a20.57,20.57,0,0,0-1.26-2.73l.31-.15a1.46,1.46,0,0,1,1.09.09,1.7,1.7,0,0,0,1.12.14l-.1-.32a2.08,2.08,0,0,0-.71-1.16,4.05,4.05,0,0,0-1-.54,6.42,6.42,0,0,1-1-.43,1.43,1.43,0,0,1-.64-.89c-.18-.64-.4-1.43-.63-2.37s-.46-1.92-.69-3-.45-2-.67-3-.41-1.81-.53-2.51a2.72,2.72,0,0,1,.65-2.86,7.06,7.06,0,0,1,2.74-1.43,14.69,14.69,0,0,1,3.13-.59c.95-.07,1.8-.09,2.56-.08l2.1,0a5.42,5.42,0,0,0,1.82-.21,11.34,11.34,0,0,0,1.5-.55,12.18,12.18,0,0,1,1.49-.55,16.07,16.07,0,0,1,4-.62,16.1,16.1,0,0,0,4.13-.65,9.23,9.23,0,0,0,2.29-1c.7-.44,1.41-.89,2.12-1.37s1.43-.94,2.15-1.38a9.84,9.84,0,0,1,2.36-1,6.29,6.29,0,0,1,2.3-.26,3,3,0,0,1,1.66,0,1.24,1.24,0,0,1,.67.62,1.79,1.79,0,0,1,.15.79,1.93,1.93,0,0,0,0,.58c.06.21-.09.56-.46,1a17.62,17.62,0,0,1-1.28,1.47c-.49.51-1,1-1.43,1.46s-.78.78-1,.95a5.61,5.61,0,0,1-2.27,2.43,13.73,13.73,0,0,1-3.12,1.34c-.54.16-1.37.35-2.5.59s-2.4.47-3.82.73-2.89.51-4.44.77-3,.48-4.41.67-2.63.34-3.7.44a16.51,16.51,0,0,1-2.26.11.31.31,0,0,0,0,.24l.06.22a16.47,16.47,0,0,0,1.55,3.63,16.74,16.74,0,0,1,1.55,3.64l.07.44a2.49,2.49,0,0,1-1.48,0,2.57,2.57,0,0,0-1.48,0l-.3.15.11.6a3.26,3.26,0,0,0,.62,1.22,2.81,2.81,0,0,0,.9.72,4.85,4.85,0,0,0,1.13.39l1.31.29a2.61,2.61,0,0,1,1.39,1.22,19.34,19.34,0,0,1,1.37,2.41c.44.9.84,1.78,1.23,2.63a9.92,9.92,0,0,0,1,1.9,14.93,14.93,0,0,1,1.89-1.3c.85-.52,1.75-1,2.7-1.57s1.86-1,2.74-1.43a14.82,14.82,0,0,1,2.07-.87,16.73,16.73,0,0,1,3.9-.64,16.22,16.22,0,0,0,3.9-.64,7.37,7.37,0,0,1,4.16,0c1.35.38,2.68.78,4,1.21a3.58,3.58,0,0,1,1.05.91c.44.5.88,1,1.33,1.59a14,14,0,0,0,1.36,1.46c.44.41.83.57,1.15.47a2.48,2.48,0,0,0,.83-.44,2.48,2.48,0,0,1,.88-.46,3,3,0,0,1,2.49.29,8.36,8.36,0,0,1,2.12,1.82,15,15,0,0,1,1.7,2.46l1.23,2.22a2.81,2.81,0,0,0,.59.76l.74.62c.25.22.49.44.71.67A1.86,1.86,0,0,1,213.72,171.45Zm-4.9,25.19A.83.83,0,0,0,208,196a3.07,3.07,0,0,0-1.13.1,3.9,3.9,0,0,0-1,.45.69.69,0,0,0-.4.82l0,.1.53-.15a6,6,0,0,1,1.39-.23,2.45,2.45,0,0,1,1.36.3A1.15,1.15,0,0,0,208.82,196.64Z"/><path class="cls-2" d="M254.63,180.36a6.84,6.84,0,0,0-.6,2.32,7,7,0,0,0,.24,2.42c.06.18.12.35.19.53s.14.34.23.51a12.88,12.88,0,0,1-.1,1.82c-.09.65-.17,1.3-.25,2a18.39,18.39,0,0,0-.13,1.92,7.22,7.22,0,0,0,.17,1.81,3.82,3.82,0,0,1-1.11,1.94,9.44,9.44,0,0,0,.2,1.69c.11.5.25,1,.41,1.61a1.54,1.54,0,0,1-.17,1.5,6.47,6.47,0,0,1-1.07,1,7.41,7.41,0,0,0-1.12,1,2,2,0,0,0-.37,1.59,4.87,4.87,0,0,1-.22,1.45,19.74,19.74,0,0,1-.64,2c-.26.69-.53,1.37-.8,2s-.47,1.17-.6,1.51c-.32.79-.61,1.52-.87,2.2a12.77,12.77,0,0,1-.93,1.89,6.23,6.23,0,0,1-3.35,2.74,6.71,6.71,0,0,0-1.35.83,3.67,3.67,0,0,1-1.28.69,2.07,2.07,0,0,1-1.68-.09,3.86,3.86,0,0,1-1.13-1c-.31-.41-.62-.82-.9-1.22a1.46,1.46,0,0,0-1-.65c-.2,0-.42-.06-.66-.1a.51.51,0,0,1-.46-.39,2,2,0,0,1,.11-1,3.81,3.81,0,0,0,.17-1.21,1.85,1.85,0,0,1-.45-.74c-.09-.32-.06-.56.12-.7a3.69,3.69,0,0,1,.62-.45,4,4,0,0,0,.71-.55,1.44,1.44,0,0,0,.38-1,4.37,4.37,0,0,1,.75-2.22,19.92,19.92,0,0,1,1.57-2.08c.59-.69,1.21-1.39,1.87-2.11a11.87,11.87,0,0,0,1.69-2.29,8.48,8.48,0,0,0,1-2.65,6.68,6.68,0,0,0-.22-3.16l-.18-.61c-.08-.3-.19-.62-.3-1s-.23-.61-.34-.85-.18-.36-.22-.35a4.55,4.55,0,0,0-1.74,1,4.56,4.56,0,0,1-1.8,1,2.83,2.83,0,0,1-1.65-.27c-.74-.29-1.54-.65-2.4-1.07s-1.67-.85-2.45-1.26-1.38-.71-1.82-.89l-.24-.8-.14-.48a20,20,0,0,0-1.54-3.82,20,20,0,0,1-1.56-3.86,9,9,0,0,1-.41-2.69,10.68,10.68,0,0,1,.25-2.16c.14-.64.26-1.23.36-1.76a3.63,3.63,0,0,0-.09-1.6,3.18,3.18,0,0,0,.72-.09,1.62,1.62,0,0,0,.71-.55,9.52,9.52,0,0,0,.73-1c.22-.35.43-.7.62-1.05s.32-.59.4-.72a3,3,0,0,1,1.12-.62l1.2-.35a3.69,3.69,0,0,0,1.15-.54l1-.7,1-.7a4.14,4.14,0,0,1,1.2-.55,12.32,12.32,0,0,1,2.62-.47,21.23,21.23,0,0,0,2.64-.37,3.69,3.69,0,0,1,.86.86,7.79,7.79,0,0,0,.72.86,2.84,2.84,0,0,0,.81.6,1.65,1.65,0,0,0,1.19,0,.51.51,0,0,0,.18-.09.75.75,0,0,1,.18-.08,4.24,4.24,0,0,1-.32,1.4,2.11,2.11,0,0,0-.19,1.24,2.28,2.28,0,0,0,1,1.16,1.75,1.75,0,0,0,1.42.4,1.28,1.28,0,0,0,.57-.34,1.4,1.4,0,0,1,.57-.34.33.33,0,0,1,.32.11,2.89,2.89,0,0,1,.31.37,1.27,1.27,0,0,0,.37.36.6.6,0,0,0,.53.05l.07.21c.16.57.11,1-.17,1.21a3.37,3.37,0,0,1-1,.58.86.86,0,0,0,.67.59,5.82,5.82,0,0,0,1,.07,2.55,2.55,0,0,1,.92.17,1.19,1.19,0,0,1,.62.86,4,4,0,0,1,.17,1.17,4.29,4.29,0,0,0,.16,1.17,2.42,2.42,0,0,0,.46.85A1,1,0,0,0,254.63,180.36Z"/><path class="cls-2" d="M314.8,139.67a1.53,1.53,0,0,1,0,1,1.11,1.11,0,0,1-.73.59,2.36,2.36,0,0,1-1.09.05,2.48,2.48,0,0,0-1.14.07,2.62,2.62,0,0,0-.09.38.88.88,0,0,0,0,.39c.07.25.21.36.41.32l.63-.13a1.68,1.68,0,0,1,.67,0q.34.07.51.66a17.35,17.35,0,0,1,.37,1.87c.13.85.23,1.75.29,2.7s.09,1.82.07,2.64a4.07,4.07,0,0,1-.28,1.71,6.41,6.41,0,0,0-.46,1.2,2,2,0,0,0,.12,1.22l.45,1.37a2.66,2.66,0,0,1,.18,1.49,6.64,6.64,0,0,1-.38,1.09c-.16.34-.29.64-.4.93a1.49,1.49,0,0,0,0,1,1.32,1.32,0,0,0,.18.41c-.52,0-1-.06-1.52-.05a6,6,0,0,0-1.5.23,3.54,3.54,0,0,0-1.35.74,2.35,2.35,0,0,0-.7,1.37,1.33,1.33,0,0,0,.26.5.41.41,0,0,0,.5.14,1.37,1.37,0,0,0,.84-.7,1.36,1.36,0,0,1,.84-.71.48.48,0,0,1,.59.23,2.72,2.72,0,0,1,.29.61,2.94,2.94,0,0,1,.13,1.24q-.08.54-.87.78a4.1,4.1,0,0,1-1,.16,4.59,4.59,0,0,0-1,.17l-.33.44a1.56,1.56,0,0,0,1.54.71,38.2,38.2,0,0,1-2.11,3.81,29.13,29.13,0,0,1-2.82,3.77,21.3,21.3,0,0,1-3.42,3.17,12.06,12.06,0,0,1-3.84,2,23,23,0,0,1-3.61.64c-1.55.19-3.17.32-4.84.4s-3.29.09-4.84,0a13.55,13.55,0,0,1-3.6-.54,1.87,1.87,0,0,1-1-.58c-.12-.2-.22-.37-.3-.52a1,1,0,0,0-.46-.39,3.72,3.72,0,0,0-1.43-.13,8.7,8.7,0,0,1-3.71-.6,5.74,5.74,0,0,1-2-1.48,7,7,0,0,1-1.09-1.77,3.32,3.32,0,0,0-1.05-1.41l-1.4-1q-.74-.54-1.44-1.14a10.71,10.71,0,0,1-1.24-1.29,4.44,4.44,0,0,1-.8-1.54,1.3,1.3,0,0,1,.21-1.19,1.19,1.19,0,0,0,.25-1,.61.61,0,0,0-.2-.29,3.39,3.39,0,0,0-.29-.21q-.78-.47-1.29-.84a4.75,4.75,0,0,1-.89-.84,9,9,0,0,1-.68-1,9.88,9.88,0,0,1-.61-1.42,18.37,18.37,0,0,0-1.66-3.2,12.18,12.18,0,0,1-1.49-3.24c-.26-.89-.5-1.79-.73-2.69s-.46-1.8-.72-2.69a10.21,10.21,0,0,1-.41-2.52,10.36,10.36,0,0,0-1-4.08,10.05,10.05,0,0,1-.61-1.62,14.07,14.07,0,0,1-.57-4c0-1.38,0-2.76.1-4.15s.09-2.78.09-4.17a14.87,14.87,0,0,0-.59-4.12c-.1-.35-.23-.7-.36-1.05a11.1,11.1,0,0,1-.38-1.11,1.76,1.76,0,0,1,0-1.45,1.91,1.91,0,0,1,.74-.65c.28-.14.55-.29.8-.44s.31-.43.18-.86a3.33,3.33,0,0,0-.29-.7,3.33,3.33,0,0,1-.29-.7,1.44,1.44,0,0,1,.29-1.1q.42-.66,1-1.47c.37-.53.73-1.07,1.07-1.61a3.51,3.51,0,0,0,.58-1.59,1.54,1.54,0,0,1,.63-1.11,12.46,12.46,0,0,1,1.13-.71,6.77,6.77,0,0,0,1-.64.81.81,0,0,0,.23-1,2.61,2.61,0,0,0-.39-.76,6.46,6.46,0,0,0,1.81,0,13.45,13.45,0,0,0,1.8-.38,5.56,5.56,0,0,0,1.86-.89,10.9,10.9,0,0,0,1.2-1.13,13.86,13.86,0,0,1,1.15-1.15,4.27,4.27,0,0,1,1.69-.87,8.42,8.42,0,0,0,2.54-1.23,8.31,8.31,0,0,1,2.54-1.23,13.08,13.08,0,0,1,2.46-.31q1.81-.12,3.78-.06a26.65,26.65,0,0,1,3.58.35c1.08.19,1.72.49,1.91.9a2.43,2.43,0,0,1,.66-.31l.65-.19a5.9,5.9,0,0,1,1.69-.26,7.93,7.93,0,0,1,1.49.14,12.14,12.14,0,0,1,1.45.4c.49.16,1,.32,1.56.47l.14.31.13.25a2.49,2.49,0,0,1,0,1.38,4.64,4.64,0,0,0-.15,1.38,1.18,1.18,0,0,0,.79.52l1,.18a5.64,5.64,0,0,1,.94.25,1.15,1.15,0,0,1,.68.73,2.53,2.53,0,0,0,.51.86c.19.2.54.24,1.05.13l.27,1.14.16.54a7.9,7.9,0,0,0,1.55,3,13.94,13.94,0,0,0,2.09,2c.72.57,1.38,1.12,2,1.66a4.11,4.11,0,0,1,1.23,1.93,4.35,4.35,0,0,1,.07,2.15,4,4,0,0,0,0,1.94,1.93,1.93,0,0,0,.63.77c.36.31.76.66,1.19,1.08a16,16,0,0,1,1.27,1.4,5,5,0,0,1,.93,1.79,3.05,3.05,0,0,1-.72,3.1,1.85,1.85,0,0,0,.05.57,1,1,0,0,0,.48.67,5.43,5.43,0,0,0,.7.32,3.08,3.08,0,0,1,.72.37,1.58,1.58,0,0,1,.55.88,2.59,2.59,0,0,1,.08,1.19,6.32,6.32,0,0,1-.27,1c-.12.33-.23.63-.32.91a1.36,1.36,0,0,0,.48,1.54c.24.18.5.36.76.53s.52.36.77.56A1.57,1.57,0,0,1,314.8,139.67ZM305.45,135a5.21,5.21,0,0,0-1-1.88,5.49,5.49,0,0,1-1-1.89,24.69,24.69,0,0,1-.59-2.44q-.24-1.2-.6-2.43a6.93,6.93,0,0,1-.26-1.61,6.2,6.2,0,0,0-.25-1.55,7.49,7.49,0,0,0-1.18-2.15c-.61-.86-1.31-1.75-2.08-2.67s-1.53-1.79-2.29-2.61-1.36-1.5-1.78-2a1.54,1.54,0,0,1-.26-.3,4.23,4.23,0,0,0-.44-.51l-.45-.45c-.14-.14-.24-.19-.31-.17s-.1.14-.24.18a4,4,0,0,1-1.24-.39,18.8,18.8,0,0,1-2.38-1.19,17.15,17.15,0,0,1-2.4-1.68,4,4,0,0,1-1.39-1.89.86.86,0,0,1,0-.39,10.62,10.62,0,0,1-1.85.34,12.94,12.94,0,0,1-2.25,0,7.88,7.88,0,0,1-2.15-.41,2.94,2.94,0,0,1-1.48-1,14.19,14.19,0,0,0-2.43,1.31l-2.25,1.53c-.75.5-1.51,1-2.31,1.45a11.27,11.27,0,0,1-2.52,1.08,5.15,5.15,0,0,1-.62.16,6.17,6.17,0,0,1-.64.09,1.6,1.6,0,0,1,.36.65.69.69,0,0,1-.21.85,4.06,4.06,0,0,1-1,.43c-.29.08-.55.15-.79.2l-.62.15-.36.16.2.47.06.21a1.72,1.72,0,0,1,0,1.17,4,4,0,0,1-.61,1c-.26.31-.54.61-.83.91a4.32,4.32,0,0,0-.72.93.75.75,0,0,1,.88.62,5.38,5.38,0,0,1-.05,2.42c-.21,1-.43,2.15-.66,3.43a36.31,36.31,0,0,0-.46,4.08,12.55,12.55,0,0,0,.49,4.29,1.51,1.51,0,0,1-.29.58,1,1,0,0,1-.54.36,1.9,1.9,0,0,1-.92,0,1.91,1.91,0,0,0-1,0c-.32.09-.45.27-.37.51a1.62,1.62,0,0,0,.64.92c.32.22.67.44,1.07.67a8.77,8.77,0,0,1,1.1.79,2.38,2.38,0,0,1,.71,1.18,6.83,6.83,0,0,1,.41,2.69,3.41,3.41,0,0,1-.44,1.29,4.47,4.47,0,0,0-.48,1,3.47,3.47,0,0,0,.2,1.88c.06.22.12.42.18.62a2.33,2.33,0,0,0,.21.54,7.24,7.24,0,0,1-1.11,2,3.16,3.16,0,0,1,1.59.49,6.63,6.63,0,0,1,1.23,1,7.4,7.4,0,0,1,.88,1.22,5.15,5.15,0,0,1,.48,1.08,17.89,17.89,0,0,0,1.22,3.09,18.31,18.31,0,0,1,1.22,3.1,5.86,5.86,0,0,1,.34,2,1.44,1.44,0,0,1-.36.86,1.11,1.11,0,0,1-.53.3q-.24,0-.15.36c.07.25.2.35.37.3a1.94,1.94,0,0,0,.84-.53l.71-.73a5.32,5.32,0,0,1,.47,1.2c.15.53.31,1.06.49,1.59a5.92,5.92,0,0,0,.62,1.36,1,1,0,0,0,.94.51,2,2,0,0,1,1.27.21,3,3,0,0,1,.76.7l.69.88a2.07,2.07,0,0,0,1.11.63,7.88,7.88,0,0,1,2,.74c.64.33,1.29.64,1.95.91a14.44,14.44,0,0,0,2,.66,4.56,4.56,0,0,0,2.11,0c1.28-.26,2.58-.47,3.9-.64s2.65-.3,4-.38a5.55,5.55,0,0,0,1.67-.25,8.14,8.14,0,0,0,2-.91c.64-.39,1.27-.81,1.9-1.24s1.27-.86,1.92-1.26a8.61,8.61,0,0,1,2.06-.92,7.22,7.22,0,0,1,1.43-.24,1,1,0,0,1-.16-.36,3.18,3.18,0,0,1,.17-1.7,13.84,13.84,0,0,1,.94-2.27,13,13,0,0,1,1.3-2.09,4.16,4.16,0,0,1,1.27-1.21,1.42,1.42,0,0,1-.36-.56c-.09-.23-.16-.45-.23-.66a7.26,7.26,0,0,1-.24-1.84,2,2,0,0,1,.68-1.65,1.3,1.3,0,0,0,.42-.85,5.13,5.13,0,0,0,0-1.31,12.52,12.52,0,0,0-.25-1.58c-.13-.56-.27-1.11-.42-1.64s-.37-1.24-.55-1.79-.31-1-.39-1.25l-.16-.53a3,3,0,0,0,.67-1.9,13,13,0,0,0-.15-2.19c-.11-.71-.22-1.33-.34-1.87s-.12-.9,0-1A1.53,1.53,0,0,0,305.45,135Zm-.56,33.15-.22.06a2.5,2.5,0,0,0-1.56,1.21,6.49,6.49,0,0,0-.69,2,.68.68,0,0,1,.54-.73.46.46,0,0,1-.1.46,1,1,0,0,1-.44.27,11.14,11.14,0,0,1,1.3-.29,11.3,11.3,0,0,0,1.31-.29,1.17,1.17,0,0,0,.68-.46,1.37,1.37,0,0,0,.19-.73,3.08,3.08,0,0,0-.12-.83c-.09-.28-.16-.55-.24-.8Zm4.95-39.76a.82.82,0,0,0-.71-.66,2.37,2.37,0,0,0-1,0c-.72.21-1,.63-.79,1.27a.75.75,0,0,0,.6.58,1.68,1.68,0,0,0,.89,0,1.78,1.78,0,0,0,.77-.45A.73.73,0,0,0,309.84,128.41Z"/><path class="cls-2" d="M381.66,120.21a1.44,1.44,0,0,1,0,1,1.07,1.07,0,0,1-.73.58,2.2,2.2,0,0,1-1.08.06,2.34,2.34,0,0,0-1.14.07c0,.13-.07.25-.1.37a.92.92,0,0,0,0,.4c.08.25.21.36.41.32l.63-.13a1.68,1.68,0,0,1,.67,0q.35.08.51.66a15.16,15.16,0,0,1,.37,1.87c.13.85.23,1.75.29,2.69s.09,1.83.08,2.65a4.07,4.07,0,0,1-.29,1.71,6.41,6.41,0,0,0-.46,1.2,2,2,0,0,0,.12,1.21l.46,1.38a2.61,2.61,0,0,1,.17,1.48,5.68,5.68,0,0,1-.38,1.1q-.22.49-.39.93a1.43,1.43,0,0,0,0,1,1.81,1.81,0,0,0,.17.41,12.94,12.94,0,0,0-1.52,0,6,6,0,0,0-1.5.23,3.41,3.41,0,0,0-1.35.74,2.41,2.41,0,0,0-.7,1.37,1.6,1.6,0,0,0,.26.5.44.44,0,0,0,.51.14,1.41,1.41,0,0,0,.84-.71,1.38,1.38,0,0,1,.83-.7.48.48,0,0,1,.59.23,2.61,2.61,0,0,1,.3.61,3.3,3.3,0,0,1,.13,1.24c-.05.36-.35.62-.88.78a4,4,0,0,1-1,.16,4,4,0,0,0-1,.17l-.34.44a1.56,1.56,0,0,0,1.54.71,37.32,37.32,0,0,1-2.11,3.81,30,30,0,0,1-2.81,3.77,22.28,22.28,0,0,1-3.43,3.17,12.06,12.06,0,0,1-3.84,2,23,23,0,0,1-3.61.64c-1.55.18-3.16.31-4.84.4s-3.29.08-4.83,0a13.71,13.71,0,0,1-3.61-.54,1.92,1.92,0,0,1-1-.58l-.3-.52a1,1,0,0,0-.46-.39,3.69,3.69,0,0,0-1.43-.13,9,9,0,0,1-3.71-.6,5.82,5.82,0,0,1-2-1.48,7.06,7.06,0,0,1-1.1-1.77,3.32,3.32,0,0,0-1.05-1.41l-1.4-1c-.49-.36-1-.74-1.43-1.15a9.49,9.49,0,0,1-1.25-1.29,4.29,4.29,0,0,1-.79-1.53,1.3,1.3,0,0,1,.2-1.19,1.19,1.19,0,0,0,.25-1,.57.57,0,0,0-.2-.29,1.61,1.61,0,0,0-.29-.21q-.78-.46-1.29-.84a4.41,4.41,0,0,1-.88-.84,7,7,0,0,1-.68-1.05,9.81,9.81,0,0,1-.62-1.42,18.65,18.65,0,0,0-1.65-3.2,11.9,11.9,0,0,1-1.5-3.24c-.26-.89-.5-1.79-.72-2.69s-.47-1.8-.73-2.69a11.24,11.24,0,0,1-.41-2.52,10.63,10.63,0,0,0-1-4.08,10.45,10.45,0,0,1-.62-1.62,14.45,14.45,0,0,1-.57-4c0-1.37,0-2.75.1-4.14s.09-2.78.09-4.17a14.16,14.16,0,0,0-.59-4.12,9.27,9.27,0,0,0-.36-1,11.1,11.1,0,0,1-.38-1.11,1.75,1.75,0,0,1,0-1.45,2,2,0,0,1,.74-.65,8.45,8.45,0,0,0,.8-.44c.25-.15.31-.44.18-.86a2.87,2.87,0,0,0-.29-.7A4,4,0,0,1,322,98a1.48,1.48,0,0,1,.29-1.1c.28-.44.6-.93,1-1.47s.72-1.07,1.06-1.61a3.62,3.62,0,0,0,.59-1.59,1.48,1.48,0,0,1,.63-1.11,11.22,11.22,0,0,1,1.13-.71,8.25,8.25,0,0,0,1-.64.83.83,0,0,0,.24-1,2.71,2.71,0,0,0-.39-.75,6.78,6.78,0,0,0,1.8,0,12.83,12.83,0,0,0,1.8-.38,5.37,5.37,0,0,0,1.86-.89,10.2,10.2,0,0,0,1.21-1.14,15.32,15.32,0,0,1,1.14-1.14,4.41,4.41,0,0,1,1.69-.87,8.31,8.31,0,0,0,2.54-1.23,8.31,8.31,0,0,1,2.54-1.23,13.21,13.21,0,0,1,2.46-.31c1.22-.08,2.47-.1,3.78-.06a26.65,26.65,0,0,1,3.58.35c1.08.19,1.72.49,1.92.89a2.42,2.42,0,0,1,.66-.3l.64-.19a6,6,0,0,1,1.69-.26,7.85,7.85,0,0,1,1.49.14,13.59,13.59,0,0,1,1.45.39q.74.25,1.56.48l.15.3.13.26a2.59,2.59,0,0,1,0,1.38,5.41,5.41,0,0,0-.15,1.38,1.2,1.2,0,0,0,.79.52l1,.18a6,6,0,0,1,.95.25,1.17,1.17,0,0,1,.67.73,2.53,2.53,0,0,0,.51.86c.2.2.55.24,1.06.13l.27,1.14.15.53a8,8,0,0,0,1.55,3,15,15,0,0,0,2.09,2c.72.57,1.39,1.12,2,1.66a4.11,4.11,0,0,1,1.23,1.93,4.24,4.24,0,0,1,.07,2.15,4,4,0,0,0,0,1.94,1.85,1.85,0,0,0,.63.77c.35.3.75.66,1.18,1.08a16,16,0,0,1,1.28,1.4,4.87,4.87,0,0,1,.92,1.78,3.07,3.07,0,0,1-.72,3.11,1.85,1.85,0,0,0,.05.57,1.06,1.06,0,0,0,.49.67,6.29,6.29,0,0,0,.7.32,2.85,2.85,0,0,1,.71.37,1.49,1.49,0,0,1,.55.88,2.61,2.61,0,0,1,.09,1.19,6.32,6.32,0,0,1-.28,1c-.12.33-.22.63-.32.9a1.37,1.37,0,0,0,0,.8,1.39,1.39,0,0,0,.51.75c.25.18.5.36.76.53s.52.36.78.56A1.46,1.46,0,0,1,381.66,120.21Zm-9.35-4.64a5.32,5.32,0,0,0-1-1.89,5.21,5.21,0,0,1-1-1.88c-.24-.82-.43-1.63-.59-2.44s-.35-1.62-.59-2.44a6.31,6.31,0,0,1-.27-1.6,6.2,6.2,0,0,0-.25-1.55,7.42,7.42,0,0,0-1.17-2.15c-.62-.87-1.31-1.75-2.08-2.67s-1.54-1.79-2.3-2.61-1.35-1.5-1.78-2a2,2,0,0,1-.26-.3,3.5,3.5,0,0,0-.44-.51l-.45-.45c-.13-.14-.24-.19-.31-.17s-.09.14-.23.18a4,4,0,0,1-1.25-.39A18.73,18.73,0,0,1,356,91.48a18.42,18.42,0,0,1-2.41-1.68,4.05,4.05,0,0,1-1.38-1.89.9.9,0,0,1-.06-.39,10.49,10.49,0,0,1-1.84.34,14,14,0,0,1-2.25,0,7.4,7.4,0,0,1-2.15-.42,3,3,0,0,1-1.49-1A14.19,14.19,0,0,0,342,87.78l-2.25,1.53c-.74.5-1.51,1-2.3,1.45a11.34,11.34,0,0,1-2.53,1.08,5.06,5.06,0,0,1-.62.15,5.73,5.73,0,0,1-.64.1,1.75,1.75,0,0,1,.37.65.69.69,0,0,1-.22.85,3.89,3.89,0,0,1-1,.43,7.3,7.3,0,0,1-.78.19l-.62.16-.36.16.19.46.06.22a1.73,1.73,0,0,1,0,1.17,4.27,4.27,0,0,1-.61,1c-.26.3-.54.61-.84.91a4.32,4.32,0,0,0-.72.93.75.75,0,0,1,.88.62,5.11,5.11,0,0,1-.05,2.42c-.21,1-.43,2.15-.65,3.43a36,36,0,0,0-.47,4.08,12.56,12.56,0,0,0,.5,4.29,1.69,1.69,0,0,1-.3.58,1.07,1.07,0,0,1-.53.36,1.94,1.94,0,0,1-.93,0,1.91,1.91,0,0,0-1,0c-.32.09-.44.26-.37.51a1.62,1.62,0,0,0,.64.92c.32.22.67.44,1.07.67a8.1,8.1,0,0,1,1.1.79,2.47,2.47,0,0,1,.72,1.18,7,7,0,0,1,.41,2.69,3.59,3.59,0,0,1-.44,1.29,4.3,4.3,0,0,0-.49,1,3.48,3.48,0,0,0,.2,1.88c.06.22.12.42.18.62a2.9,2.9,0,0,0,.22.54,7.15,7.15,0,0,1-1.12,1.95,3.1,3.1,0,0,1,1.59.49,5.73,5.73,0,0,1,1.23,1,6.86,6.86,0,0,1,.88,1.22,5.88,5.88,0,0,1,.49,1.08A17.85,17.85,0,0,0,334.1,136a17.51,17.51,0,0,1,1.22,3.1,5.86,5.86,0,0,1,.34,2,1.44,1.44,0,0,1-.36.86,1.09,1.09,0,0,1-.52.3c-.17,0-.22.15-.16.36s.2.35.38.3a2,2,0,0,0,.83-.53l.71-.73a5.32,5.32,0,0,1,.47,1.2c.15.53.32,1.06.49,1.59a5.53,5.53,0,0,0,.63,1.36,1,1,0,0,0,.93.51,2,2,0,0,1,1.28.21,3.1,3.1,0,0,1,.75.7q.33.44.69.87a2,2,0,0,0,1.11.64,8.17,8.17,0,0,1,2,.73c.64.34,1.29.64,1.94.92a14.88,14.88,0,0,0,2,.66,4.6,4.6,0,0,0,2.12,0c1.27-.26,2.57-.47,3.9-.64s2.64-.3,4-.38a5.51,5.51,0,0,0,1.67-.25,8.2,8.2,0,0,0,2-.91c.63-.4,1.27-.81,1.89-1.25s1.27-.85,1.93-1.25a8.54,8.54,0,0,1,2.05-.92,7.45,7.45,0,0,1,1.44-.24.87.87,0,0,1-.16-.36,3.08,3.08,0,0,1,.17-1.7,14.68,14.68,0,0,1,2.23-4.36,4.06,4.06,0,0,1,1.28-1.21A1.45,1.45,0,0,1,373,137c-.09-.23-.16-.45-.22-.66a6.84,6.84,0,0,1-.25-1.85,2,2,0,0,1,.68-1.64,1.3,1.3,0,0,0,.42-.85,5.09,5.09,0,0,0,0-1.31,12.64,12.64,0,0,0-.26-1.58q-.18-.84-.42-1.65c-.19-.64-.37-1.23-.55-1.78s-.31-1-.39-1.25l-.15-.53a2.92,2.92,0,0,0,.66-1.9,14.15,14.15,0,0,0-.14-2.19c-.11-.71-.23-1.33-.35-1.88s-.12-.89,0-1A1.47,1.47,0,0,0,372.31,115.57Zm-.56,33.15-.21.06A2.45,2.45,0,0,0,370,150a6.5,6.5,0,0,0-.7,2,.7.7,0,0,1,.54-.74.47.47,0,0,1-.1.47.87.87,0,0,1-.44.27,11.3,11.3,0,0,1,1.31-.29,9.44,9.44,0,0,0,1.3-.3,1.11,1.11,0,0,0,.68-.45,1.4,1.4,0,0,0,.2-.73,3.11,3.11,0,0,0-.13-.83l-.23-.8Zm5-39.76a.85.85,0,0,0-.72-.66,2.38,2.38,0,0,0-1,0c-.71.21-1,.63-.79,1.27a.76.76,0,0,0,.6.58,1.71,1.71,0,0,0,.9,0,1.75,1.75,0,0,0,.76-.45A.72.72,0,0,0,376.71,109Z"/><path class="cls-2" d="M448.53,100.76a1.46,1.46,0,0,1,0,1,1.06,1.06,0,0,1-.72.59,2.36,2.36,0,0,1-1.09.06,2.34,2.34,0,0,0-1.14.07,2.83,2.83,0,0,0-.09.37.92.92,0,0,0,0,.4c.07.25.21.36.41.32l.63-.13a1.68,1.68,0,0,1,.67,0q.33.07.51.66c.11.39.23,1,.37,1.87s.22,1.75.29,2.69.09,1.83.07,2.65a4,4,0,0,1-.28,1.7,6.47,6.47,0,0,0-.46,1.21,1.94,1.94,0,0,0,.12,1.21l.45,1.38a2.53,2.53,0,0,1,.17,1.48,5.92,5.92,0,0,1-.37,1.1c-.16.33-.29.64-.4.93a1.49,1.49,0,0,0,0,1,1.43,1.43,0,0,0,.18.41,13,13,0,0,0-1.52,0,5.57,5.57,0,0,0-1.5.23,3.28,3.28,0,0,0-1.35.74,2.39,2.39,0,0,0-.71,1.36,1.57,1.57,0,0,0,.27.51.42.42,0,0,0,.5.14,1.36,1.36,0,0,0,.84-.71,1.37,1.37,0,0,1,.84-.7.47.47,0,0,1,.59.23,2.53,2.53,0,0,1,.29.61,2.92,2.92,0,0,1,.13,1.24c-.05.36-.34.62-.88.77a4,4,0,0,1-1,.17,4,4,0,0,0-1,.17l-.33.44a1.58,1.58,0,0,0,1.54.71,36.36,36.36,0,0,1-2.12,3.8,28.48,28.48,0,0,1-2.81,3.78,21.83,21.83,0,0,1-3.43,3.17,12.12,12.12,0,0,1-3.83,2,23.26,23.26,0,0,1-3.61.64c-1.55.18-3.17.31-4.84.4s-3.29.08-4.84,0a13.71,13.71,0,0,1-3.61-.54,2,2,0,0,1-1-.58l-.29-.52a1,1,0,0,0-.46-.39,3.75,3.75,0,0,0-1.43-.13,8.83,8.83,0,0,1-3.71-.61,5.84,5.84,0,0,1-2-1.47,7,7,0,0,1-1.09-1.77,3.49,3.49,0,0,0-1.05-1.41l-1.41-1c-.49-.36-1-.74-1.43-1.15a8.85,8.85,0,0,1-1.24-1.29,4.31,4.31,0,0,1-.8-1.53,1.33,1.33,0,0,1,.2-1.19,1.2,1.2,0,0,0,.26-1,.63.63,0,0,0-.2-.29,1.65,1.65,0,0,0-.3-.21c-.51-.31-.94-.59-1.28-.84a4.24,4.24,0,0,1-.89-.85,8.12,8.12,0,0,1-.68-1,10.39,10.39,0,0,1-.61-1.42,18.7,18.7,0,0,0-1.66-3.2,12.21,12.21,0,0,1-1.5-3.24c-.25-.89-.5-1.79-.72-2.69s-.46-1.8-.72-2.69a10.71,10.71,0,0,1-.42-2.52,10.37,10.37,0,0,0-.39-2.46,11.57,11.57,0,0,0-.62-1.62,10.45,10.45,0,0,1-.62-1.62,14.13,14.13,0,0,1-.56-4c0-1.37,0-2.75.1-4.14s.09-2.78.09-4.17a14.81,14.81,0,0,0-.59-4.12,9.32,9.32,0,0,0-.37-1c-.14-.35-.26-.72-.38-1.11a1.74,1.74,0,0,1,0-1.45,1.87,1.87,0,0,1,.73-.65c.29-.14.56-.29.81-.44s.3-.44.18-.86a3.12,3.12,0,0,0-.29-.7,3.33,3.33,0,0,1-.29-.7,1.44,1.44,0,0,1,.29-1.1q.41-.68,1-1.47c.37-.53.72-1.07,1.07-1.61a3.73,3.73,0,0,0,.58-1.59,1.48,1.48,0,0,1,.63-1.11,10.59,10.59,0,0,1,1.13-.71,7.53,7.53,0,0,0,1-.64.81.81,0,0,0,.24-1,2.71,2.71,0,0,0-.39-.75,6.39,6.39,0,0,0,1.8,0,10.82,10.82,0,0,0,1.81-.38,5.23,5.23,0,0,0,1.85-.88,10.24,10.24,0,0,0,1.21-1.14,13.78,13.78,0,0,1,1.15-1.14,4.27,4.27,0,0,1,1.69-.87A8.42,8.42,0,0,0,406.47,63,8.2,8.2,0,0,1,409,61.77a13,13,0,0,1,2.46-.31,36.22,36.22,0,0,1,3.78-.06,26.65,26.65,0,0,1,3.58.35c1.08.19,1.71.49,1.91.89a3.23,3.23,0,0,1,.66-.31l.64-.18a5.63,5.63,0,0,1,1.7-.26,7.93,7.93,0,0,1,1.49.14,15,15,0,0,1,1.45.39c.49.17,1,.33,1.55.48l.15.3.13.25a2.53,2.53,0,0,1,0,1.39,4.61,4.61,0,0,0-.15,1.37,1.19,1.19,0,0,0,.79.53l1,.18a5.91,5.91,0,0,1,.94.25,1.13,1.13,0,0,1,.68.73,2.38,2.38,0,0,0,.51.86c.19.2.54.24,1,.13l.27,1.14.16.53a7.87,7.87,0,0,0,1.55,3,14,14,0,0,0,2.09,2c.72.56,1.38,1.12,2,1.66a4,4,0,0,1,1.23,1.93,4.35,4.35,0,0,1,.08,2.15,4,4,0,0,0,0,1.94,1.85,1.85,0,0,0,.63.77c.36.3.75.66,1.18,1.08a15.85,15.85,0,0,1,1.28,1.39,5.18,5.18,0,0,1,.93,1.79,3.07,3.07,0,0,1-.72,3.11,1.61,1.61,0,0,0,.05.57,1,1,0,0,0,.48.67,4.82,4.82,0,0,0,.7.31,3.13,3.13,0,0,1,.72.38,1.54,1.54,0,0,1,.55.88,2.59,2.59,0,0,1,.08,1.19,6.32,6.32,0,0,1-.28,1l-.31.9a1.23,1.23,0,0,0,0,.8,1.37,1.37,0,0,0,.5.75l.77.53c.26.17.52.36.77.56A1.5,1.5,0,0,1,448.53,100.76Zm-9.36-4.64a5.17,5.17,0,0,0-1-1.89,5,5,0,0,1-1-1.88c-.24-.82-.44-1.64-.6-2.44s-.35-1.62-.59-2.44a6.85,6.85,0,0,1-.26-1.6,6.6,6.6,0,0,0-.25-1.55,7.75,7.75,0,0,0-1.18-2.15c-.62-.87-1.31-1.76-2.08-2.67s-1.53-1.79-2.29-2.61-1.36-1.5-1.78-2a1.46,1.46,0,0,1-.27-.3,3.42,3.42,0,0,0-.43-.51L427,73.6c-.14-.14-.24-.19-.31-.17s-.1.14-.24.18a3.93,3.93,0,0,1-1.24-.39A18.16,18.16,0,0,1,422.86,72a19,19,0,0,1-2.4-1.68,4.08,4.08,0,0,1-1.39-1.89,1.14,1.14,0,0,1-.06-.39,10.49,10.49,0,0,1-1.84.34,14,14,0,0,1-2.25,0,7.89,7.89,0,0,1-2.15-.42,2.94,2.94,0,0,1-1.48-1,14.19,14.19,0,0,0-2.43,1.31l-2.25,1.53c-.75.5-1.51,1-2.31,1.45a11.27,11.27,0,0,1-2.52,1.08l-.62.15c-.21,0-.42.08-.64.1a1.54,1.54,0,0,1,.36.65.7.7,0,0,1-.22.85,3.49,3.49,0,0,1-1,.42c-.29.09-.55.15-.79.2a6.15,6.15,0,0,0-.62.16l-.36.16.19.46.07.22a1.73,1.73,0,0,1,0,1.17,4,4,0,0,1-.61,1c-.26.3-.54.61-.84.91a4.26,4.26,0,0,0-.71.93.74.74,0,0,1,.87.61,5.11,5.11,0,0,1-.05,2.42c-.2,1-.42,2.16-.65,3.44a35.79,35.79,0,0,0-.46,4.08,12.6,12.6,0,0,0,.49,4.29,1.51,1.51,0,0,1-.29.58,1.1,1.1,0,0,1-.54.36,1.79,1.79,0,0,1-.92,0,1.91,1.91,0,0,0-1,0c-.32.09-.45.26-.38.51a1.67,1.67,0,0,0,.65.92c.31.21.67.44,1.06.67a7.47,7.47,0,0,1,1.1.78,2.35,2.35,0,0,1,.72,1.19,6.81,6.81,0,0,1,.41,2.69,3.41,3.41,0,0,1-.44,1.29,4.73,4.73,0,0,0-.49,1,3.58,3.58,0,0,0,.2,1.88c.07.22.13.42.18.62a3.21,3.21,0,0,0,.22.54,7.15,7.15,0,0,1-1.12,2,3.17,3.17,0,0,1,1.6.49,6.26,6.26,0,0,1,1.23,1,6.8,6.8,0,0,1,.87,1.22,5.27,5.27,0,0,1,.49,1.08,18.21,18.21,0,0,0,1.22,3.09,18.21,18.21,0,0,1,1.22,3.09,5.62,5.62,0,0,1,.33,2.05,1.33,1.33,0,0,1-.36.86,1,1,0,0,1-.52.3c-.16,0-.22.15-.15.36s.19.35.37.3a2,2,0,0,0,.83-.53l.72-.73a5.47,5.47,0,0,1,.46,1.19c.16.54.32,1.07.5,1.6a5.65,5.65,0,0,0,.62,1.35,1,1,0,0,0,.93.52,2.08,2.08,0,0,1,1.28.2,3.2,3.2,0,0,1,.76.71q.33.44.69.87a2,2,0,0,0,1.11.64,8.26,8.26,0,0,1,1.95.73,21.48,21.48,0,0,0,2,.91,12.22,12.22,0,0,0,2,.66,4.43,4.43,0,0,0,2.11,0c1.28-.26,2.58-.47,3.9-.64s2.65-.3,4-.38a5.45,5.45,0,0,0,1.66-.25,8,8,0,0,0,2-.91c.64-.4,1.27-.81,1.9-1.25s1.27-.85,1.92-1.25a8.23,8.23,0,0,1,2.06-.92,7.22,7.22,0,0,1,1.43-.24.87.87,0,0,1-.16-.36,3.18,3.18,0,0,1,.17-1.7,14.79,14.79,0,0,1,.93-2.28,14.29,14.29,0,0,1,1.31-2.09,4.29,4.29,0,0,1,1.27-1.21,1.41,1.41,0,0,1-.37-.56c-.08-.22-.16-.44-.22-.66a6.73,6.73,0,0,1-.24-1.84,2,2,0,0,1,.68-1.64,1.37,1.37,0,0,0,.42-.85,5.14,5.14,0,0,0,0-1.31,12.52,12.52,0,0,0-.25-1.58q-.19-.84-.42-1.65c-.19-.64-.37-1.23-.55-1.78s-.31-1-.39-1.25l-.16-.53a2.93,2.93,0,0,0,.66-1.91,12.16,12.16,0,0,0-.14-2.19c-.11-.7-.22-1.32-.34-1.87s-.13-.89,0-1A1.47,1.47,0,0,0,439.17,96.12Zm-.56,33.15-.21.06a2.5,2.5,0,0,0-1.56,1.21,6.4,6.4,0,0,0-.69,2,.7.7,0,0,1,.53-.74.47.47,0,0,1-.09.47,1,1,0,0,1-.44.27,9.41,9.41,0,0,1,1.3-.29,11.82,11.82,0,0,0,1.31-.3,1.11,1.11,0,0,0,.68-.46,1.34,1.34,0,0,0,.19-.72,2.71,2.71,0,0,0-.13-.83c-.08-.29-.16-.55-.23-.8Zm5-39.76a.82.82,0,0,0-.71-.66,2.25,2.25,0,0,0-1,.05c-.71.2-1,.63-.78,1.27a.76.76,0,0,0,.6.58,1.78,1.78,0,0,0,.89,0,1.84,1.84,0,0,0,.77-.45A.74.74,0,0,0,443.57,89.51Z"/></g></g></svg>