<svg xmlns="http://www.w3.org/2000/svg" viewBox="0 0 193.47 153.35"><defs><style>.cls-1{fill:#fff;stroke:#27aae1;}.cls-1,.cls-4{stroke-miterlimit:10;}.cls-2{fill:#1b75bc;}.cls-3{fill:#231f20;}.cls-4{fill:none;stroke:#1b75bc;}</style></defs><title>dischargehead</title><g id="Layer_2" data-name="Layer 2"><g id="Layer_1-2" data-name="Layer 1"><rect class="cls-1" x="0.5" y="0.5" width="192.47" height="152.35"/><path class="cls-2" d="M27.57,20.25a5.13,5.13,0,0,1-.07.82c-.05.31-.11.63-.19,1s-.18.69-.29,1.05-.21.7-.33,1-.24.64-.36.92a6.24,6.24,0,0,1-.34.72,1,1,0,0,1-.22.24l-.3.26-.27.26a.37.37,0,0,0-.11.25l-.3,0-.41.11a3.09,3.09,0,0,0-.4.14c-.12.05-.2.1-.22.15s-.14.27-.16.32,0,.09-.06.1a.28.28,0,0,1-.14,0l-.38.06-.26.07-.33.09-.32.08-.25,0a1.43,1.43,0,0,1-.5-.09,1.62,1.62,0,0,0-.49-.08.94.94,0,0,0-.3.05,4.08,4.08,0,0,1-.82.23,4.61,4.61,0,0,1-.86.07L17.23,28l-.37.07h-.38A3.54,3.54,0,0,1,16,28c-.15,0-.31,0-.46-.06a1.6,1.6,0,0,0-.11-.33l-.15-.32c-.05-.11-.09-.23-.13-.34a1,1,0,0,1-.06-.34.56.56,0,0,1,.15-.44.89.89,0,0,1,.39-.19,3.73,3.73,0,0,1,.5-.08,1.69,1.69,0,0,0,.5-.14.92.92,0,0,0,.38-.33,1.09,1.09,0,0,0,.16-.66,4.9,4.9,0,0,0,0-.54c0-.18-.06-.36-.1-.55L17,23.15a3.27,3.27,0,0,1,0-.54,2.47,2.47,0,0,1,0-.39,1.75,1.75,0,0,0,0-.4,4.37,4.37,0,0,0-.06-.72,5.81,5.81,0,0,1-.05-.72,7.89,7.89,0,0,1,.05-.84,7.55,7.55,0,0,0,.05-.83,4,4,0,0,0-.08-.78,4.15,4.15,0,0,1-.08-.79c0-.15,0-.3,0-.45s0-.3,0-.45a3.91,3.91,0,0,0,0-.49,2.11,2.11,0,0,0-.09-.49,2.4,2.4,0,0,1-.09-.57,3.49,3.49,0,0,0-.07-.51.84.84,0,0,0-.23-.4,1,1,0,0,0-.55-.25.57.57,0,0,1-.19-.08,1.31,1.31,0,0,1-.12-.11l-.15-.1a1.05,1.05,0,0,0-.26-.07.52.52,0,0,1-.52-.57,1.15,1.15,0,0,1,.11-.5,1.7,1.7,0,0,1,.27-.39,1.83,1.83,0,0,1,.36-.32l.41-.3a1.4,1.4,0,0,1,.57-.29,3.48,3.48,0,0,1,.58-.05h.5c.23,0,.45,0,.67,0s.45,0,.68,0l.4,0a3,3,0,0,1,.41.09l.2.07a.52.52,0,0,0,.21,0,.4.4,0,0,0,.28-.1.4.4,0,0,1,.21-.1s0,0,0,0v0a.11.11,0,0,0,0,.05c0,.05,0,.07.09.07a.09.09,0,0,0,.09-.07.18.18,0,0,1,.14-.09l.13.07.08.08.11.06a.42.42,0,0,0,.17,0,2.7,2.7,0,0,0,.49,0,2.77,2.77,0,0,1,.49,0,1.59,1.59,0,0,1,.59.11,2.45,2.45,0,0,1,.51.26,3.82,3.82,0,0,1,.46.36l.45.38a1.26,1.26,0,0,0,.33.22l.32.15a1.89,1.89,0,0,1,.3.19,1.08,1.08,0,0,1,.24.33,2.87,2.87,0,0,0,.28.48c.1.15.21.3.32.44l.31.45a3.27,3.27,0,0,1,.27.49,6,6,0,0,1,.41,1.4c.08.49.17,1,.25,1.44,0,.21.09.41.13.62a2.6,2.6,0,0,1,.07.61.87.87,0,0,1-.06.32.86.86,0,0,0-.05.32.48.48,0,0,0,0,.18,1.3,1.3,0,0,0,.08.17.84.84,0,0,1,.08.19A.61.61,0,0,1,27.57,20.25Zm-2-.78a3,3,0,0,0-.13-.89,2.76,2.76,0,0,0-.39-.81.62.62,0,0,0,.16-.31,2,2,0,0,0,0-.34c0-.11,0-.23,0-.35s0-.23,0-.34a.2.2,0,0,0-.07-.16,1.85,1.85,0,0,0-.14-.14L24.89,16a.29.29,0,0,1-.12-.15c0-.08-.05-.15-.07-.21a1,1,0,0,1,0-.17,1.54,1.54,0,0,0-.05-.17,1.29,1.29,0,0,0-.12-.23.76.76,0,0,1-.09-.18.48.48,0,0,1,0-.22.71.71,0,0,1,0-.24.35.35,0,0,0-.16-.16.8.8,0,0,0-.23-.1,2.21,2.21,0,0,0-.32-.07.82.82,0,0,1-.37-.11l-.4-.23a3.55,3.55,0,0,0-.43-.23,1,1,0,0,0-.44-.11,3.6,3.6,0,0,0-.66.06l-.67.1a4.66,4.66,0,0,1-.56.05,2.49,2.49,0,0,0-.57.06.87.87,0,0,0-.44.22.61.61,0,0,0-.18.49,7.89,7.89,0,0,0,.05.84,6.11,6.11,0,0,1,.06.86c0,.62,0,1.24-.08,1.85s-.08,1.23-.08,1.86a8.27,8.27,0,0,0,0,.86,8.14,8.14,0,0,1,.05.87A7.3,7.3,0,0,1,19,22.68a7.08,7.08,0,0,0-.09,1.13v.51a2.76,2.76,0,0,0,.05.51,1.12,1.12,0,0,0,.18.45.71.71,0,0,0,.38.29l.72.25A2.13,2.13,0,0,0,21,26a1.11,1.11,0,0,0,.46-.11,2.53,2.53,0,0,1,.45-.19l.35-.08.38-.1a1.78,1.78,0,0,0,.36-.14,1,1,0,0,0,.28-.21c.12-.14.23-.25.34-.36a1,1,0,0,1,.46-.21.23.23,0,0,0,.18-.1.49.49,0,0,0,.06-.17,1.6,1.6,0,0,1,.05-.21.43.43,0,0,1,.16-.2.94.94,0,0,0,.28-.32,1.49,1.49,0,0,0,.15-.4c0-.14.06-.29.08-.43a3,3,0,0,1,.08-.43c.09-.31.19-.63.3-.95a2.72,2.72,0,0,0,.17-1,.44.44,0,0,0-.06-.23.43.43,0,0,1-.05-.23s0-.07,0-.09l.07,0a.35.35,0,0,0,.06-.09A.54.54,0,0,0,25.61,19.47Z"/><path class="cls-2" d="M42.24,27.34a1,1,0,0,1-.07.38A1.34,1.34,0,0,1,42,28a1,1,0,0,1-.31.21.79.79,0,0,1-.38.09.14.14,0,0,1-.11,0l-.08-.08a.62.62,0,0,0-.4-.2L40.18,28a1.72,1.72,0,0,1-.48-.13.74.74,0,0,1-.36-.41.6.6,0,0,0-.2-.25.69.69,0,0,0-.33-.06,3,3,0,0,0-1,.16c-.31.11-.62.23-.92.37s-.62.26-.93.37a3,3,0,0,1-1,.16,2.59,2.59,0,0,1-.56-.05A2,2,0,0,1,33.9,28a.29.29,0,0,1-.14.08.43.43,0,0,1-.17,0h-.16l-.13,0-.13,0-.14.06.07.11a.73.73,0,0,1-.32.21,3.66,3.66,0,0,1-.53.17l-.56.12a2.51,2.51,0,0,1-.41,0,1.35,1.35,0,0,1-.61-.12,1.43,1.43,0,0,1-.48-.43A1.37,1.37,0,0,0,30,28l-.23-.24a1,1,0,0,1-.19-.27.6.6,0,0,1-.08-.29.33.33,0,0,1,.19-.29,1.62,1.62,0,0,1,.44-.19,2.55,2.55,0,0,1,.52-.11l.4,0a2.16,2.16,0,0,1,.56.08,2.2,2.2,0,0,0,.56.07,1.63,1.63,0,0,0,.5-.07,1.93,1.93,0,0,1,.49-.07,3.25,3.25,0,0,1,.44,0,3.15,3.15,0,0,0,.44,0,1.44,1.44,0,0,0,.54-.1,2.38,2.38,0,0,0,.5-.26,11.57,11.57,0,0,0,.13-1.15c0-.38,0-.77,0-1.16a7.44,7.44,0,0,0-.1-1.15,7.3,7.3,0,0,1-.09-1.14.06.06,0,0,1,0-.05h.05l.06,0a.2.2,0,0,0,0-.09,1.51,1.51,0,0,0-.07-.48,1.59,1.59,0,0,1-.07-.48,2.35,2.35,0,0,1,.08-.6,2.06,2.06,0,0,0,.08-.6,1.06,1.06,0,0,0-.09-.42,1.19,1.19,0,0,0-.25-.38,1.33,1.33,0,0,0-.35-.26.87.87,0,0,0-.42-.1,2.05,2.05,0,0,0-.49.06c-.16,0-.32.08-.49.14l-.53.13a2.44,2.44,0,0,1-.55.06,4.91,4.91,0,0,1-.67-.05l-.67-.1-.37-.05a2.7,2.7,0,0,1-.39-.08.92.92,0,0,1-.32-.18.46.46,0,0,1-.13-.34,1.13,1.13,0,0,1,.15-.63,1,1,0,0,1,.36-.32,1.54,1.54,0,0,1,.49-.13l.52,0,.88-.07c.29,0,.59,0,.89,0a7.83,7.83,0,0,1,1.08.07A9.77,9.77,0,0,0,35,16.7a2.25,2.25,0,0,1,.74.12,1.63,1.63,0,0,1,1,1,2,2,0,0,1,.16.84,1.51,1.51,0,0,1-.14.62,1.93,1.93,0,0,1-.34.53.53.53,0,0,0,.16.21l.15.09a.32.32,0,0,1,.12.11.43.43,0,0,1,0,.24.88.88,0,0,0,0,.21.15.15,0,0,0,.15.14c0,.42,0,.84,0,1.25s0,.82,0,1.23,0,.71,0,1.06a7.42,7.42,0,0,0,.08,1.05,1.21,1.21,0,0,0,.19.51.65.65,0,0,0,.51.17,5.25,5.25,0,0,0,1-.11,5.17,5.17,0,0,1,1-.11,1.19,1.19,0,0,1,.58.15,5.84,5.84,0,0,1,.53.33l.48.33a.86.86,0,0,0,.45.15.2.2,0,0,1,.15.06.51.51,0,0,1,.09.16,1.16,1.16,0,0,1,0,.18ZM36.57,13.08a2.49,2.49,0,0,1-.11.7,2.46,2.46,0,0,1-.32.65,1.87,1.87,0,0,1-.51.5,1.19,1.19,0,0,1-.67.19,3.76,3.76,0,0,1-1.3-.3,1.83,1.83,0,0,1-.58-.38.75.75,0,0,1-.24-.55,2.36,2.36,0,0,1,.07-.58,3.07,3.07,0,0,0,.07-.6.69.69,0,0,0,.24-.22l.23-.31a2.09,2.09,0,0,1,.22-.28.31.31,0,0,1,.23-.14l-.06,0a2,2,0,0,1,.34-.12,1.61,1.61,0,0,1,.37,0,1.87,1.87,0,0,1,.6.12,3.35,3.35,0,0,1,.66.32,2.23,2.23,0,0,1,.54.47A.84.84,0,0,1,36.57,13.08Z"/><path class="cls-2" d="M53.8,24.2a.8.8,0,0,1-.06.3,1.48,1.48,0,0,1-.12.29c0,.1-.09.2-.13.29a.75.75,0,0,0-.09.29,1.45,1.45,0,0,1-.24.57,3.14,3.14,0,0,1-.42.48c-.15.14-.32.29-.49.42s-.32.28-.46.42a.5.5,0,0,1-.37.18.85.85,0,0,1-.23,0l-.22,0a.48.48,0,0,0-.26.06l-.19.12-.21.12a.75.75,0,0,1-.33.06.64.64,0,0,0-.3.08.49.49,0,0,1-.28.09,1.12,1.12,0,0,1-.46-.12,1.4,1.4,0,0,0-.58-.12l-.4,0-.4,0a1,1,0,0,1-.34-.06l-.33-.11-.32-.12a1.33,1.33,0,0,0-.34-.05,1,1,0,0,0-.6.17,2.41,2.41,0,0,0-.44.4q-.19.21-.39.39a.61.61,0,0,1-.44.17.44.44,0,0,1-.3-.07.31.31,0,0,1-.09-.18l0-.23a.37.37,0,0,0-.1-.22,1.07,1.07,0,0,1-.24-.34,1.25,1.25,0,0,1-.06-.42,6.62,6.62,0,0,1,.1-1.1,5.6,5.6,0,0,0,.1-1.09,1.31,1.31,0,0,0-.05-.39,1.69,1.69,0,0,0-.11-.34l-.11-.26a.41.41,0,0,1,0-.15.47.47,0,0,1,0-.22,1.64,1.64,0,0,1,.14-.22.81.81,0,0,1,.16-.16.25.25,0,0,1,.15-.07.32.32,0,0,1,.2.06l.18.12.18.13a.35.35,0,0,0,.21.06h.07A2.51,2.51,0,0,1,45,24c.06.21.13.42.19.61a4.23,4.23,0,0,0,.25.58,1.58,1.58,0,0,0,.42.48l.16.13.19.14.2.12a.49.49,0,0,0,.18.05,1.15,1.15,0,0,0,.26,0l.25,0c.12,0,.17,0,.17.12a.2.2,0,0,1,0,.09h.22a3.8,3.8,0,0,0,.89-.1A4,4,0,0,1,49.3,26a3,3,0,0,1,.42,0,1.1,1.1,0,0,1,.4.17,1.26,1.26,0,0,0,.37-.27l.31-.32a1.88,1.88,0,0,1,.34-.28.94.94,0,0,1,.48-.14.23.23,0,0,0,.06-.16c0-.06,0-.12,0-.18a.91.91,0,0,1,0-.17.38.38,0,0,1,.09-.15.87.87,0,0,0,.18-.22.49.49,0,0,0,.07-.28,1.07,1.07,0,0,0-.18-.59,2.1,2.1,0,0,0-.45-.5,3.26,3.26,0,0,0-.63-.41,5.16,5.16,0,0,0-.73-.31,5.07,5.07,0,0,0-.71-.2,3.37,3.37,0,0,0-.59-.06,3.68,3.68,0,0,0-.58,0,2.62,2.62,0,0,0-.56.18.4.4,0,0,0-.12-.34.78.78,0,0,0-.28-.11l-.33-.1a.49.49,0,0,1-.27-.29,1.17,1.17,0,0,1-.5.38,1.77,1.77,0,0,1-.6.11,1.47,1.47,0,0,1-.56-.11,1.65,1.65,0,0,1-.46-.32,1.5,1.5,0,0,1-.33-.46,1.44,1.44,0,0,1-.14-.55,1,1,0,0,0-.08-.35l-.15-.29a1.68,1.68,0,0,1-.15-.3,1,1,0,0,1-.06-.36,4.63,4.63,0,0,1,.05-.83,2.08,2.08,0,0,1,.13-.45.53.53,0,0,1,.19-.22,1.37,1.37,0,0,1,.2-.13.89.89,0,0,0,.2-.19A.93.93,0,0,0,44.5,17c0-.12.06-.2.11-.23a.55.55,0,0,1,.24-.09.32.32,0,0,0,.2-.07.17.17,0,0,0,.07-.1.93.93,0,0,1,0-.13.27.27,0,0,1,.12-.12,1.1,1.1,0,0,1,.48-.2,2.74,2.74,0,0,1,.5,0h.6c.33,0,.65,0,1-.05s.63,0,1,0a3,3,0,0,1,.69.08,5,5,0,0,1,.54.17l.41.17a.72.72,0,0,0,.27.08,1,1,0,0,0,.38-.08,1.24,1.24,0,0,1,.38-.09,1.21,1.21,0,0,0,.22.15.57.57,0,0,0,.25.06.17.17,0,0,0,.14-.06.34.34,0,0,0,.06-.15.9.9,0,0,1,.32.17,1.38,1.38,0,0,1,.27.27,1.68,1.68,0,0,1,.2.34,1.15,1.15,0,0,1,.07.35,6.23,6.23,0,0,1-.07.86,6.11,6.11,0,0,0-.06.86,3.14,3.14,0,0,0,.11.83,2.12,2.12,0,0,1-.35.23,1.09,1.09,0,0,0-.33.27h0l-.2-.18L51.81,20l-.26-.18a.49.49,0,0,0-.24-.07h0a.43.43,0,0,1-.1-.09.15.15,0,0,1,0-.11.31.31,0,0,1,.07-.21.44.44,0,0,0,.07-.21s0-.08-.11-.17l-.24-.26-.26-.25a.66.66,0,0,0-.19-.12,1.13,1.13,0,0,1-.24-.08L50,18.12,49.75,18a.54.54,0,0,0-.18,0,1.06,1.06,0,0,0-.31,0,1.64,1.64,0,0,1-.32,0h0L48.43,18a2.92,2.92,0,0,1-.76-.19,2.29,2.29,0,0,0-.78-.14.7.7,0,0,0-.51.17,1.41,1.41,0,0,0-.27.37c-.07.13-.14.26-.21.37a.38.38,0,0,1-.35.16h-.11c.08.25.15.46.22.63a1.67,1.67,0,0,0,.24.46,1.82,1.82,0,0,0,.35.39,4.8,4.8,0,0,0,.54.39l.1.09.13.12.14.11a.19.19,0,0,0,.1,0,.75.75,0,0,0,.38-.1.85.85,0,0,1,.38-.09.58.58,0,0,1,.26.06.5.5,0,0,0,.27.07.86.86,0,0,0,.27-.05.64.64,0,0,1,.28-.06h.12l.12,0a2.88,2.88,0,0,0,.71.09h.71a1.37,1.37,0,0,1,.52.1,2.38,2.38,0,0,1,.51.24,2.56,2.56,0,0,1,.46.33,2.6,2.6,0,0,1,.36.39,2.43,2.43,0,0,0,.26.29l.28.26a2.17,2.17,0,0,1,.24.29,1,1,0,0,1,.15.35,5,5,0,0,0,.16.52A1.7,1.7,0,0,1,53.8,24.2Z"/><path class="cls-3" d="M69.14,27.23a1.27,1.27,0,0,1-.07.38,1.54,1.54,0,0,1-.17.34l-.52,0H66.83a3.35,3.35,0,0,0-.71.07,4.17,4.17,0,0,1-.71.07c-.32,0-.49-.17-.52-.51a.51.51,0,0,0-.29.1l-.26.21a2.09,2.09,0,0,1-.28.22.68.68,0,0,1-.35.09.76.76,0,0,1-.4-.11.38.38,0,0,1-.21-.35.29.29,0,0,1,0-.16l.1-.12a.43.43,0,0,1,.1-.09.12.12,0,0,0,0-.08.13.13,0,0,0,0-.1.58.58,0,0,0-.12-.1.52.52,0,0,1-.11-.1.18.18,0,0,1,0-.13.29.29,0,0,1,.14-.28.85.85,0,0,1,.36-.12,3.58,3.58,0,0,1,.48,0l.5,0a2.6,2.6,0,0,0,.44-.06.41.41,0,0,0,.26-.2,2.09,2.09,0,0,0,.18-.5,4.1,4.1,0,0,0,.11-.61q0-.32.06-.63c0-.21,0-.39,0-.55,0-.35,0-.69,0-1a8.48,8.48,0,0,0-.15-1,3.45,3.45,0,0,0-.12-.46,1.44,1.44,0,0,1-.08-.46.76.76,0,0,1,0-.27,2,2,0,0,1,.1-.21,1.62,1.62,0,0,0,.1-.18.41.41,0,0,0,0-.18.55.55,0,0,0-.12-.35.92.92,0,0,1-.18-.32,1.3,1.3,0,0,1-.07-.33.85.85,0,0,0-.24-.55l-.19-.2-.19-.2a.55.55,0,0,1-.14-.22l-.78,0a7.06,7.06,0,0,0-1,.06,3.29,3.29,0,0,0-.83.23,3.24,3.24,0,0,0-.74.43,4.33,4.33,0,0,0-.67.68l-.28.32-.33.36a3.47,3.47,0,0,0-.3.37.84.84,0,0,0-.17.36,7.14,7.14,0,0,0-.18,1.05,8.48,8.48,0,0,0-.07,1.08,1.86,1.86,0,0,0,0,.33,3,3,0,0,0,.1.32l.09.32a1.19,1.19,0,0,1,0,.33,1.53,1.53,0,0,1,0,.3c0,.15-.07.29-.12.44a4,4,0,0,1-.15.39c-.06.12-.11.17-.17.17a.56.56,0,0,0,.17.22,2.13,2.13,0,0,0,.32.26c.12.09.24.16.35.23a.63.63,0,0,0,.25.09l.21,0h.19a1.21,1.21,0,0,1,.49.12,2.06,2.06,0,0,1,.44.27.62.62,0,0,1,.22.27q0,.12-.21.12h-.25a.18.18,0,0,1-.16-.06.64.64,0,0,1-.08-.14c0-.05,0-.1-.07-.14a.14.14,0,0,0-.13-.07.08.08,0,0,0-.08.07.74.74,0,0,0,0,.12.33.33,0,0,0,.1.22l.2.23a1.64,1.64,0,0,1,.21.24.4.4,0,0,1,.09.25.09.09,0,0,1,0,.08l-.09,0a.91.91,0,0,1-.23,0,.59.59,0,0,0-.23,0,.3.3,0,0,0-.2.09,1.83,1.83,0,0,1-.24.19,1.86,1.86,0,0,1-.4.2,2,2,0,0,1-.66.08.24.24,0,0,1-.23-.12,2.49,2.49,0,0,1-.11-.29,2,2,0,0,0-.1-.29.25.25,0,0,0-.24-.13.21.21,0,0,0-.15.07.41.41,0,0,0-.08.14h0a.81.81,0,0,1,.08.12,1.47,1.47,0,0,1,.07.17,1.34,1.34,0,0,1,.07.18l0,.13h-.21a1.13,1.13,0,0,0-.32,0l-.3.08-.3.08a1,1,0,0,1-.3,0,.86.86,0,0,1-.28,0l-.25-.1a1.19,1.19,0,0,0-.41-.11,2.34,2.34,0,0,1-.39,0,.51.51,0,0,1-.28-.17.63.63,0,0,1-.11-.44,1.23,1.23,0,0,1,.27-.75,1.08,1.08,0,0,1,.3-.26.82.82,0,0,1,.38-.09.58.58,0,0,1,.26.06.66.66,0,0,0,.27.06.27.27,0,0,0,.2-.07,1,1,0,0,0,.14-.15,1.15,1.15,0,0,1,.14-.17.39.39,0,0,1,.19-.1,9.88,9.88,0,0,1,.11-1.22,8.38,8.38,0,0,0,.09-1.23,7,7,0,0,0-.11-1.2,6.78,6.78,0,0,1-.11-1.2,2.57,2.57,0,0,1,.1-.73,2.84,2.84,0,0,0,.1-.72.82.82,0,0,0-.09-.38.85.85,0,0,1-.09-.38.35.35,0,0,1,.08-.24.36.36,0,0,0,.11-.21h0c-.1,0-.15-.05-.15-.16s0-.17.11-.17a.16.16,0,0,1,.09,0,.41.41,0,0,0,0-.19l-.12-.19-.12-.19a.42.42,0,0,1-.06-.21,1.59,1.59,0,0,0,.17-.43,1.55,1.55,0,0,0,0-.37c0-.11,0-.23,0-.34s0-.25,0-.4a1.21,1.21,0,0,1,.1-.5,1.17,1.17,0,0,0,.11-.49.29.29,0,0,0-.07-.21.28.28,0,0,0-.18-.06l-.15,0a3.89,3.89,0,0,0,0-.42,2.09,2.09,0,0,0-.09-.51,1.42,1.42,0,0,0-.2-.43.43.43,0,0,0-.36-.18l-.28,0-.27,0a.85.85,0,0,1-.43-.12,1.19,1.19,0,0,1-.36-.31,1.52,1.52,0,0,1-.24-.41,1,1,0,0,1-.1-.43c0-.16,0-.25.14-.29a.83.83,0,0,1,.32-.06h.34a1.24,1.24,0,0,0,.27,0,.46.46,0,0,0,.23-.12l.72-.06c.23,0,.47,0,.71,0a.65.65,0,0,1,.35.1,1.29,1.29,0,0,1,.3.22l.3.22a.85.85,0,0,0,.34.14,2.85,2.85,0,0,1,0,.51,2.74,2.74,0,0,0,0,.5,1.07,1.07,0,0,0,.1.47A1,1,0,0,1,59,14s0,.07,0,.07l-.1,0a.2.2,0,0,0-.09.05s0,.08,0,.16a.45.45,0,0,0,0,.2l.09.18a1.42,1.42,0,0,1,.08.18.49.49,0,0,1,0,.2,1,1,0,0,1-.07.35,1,1,0,0,0-.06.36q0,.15,0,.48a5.09,5.09,0,0,0,.12.66,2.19,2.19,0,0,0,.21.58c.09.17.19.26.32.26a1,1,0,0,0,.47-.12,2.26,2.26,0,0,0,.42-.29,4.48,4.48,0,0,0,.4-.36c.12-.13.24-.25.35-.35a1.14,1.14,0,0,1,.41-.18,5.27,5.27,0,0,1,.66-.17,6.38,6.38,0,0,1,.69-.13,3.87,3.87,0,0,1,.49,0,2.39,2.39,0,0,1,.55,0,.78.78,0,0,1,.29.14,2.12,2.12,0,0,1,.24.2,1.37,1.37,0,0,0,.39.26,1.27,1.27,0,0,0,.23.08l.21,0a.68.68,0,0,1,.2.07.76.76,0,0,1,.2.17,3.45,3.45,0,0,0,.38.43,4.81,4.81,0,0,1,.42.48,3.38,3.38,0,0,1,.35.52,1.1,1.1,0,0,1,.15.54.87.87,0,0,1-.07.35,1.12,1.12,0,0,0-.06.35A.41.41,0,0,0,67,20a.43.43,0,0,1,.05.23c0,.09,0,.21,0,.35A3.42,3.42,0,0,1,67,21l-.09.44a.9.9,0,0,1-.14.31,1.74,1.74,0,0,1,.24.62,3.57,3.57,0,0,1,.06.65c0,.28,0,.55,0,.82a7.34,7.34,0,0,0,0,.81,1.77,1.77,0,0,0,.17.85,1.3,1.3,0,0,0,.4.46,1.94,1.94,0,0,0,.53.23,2.74,2.74,0,0,1,.53.17,1,1,0,0,1,.4.28A.81.81,0,0,1,69.14,27.23Z"/><path class="cls-3" d="M82.57,22.65a.87.87,0,0,1-.06.32,1.45,1.45,0,0,1-.11.25l-.12.17a.2.2,0,0,0,0,.09.47.47,0,0,0,.07.24.57.57,0,0,1,.08.28.11.11,0,0,1,0,.1l-.12,0-.17,0c0,.14,0,.29,0,.43a3,3,0,0,1,0,.43.82.82,0,0,1-.07.44.27.27,0,0,1-.13.13l-.14,0s-.06.09-.06.22a.42.42,0,0,1-.15.26,2.25,2.25,0,0,1-.35.33,2.19,2.19,0,0,1-.42.28.76.76,0,0,1-.35.12l-.08,0c0,.06,0,.13,0,.2a1.36,1.36,0,0,1,0,.2.21.21,0,0,1-.1.2,1,1,0,0,1-.21.1,1.88,1.88,0,0,0-.36.24l-.39.32a3.35,3.35,0,0,1-.4.29.85.85,0,0,1-.43.12.7.7,0,0,1-.35-.09.7.7,0,0,0-.37-.09.72.72,0,0,0-.31,0,.9.9,0,0,0-.24.12l-.23.11a.6.6,0,0,1-.27.06,1.39,1.39,0,0,1-.61-.16,3.25,3.25,0,0,0-.59-.25,1.62,1.62,0,0,0-.35-.09L74.82,28a1.17,1.17,0,0,1-.33-.11.83.83,0,0,1-.28-.21,2.11,2.11,0,0,0-.57-.51c-.22-.13-.45-.26-.67-.37s-.45-.24-.66-.37a2,2,0,0,1-.55-.51l-.4-.54a6.34,6.34,0,0,1-.41-.6,4.31,4.31,0,0,1-.33-.64,1.91,1.91,0,0,1-.12-.65,2.38,2.38,0,0,1,0-.46c0-.14.07-.29.1-.45s.07-.3.1-.45a2.3,2.3,0,0,0,.05-.45v-.13a.19.19,0,0,0,0-.11l-.07-.11a.38.38,0,0,0-.09-.09s0,0,0,0h0q0-.1.06-.33c0-.14.08-.29.13-.44a4.13,4.13,0,0,1,.14-.42A.55.55,0,0,1,71,19.8l.13-.13a.24.24,0,0,0,.07-.17,1.23,1.23,0,0,0,0-.2c0-.07,0-.14,0-.21s0-.15,0-.17a.12.12,0,0,1,.09,0h.12a.25.25,0,0,0,.11-.13l.21-.39a2.7,2.7,0,0,1,.22-.33,1.23,1.23,0,0,1,.27-.29,2.38,2.38,0,0,1,.37-.24,2.26,2.26,0,0,0,.37-.26l.37-.3a1.83,1.83,0,0,1,.38-.26.88.88,0,0,1,.42-.11,1.61,1.61,0,0,0,.61-.11,4.24,4.24,0,0,1,.61-.17l1-.13a6.24,6.24,0,0,1,1-.07,2.87,2.87,0,0,1,.65.09,6.34,6.34,0,0,1,.79.23,5.92,5.92,0,0,1,.77.32,2.58,2.58,0,0,1,.56.35v0a1.4,1.4,0,0,1,0,.34,1,1,0,0,0-.06.33v0a0,0,0,0,0,0,0,1.58,1.58,0,0,0,.38-.05,1.21,1.21,0,0,1,.38-.06.31.31,0,0,0,.18.27l.3.13a.73.73,0,0,1,.27.26,3.76,3.76,0,0,1,.23.41l.2.45a3.78,3.78,0,0,0,.19.36,1.28,1.28,0,0,1,.17.33,2.8,2.8,0,0,1,.13.41,3.28,3.28,0,0,1,.08.41c0,.14,0,.27,0,.38a.82.82,0,0,1-.09.4,1.38,1.38,0,0,1-.19.28l-.19.23a.4.4,0,0,0-.09.25.41.41,0,0,0,0,.16,1.13,1.13,0,0,0,.1.13l.1,0s.07,0,.07-.07h0a.27.27,0,0,0-.07-.18.27.27,0,0,1-.08-.19.16.16,0,0,1,0-.08s0-.05,0-.05a.19.19,0,0,1,.14.08l.14.19.1.17c0,.05,0,.06,0,.05h0a.44.44,0,0,1,0,.1S82.57,22.62,82.57,22.65Zm-1.18.1c0-.13,0-.2-.14-.23a1.44,1.44,0,0,0-.31-.05l-.35,0a.26.26,0,0,1-.23-.17v-.12a3.57,3.57,0,0,0-.06-.6c0-.23-.1-.47-.16-.71s-.13-.47-.2-.7-.14-.44-.2-.62-.13-.37-.21-.59l-.15,0a.78.78,0,0,1-.35-.08,3.27,3.27,0,0,0-.33-.18,2.7,2.7,0,0,0-.44-.17,2.25,2.25,0,0,0-.7-.09,7.57,7.57,0,0,1-1-.06,7.46,7.46,0,0,0-1-.06,2.78,2.78,0,0,0-1.23.29,3.5,3.5,0,0,0-1,.79,3.56,3.56,0,0,0-.68,1.1,3.11,3.11,0,0,0-.25,1.23c0,.17,0,.37,0,.6s0,.46.06.69a3.25,3.25,0,0,0,.15.65,1.13,1.13,0,0,0,.29.45v.32a.22.22,0,0,0,.13.06h.15l.14,0a.18.18,0,0,1,.09.1,1.51,1.51,0,0,0,.4.66,3.21,3.21,0,0,0,.52.39L75,26a1.68,1.68,0,0,1,.51.46l.2,0h.2a4.32,4.32,0,0,1,.73.06,5.81,5.81,0,0,0,.72.05,1.3,1.3,0,0,0,.7-.2,1.81,1.81,0,0,0,.53-.5,4.18,4.18,0,0,1,.26-.34l.24-.27a2,2,0,0,1,.27-.23l.35-.25.17-.12.2-.16.17-.17a.34.34,0,0,0,.07-.17.76.76,0,0,0,0-.21.89.89,0,0,1,0-.22,1.67,1.67,0,0,1,0-.28,1.17,1.17,0,0,1,.12-.31,1,1,0,0,1,.18-.26.45.45,0,0,1,.28-.09.63.63,0,0,1,.26.05l.23.14A.59.59,0,0,0,81.39,22.75Z"/><path class="cls-3" d="M98.21,27.48a.46.46,0,0,1-.08.27.58.58,0,0,1-.21.17.77.77,0,0,1-.27.07l-.27,0L97,28l-.35,0-.56.17a2.22,2.22,0,0,1-.58.09.35.35,0,0,1-.14,0l-.12,0a1.14,1.14,0,0,0-.4.08,1.22,1.22,0,0,1-.41.07,2.82,2.82,0,0,1-.65-.08,3.4,3.4,0,0,0-.65-.12,1.15,1.15,0,0,1-.85-.42,1.52,1.52,0,0,1-.32-.91,2.44,2.44,0,0,1,.77-.31,4.45,4.45,0,0,1,.81-.08H94l.47,0c0-.59-.08-1.17-.16-1.76a15,15,0,0,1-.11-1.77c0-.2,0-.41,0-.61a4.39,4.39,0,0,1,.07-.61q.06-.3.15-.6a1.8,1.8,0,0,0,.1-.6,1.06,1.06,0,0,0-.06-.37,2.63,2.63,0,0,0-.15-.35.81.81,0,0,1-.11-.32,2.33,2.33,0,0,0-.06-.35,2.42,2.42,0,0,0-.1-.36,1,1,0,0,0-.23-.32,1.13,1.13,0,0,0-.44-.22,2.92,2.92,0,0,0-.74-.08,2.82,2.82,0,0,0-.42,0l-.56.1-.54.16a1,1,0,0,0-.34.18l-.15.16c-.06.07-.12.15-.19.22l-.19.2a.37.37,0,0,1-.16.1l-.27.06a.31.31,0,0,0-.14.07.48.48,0,0,0-.09.13c0,.06-.06.14-.11.25l-.1.19c0,.09-.09.13-.14.13a.09.09,0,0,1-.08-.05.08.08,0,0,0-.08,0l-.07,0s0,0-.06.05v.33a.3.3,0,0,1-.15.1h-.1a.09.09,0,0,0-.06.06.88.88,0,0,0,0,.22.48.48,0,0,1-.06.24l-.12.21-.12.22a.51.51,0,0,0-.06.25,1.63,1.63,0,0,0,.06.45,1.37,1.37,0,0,1,.07.45.67.67,0,0,1,0,.26,1.18,1.18,0,0,1-.11.19l-.11.17a.42.42,0,0,0,0,.2.73.73,0,0,0,.06.3c0,.09.09.18.14.28a2.55,2.55,0,0,1,.13.29.72.72,0,0,1,.07.33,1.9,1.9,0,0,1,0,.4,2,2,0,0,0,0,.42.81.81,0,0,0,.07.38.48.48,0,0,0,.2.2.83.83,0,0,0,.29.11,2.07,2.07,0,0,1,.33.1,2.23,2.23,0,0,1,.35.17,1.53,1.53,0,0,1,.33.34h.07a.31.31,0,0,1,.29.16.69.69,0,0,1,.09.34.54.54,0,0,1-.07.29.72.72,0,0,0-.07.32c0,.09-.1.17-.3.23a3.5,3.5,0,0,1-.69.15,6.75,6.75,0,0,1-.75.07l-.47,0h-.43l-.65,0-.74,0c-.26,0-.5-.06-.71-.1A2.88,2.88,0,0,1,85,28a.48.48,0,0,1-.29-.24c0-.09-.08-.19-.12-.31a1.26,1.26,0,0,1,0-.33.69.69,0,0,1,.08-.32,1.32,1.32,0,0,1,.22-.26.72.72,0,0,1,.39-.19l.41,0,.4,0a.6.6,0,0,0,.34-.18,1.07,1.07,0,0,0,.24-.48,4.38,4.38,0,0,0,.08-.93,1.67,1.67,0,0,0,0-.31,1.45,1.45,0,0,0-.06-.3q0-.15-.06-.27a1.49,1.49,0,0,1,0-.17.28.28,0,0,1,0-.15l.09-.17a1.24,1.24,0,0,0,.1-.2.59.59,0,0,0,0-.23,1,1,0,0,0-.08-.39,1,1,0,0,1-.07-.39.81.81,0,0,1,.06-.31,1.13,1.13,0,0,0,0-.32.42.42,0,0,0-.07-.24.59.59,0,0,1-.07-.26.86.86,0,0,1,0-.27.86.86,0,0,0,0-.27,3.57,3.57,0,0,0-.07-.63c0-.21-.09-.42-.13-.63a1,1,0,0,0-.27-.54,1.39,1.39,0,0,0-.43-.28,4.44,4.44,0,0,0-.52-.15,1.9,1.9,0,0,1-.49-.18,1,1,0,0,1-.37-.35,1.25,1.25,0,0,1-.15-.68.59.59,0,0,1,.18-.46,1.11,1.11,0,0,1,.44-.24,2,2,0,0,1,.55-.09H86a2.22,2.22,0,0,1,.67.1,3.93,3.93,0,0,0,.67.12.67.67,0,0,1,.3.1,1.27,1.27,0,0,1,.25.21,1,1,0,0,1,.19.27.75.75,0,0,1,.08.31,1.32,1.32,0,0,0,0,.25c0,.12.07.25.11.37a1.72,1.72,0,0,0,.14.33c0,.1.11.15.16.15a.31.31,0,0,0,.1-.13.88.88,0,0,0,0-.15c0-.05.06-.11.16-.19l.33-.24.35-.25a2.22,2.22,0,0,0,.24-.19.45.45,0,0,0,.11-.17c0-.06.06-.11.08-.16a.43.43,0,0,1,.11-.12.3.3,0,0,1,.21-.05h0a.38.38,0,0,0,.25-.11,2.82,2.82,0,0,1,.3-.25,1.93,1.93,0,0,1,.5-.26,2.51,2.51,0,0,1,.81-.11l.86,0a3.69,3.69,0,0,1,.83.12,2.58,2.58,0,0,1,.74.33,2.09,2.09,0,0,1,.6.62,3.53,3.53,0,0,0,.33.47c.08.1.15.2.21.29a1.13,1.13,0,0,1,.11.34,4.54,4.54,0,0,1,0,.6.81.81,0,0,0,.06.31c0,.09.08.19.13.28a2.92,2.92,0,0,1,.14.31,1.12,1.12,0,0,1,.06.38,7.34,7.34,0,0,1,0,.81,7.37,7.37,0,0,0,0,.82,1.44,1.44,0,0,1-.11.57,1.66,1.66,0,0,0-.11.58.54.54,0,0,0,.07.27.54.54,0,0,1,.07.29,1.37,1.37,0,0,1,0,.4,1.9,1.9,0,0,0,0,.41.57.57,0,0,0,.09.32.69.69,0,0,1,.08.32.24.24,0,0,1,0,.15l-.09.12-.1.12a.42.42,0,0,0,0,.16.8.8,0,0,0,.09.36,1.5,1.5,0,0,0,.23.33,1,1,0,0,0,.32.23.73.73,0,0,0,.35.09.53.53,0,0,0,.26-.06.44.44,0,0,1,.24-.07.42.42,0,0,1,.3.14,1.34,1.34,0,0,1,.24.32,2.5,2.5,0,0,1,.15.38A1.76,1.76,0,0,1,98.21,27.48ZM88.09,22.8a.75.75,0,0,0,0-.2.92.92,0,0,0-.09-.23.43.43,0,0,0-.13-.19.25.25,0,0,0-.18-.08.35.35,0,0,0-.22.08.36.36,0,0,1-.23.08h0a1,1,0,0,0,0,.24l0,.07v0a.35.35,0,0,0,.14.2l.23.12.25.1a.61.61,0,0,1,.22.13A.44.44,0,0,0,88.09,22.8Zm7.59.26a.4.4,0,0,0-.08-.22.22.22,0,0,0-.2-.11.17.17,0,0,0-.18.12.66.66,0,0,0,0,.23.67.67,0,0,0,0,.24.19.19,0,0,0,.19.12.22.22,0,0,0,.18-.08.6.6,0,0,0,.09-.27Zm.2,2.25a.16.16,0,0,0-.07-.13l-.13-.09a.39.39,0,0,1-.08.14l-.12.16a.91.91,0,0,0-.11.16.25.25,0,0,0-.05.16.18.18,0,0,0,.05.14.67.67,0,0,0,.14.09.29.29,0,0,1,.08-.14,1,1,0,0,0,.12-.16l.12-.16A.31.31,0,0,0,95.88,25.31Z"/><path class="cls-3" d="M111.75,22.65a.87.87,0,0,1-.06.32,1.45,1.45,0,0,1-.11.25l-.12.17a.2.2,0,0,0,0,.09.47.47,0,0,0,.07.24.57.57,0,0,1,.08.28.11.11,0,0,1,0,.1l-.12,0-.17,0c0,.14,0,.29,0,.43a3,3,0,0,1,0,.43.82.82,0,0,1-.07.44.27.27,0,0,1-.13.13l-.14,0s-.06.09-.06.22a.42.42,0,0,1-.15.26,2.25,2.25,0,0,1-.35.33,2.19,2.19,0,0,1-.42.28.76.76,0,0,1-.35.12l-.08,0c0,.06,0,.13,0,.2a1.36,1.36,0,0,1,0,.2.21.21,0,0,1-.1.2,1,1,0,0,1-.21.1,1.88,1.88,0,0,0-.36.24l-.39.32a3.35,3.35,0,0,1-.4.29.85.85,0,0,1-.43.12.7.7,0,0,1-.35-.09.88.88,0,0,0-.68,0,.9.9,0,0,0-.24.12l-.23.11a.6.6,0,0,1-.27.06,1.39,1.39,0,0,1-.61-.16,3.25,3.25,0,0,0-.59-.25,1.79,1.79,0,0,0-.35-.09L104,28a1.17,1.17,0,0,1-.33-.11.83.83,0,0,1-.28-.21,2.11,2.11,0,0,0-.57-.51c-.22-.13-.45-.26-.67-.37s-.45-.24-.66-.37a2,2,0,0,1-.55-.51l-.4-.54a6.34,6.34,0,0,1-.41-.6,4.31,4.31,0,0,1-.33-.64,1.91,1.91,0,0,1-.12-.65,2.38,2.38,0,0,1,0-.46c0-.14.07-.29.1-.45s.07-.3.1-.45a2.3,2.3,0,0,0,0-.45v-.13a.19.19,0,0,0,0-.11l-.07-.11a.38.38,0,0,0-.09-.09s0,0,0,0h0q0-.1.06-.33c0-.14.08-.29.13-.44a4.13,4.13,0,0,1,.14-.42.55.55,0,0,1,.13-.25l.13-.13a.24.24,0,0,0,.06-.17,1.27,1.27,0,0,0,0-.2c0-.07,0-.14,0-.21s0-.15,0-.17a.12.12,0,0,1,.09,0h.12a.25.25,0,0,0,.11-.13q.11-.21.21-.39a2.7,2.7,0,0,1,.22-.33,1.23,1.23,0,0,1,.27-.29,2.38,2.38,0,0,1,.37-.24,2.26,2.26,0,0,0,.37-.26l.37-.3a1.83,1.83,0,0,1,.38-.26.88.88,0,0,1,.42-.11,1.61,1.61,0,0,0,.61-.11,4.5,4.5,0,0,1,.6-.17l1-.13a6.24,6.24,0,0,1,1-.07,2.87,2.87,0,0,1,.65.09,6.34,6.34,0,0,1,.79.23,5.92,5.92,0,0,1,.77.32,2.58,2.58,0,0,1,.56.35v0a1.4,1.4,0,0,1,0,.34,1,1,0,0,0-.06.33v0s0,0,0,0a1.58,1.58,0,0,0,.38-.05,1.21,1.21,0,0,1,.38-.06.31.31,0,0,0,.18.27l.3.13a.73.73,0,0,1,.27.26,2.6,2.6,0,0,1,.22.41c.08.15.14.3.21.45a3.78,3.78,0,0,0,.19.36,1.28,1.28,0,0,1,.17.33,2.8,2.8,0,0,1,.13.41,3.28,3.28,0,0,1,.08.41c0,.14,0,.27,0,.38a.82.82,0,0,1-.09.4,1.38,1.38,0,0,1-.19.28l-.19.23a.4.4,0,0,0-.09.25.41.41,0,0,0,0,.16,1.13,1.13,0,0,0,.1.13l.1,0c.05,0,.07,0,.07-.07h0a.27.27,0,0,0-.07-.18.27.27,0,0,1-.08-.19.31.31,0,0,1,0-.08s0-.05.06-.05a.19.19,0,0,1,.14.08l.14.19.1.17c0,.05,0,.06,0,.05h0a.44.44,0,0,1,0,.1S111.75,22.62,111.75,22.65Zm-1.18.1c0-.13,0-.2-.14-.23a1.44,1.44,0,0,0-.31-.05l-.35,0a.26.26,0,0,1-.23-.17v-.12a3.57,3.57,0,0,0-.06-.6c0-.23-.1-.47-.16-.71s-.13-.47-.2-.7-.14-.44-.2-.62-.13-.37-.21-.59l-.15,0a.78.78,0,0,1-.35-.08,3.27,3.27,0,0,0-.33-.18,2.7,2.7,0,0,0-.44-.17,2.25,2.25,0,0,0-.7-.09,7.46,7.46,0,0,1-.95-.06,7.46,7.46,0,0,0-1-.06,2.78,2.78,0,0,0-1.23.29,3.68,3.68,0,0,0-1,.79,3.73,3.73,0,0,0-.67,1.1,3.11,3.11,0,0,0-.25,1.23c0,.17,0,.37,0,.6s0,.46.06.69a3.25,3.25,0,0,0,.15.65,1.13,1.13,0,0,0,.29.45v.32a.22.22,0,0,0,.13.06h.15l.13,0a.16.16,0,0,1,.1.1,1.51,1.51,0,0,0,.4.66,3.21,3.21,0,0,0,.52.39l.57.32a1.68,1.68,0,0,1,.51.46l.2,0h.2a4.4,4.4,0,0,1,.73.06,5.81,5.81,0,0,0,.72.05,1.3,1.3,0,0,0,.7-.2,1.81,1.81,0,0,0,.53-.5,4.18,4.18,0,0,1,.26-.34l.24-.27a2,2,0,0,1,.27-.23l.35-.25.17-.12.2-.16.17-.17a.34.34,0,0,0,.07-.17.76.76,0,0,0,0-.21.89.89,0,0,1,0-.22,1.67,1.67,0,0,1,0-.28,1.63,1.63,0,0,1,.11-.31,1.34,1.34,0,0,1,.19-.26.45.45,0,0,1,.28-.09.63.63,0,0,1,.26.05l.23.14A.59.59,0,0,0,110.57,22.75Z"/><path class="cls-3" d="M126.29,19.23a.72.72,0,0,1-.1.4,3.28,3.28,0,0,1-.2.31l-.22.3a.73.73,0,0,0-.15.36.54.54,0,0,0-.22-.05l-.22,0a5.09,5.09,0,0,0-.56,0,3.51,3.51,0,0,1-.55.05.73.73,0,0,1-.52-.2,1.65,1.65,0,0,1-.33-.47,2.88,2.88,0,0,1-.17-.61,4,4,0,0,1,0-.58,2.21,2.21,0,0,1,.1-.66.34.34,0,0,0-.16,0,.25.25,0,0,0-.22.09.19.19,0,0,1-.18.1.29.29,0,0,1-.19-.08.27.27,0,0,0-.2-.07,1.12,1.12,0,0,0-.44.11,3.22,3.22,0,0,0-.51.28,2.62,2.62,0,0,0-.42.39.6.6,0,0,0-.19.39,1.27,1.27,0,0,0-.46.13l-.41.24a.7.7,0,0,0-.26.3,4.09,4.09,0,0,0-.2.42c0,.16-.11.31-.17.47a1.51,1.51,0,0,1-.21.38c-.13.18-.24.35-.34.52a1.21,1.21,0,0,0-.15.6,2.71,2.71,0,0,0,.13.83,2.79,2.79,0,0,1,.13.85,3.64,3.64,0,0,1,0,.57,3.39,3.39,0,0,0,0,.55,1.09,1.09,0,0,0,.11.52A.89.89,0,0,0,119,26a1.31,1.31,0,0,0,.46.14,3.08,3.08,0,0,0,.53,0l.56,0,.51,0a.33.33,0,0,1,.1.18.5.5,0,0,1,0,.17,1.09,1.09,0,0,1,0,.17.68.68,0,0,0,0,.21.3.3,0,0,0,0,.12.49.49,0,0,0,.3-.09.45.45,0,0,0,.19-.25.3.3,0,0,1,.15.07.16.16,0,0,1,.06.14.31.31,0,0,1,0,.13.54.54,0,0,1-.09.12l-.08.13a.32.32,0,0,0,0,.14.31.31,0,0,0,0,.1.46.46,0,0,0,0,.09.26.26,0,0,1-.16.13.78.78,0,0,1-.21,0,.68.68,0,0,1-.31-.06l-.22-.13-.19-.13a.31.31,0,0,0-.19-.06l-.15,0-.18.06-.17.09s-.07.07-.07.1a.2.2,0,0,0,.07.16.27.27,0,0,1,.06.17.16.16,0,0,1-.06.13.3.3,0,0,1-.14.06l-.17,0h-.14a4,4,0,0,1-.91-.1,4,4,0,0,0-.91-.1.92.92,0,0,0-.42.1,1.13,1.13,0,0,1-.45.09.33.33,0,0,1-.19-.05.69.69,0,0,1-.11-.13l-.11-.12a.29.29,0,0,0-.17-.05,2.12,2.12,0,0,0-.44,0l-.44.1-.43.1a2.12,2.12,0,0,1-.44,0l-.28,0a1.08,1.08,0,0,1-.58-.28.33.33,0,0,1-.1-.25.48.48,0,0,1,.11-.25,3.31,3.31,0,0,1,.25-.3,3,3,0,0,1,.28-.25.52.52,0,0,1,.21-.11l.37,0H115a2.31,2.31,0,0,0,.64-.1,2,2,0,0,0,.59-.29,1.39,1.39,0,0,0,.43-.47,1.23,1.23,0,0,0,.16-.63c0-.1,0-.2,0-.3a1.53,1.53,0,0,1,0-.3,3.26,3.26,0,0,1,.07-.61,2.49,2.49,0,0,0,.08-.61,4.14,4.14,0,0,0-.09-.84,4.12,4.12,0,0,1-.09-.86c0-.25,0-.51,0-.76s0-.51,0-.77,0-.29,0-.52a5.41,5.41,0,0,0-.07-.68,2.4,2.4,0,0,0-.2-.59.41.41,0,0,0-.37-.26,2.31,2.31,0,0,0-.52.06,2.29,2.29,0,0,1-.52,0,4,4,0,0,1-.47,0,2.19,2.19,0,0,1-.52-.12,1.27,1.27,0,0,1-.42-.25.57.57,0,0,1-.18-.44,1.06,1.06,0,0,1,.09-.47.67.67,0,0,1,.21-.28,1,1,0,0,1,.32-.13,2.38,2.38,0,0,1,.39,0h.77a6.28,6.28,0,0,0,.75,0,6,6,0,0,1,.74,0l.52,0a2.13,2.13,0,0,1,.5.11.54.54,0,0,1,.33.26,2.93,2.93,0,0,1,.19.4,1.71,1.71,0,0,0,.21.35.42.42,0,0,0,.37.16.43.43,0,0,0,.22-.06l.19-.15.19-.15a.55.55,0,0,1,.22-.1,1.14,1.14,0,0,0,.48-.16l.43-.26.42-.23a1.13,1.13,0,0,1,.48-.11l.38,0,.46-.1.43-.16a1,1,0,0,0,.32-.21,3.09,3.09,0,0,1,.75.15,4.22,4.22,0,0,1,.82.35,2.69,2.69,0,0,1,.68.51,1.06,1.06,0,0,1,.34.65,1.87,1.87,0,0,0,.13.42c.06.14.13.27.19.4s.13.26.19.4A1.16,1.16,0,0,1,126.29,19.23Z"/><path class="cls-3" d="M140.07,25.74a.94.94,0,0,1-.07.37c-.05.12-.09.24-.13.37a1.85,1.85,0,0,0-.06.26.85.85,0,0,1-.06.19.45.45,0,0,1-.11.14,1.17,1.17,0,0,1-.24.14c-.23.13-.48.26-.74.38a1.78,1.78,0,0,1-.79.2,1.41,1.41,0,0,1-.64-.16,3.7,3.7,0,0,1-.55-.35l-.46-.36a.59.59,0,0,0-.35-.16.38.38,0,0,0-.26.08l-.22.17a1.44,1.44,0,0,1-.25.18.67.67,0,0,1-.33.08,1.06,1.06,0,0,0-.34.06,2.13,2.13,0,0,0-.35.14l-.36.15-.33.12a5,5,0,0,1-1.07.16c-.35,0-.71,0-1.07,0h-.43a3,3,0,0,1-.59-.06,1.65,1.65,0,0,1-.53-.17.35.35,0,0,1-.23-.32.25.25,0,0,1,0-.09.55.55,0,0,1-.18.16.49.49,0,0,1-.24,0,.75.75,0,0,1-.46-.25,4.35,4.35,0,0,1-.51-.6,4.58,4.58,0,0,1-.42-.67,1.26,1.26,0,0,1-.18-.5.41.41,0,0,1,.08-.24.39.39,0,0,0,.07-.23,1.06,1.06,0,0,0,0-.31,1.06,1.06,0,0,1,0-.31,1.53,1.53,0,0,1,.08-.45,4.89,4.89,0,0,1,.2-.48c.08-.16.16-.32.25-.47s.16-.3.23-.43a1,1,0,0,1,.33-.38,3.21,3.21,0,0,1,.45-.24l.46-.21a1.35,1.35,0,0,0,.41-.28.6.6,0,0,0,.46.2,1.9,1.9,0,0,0,.58-.09,1.84,1.84,0,0,1,.57-.09,2.14,2.14,0,0,1,.45.05,2.28,2.28,0,0,0,.45,0,.91.91,0,0,0,.38-.06,1.28,1.28,0,0,0,.31-.23,1.37,1.37,0,0,1,.48-.25,3.75,3.75,0,0,1,.6-.14l.62-.11a2.73,2.73,0,0,0,.55-.17,1.05,1.05,0,0,0,.4-.31.84.84,0,0,0,.15-.53,1.73,1.73,0,0,0-.21-.79,3.18,3.18,0,0,0-.56-.76,3.38,3.38,0,0,0-.75-.57,1.62,1.62,0,0,0-.78-.23l-.1,0h-.08a5.63,5.63,0,0,1-.63.06,2.68,2.68,0,0,0-.66.11,1.17,1.17,0,0,0-.51.29.82.82,0,0,0-.22.6,2.42,2.42,0,0,0,.05.47,3.42,3.42,0,0,1,0,.46,1,1,0,0,1-.17.59,1.32,1.32,0,0,1-.44.37,1.59,1.59,0,0,1-.58.19,3.23,3.23,0,0,1-.61.06,1.66,1.66,0,0,1-.61-.1.77.77,0,0,1-.42-.43c-.08-.16-.18-.34-.27-.53a1.25,1.25,0,0,1-.15-.58,1.63,1.63,0,0,1,.11-.59c.08-.19.16-.37.25-.54l.28-.53a2.25,2.25,0,0,0,.19-.57l.23-.09.32-.1.33-.09.26-.07c.19-.06.37-.12.54-.19s.36-.15.54-.21.37-.12.55-.16a2.82,2.82,0,0,1,.57-.09h.37a6.15,6.15,0,0,1,1,.09,5.42,5.42,0,0,1,1,.28,5.55,5.55,0,0,1,1,.46,3.92,3.92,0,0,1,.81.65,2.48,2.48,0,0,1,.42.66,3.77,3.77,0,0,1,.27.8,5.19,5.19,0,0,1,.14.85,7.79,7.79,0,0,1,.05.79c0,.33,0,.65,0,1s0,.64,0,1a7.25,7.25,0,0,0,.05.93c0,.31.08.62.12.93s.09.61.13.92,0,.62,0,.92a.84.84,0,0,0,.07.35.17.17,0,0,0,.12.06.53.53,0,0,0,.41-.16,2,2,0,0,0,.29-.35,2.48,2.48,0,0,1,.28-.36.5.5,0,0,1,.39-.16h.21l.21.05a.44.44,0,0,1,.15.12A.33.33,0,0,1,140.07,25.74Zm-3.86-2.92v-.25l0-.35a1.45,1.45,0,0,0-.08-.33.18.18,0,0,0-.16-.14l-.05,0-.06,0c-.3.16-.55.3-.76.4a4.67,4.67,0,0,1-.63.26,2.86,2.86,0,0,1-.66.13,7.34,7.34,0,0,1-.88,0l-.39.06-.69.13-.7.16-.41.09a.61.61,0,0,0-.22.12.41.41,0,0,0-.1.13l-.07.15a.57.57,0,0,1-.13.16,1.28,1.28,0,0,1-.25.15.85.85,0,0,0-.25.17,2,2,0,0,0-.33.47,1.16,1.16,0,0,0-.15.54,1,1,0,0,0,.16.56,1.47,1.47,0,0,0,.43.43,4.33,4.33,0,0,0,.61.3,4.48,4.48,0,0,0,.69.2c.23,0,.45.08.67.11l.55,0a5.79,5.79,0,0,0,.67,0,6.51,6.51,0,0,0,.77-.13,4.16,4.16,0,0,0,.73-.24,1.4,1.4,0,0,0,.54-.39.77.77,0,0,0,.12-.17l.07-.15.1-.16a.67.67,0,0,1,.17-.17,1.67,1.67,0,0,0,.41-.49,2.32,2.32,0,0,0,.22-.57,3,3,0,0,0,.08-.61C136.21,23.25,136.21,23,136.21,22.82Z"/><path class="cls-3" d="M152.83,21.76a.71.71,0,0,1-.09.36.38.38,0,0,1-.33.16,1.65,1.65,0,0,0,.21.42.77.77,0,0,1,.14.45,1.19,1.19,0,0,1,0,.32l-.12.31-.13.3a1.45,1.45,0,0,0-.11.31,4.13,4.13,0,0,1-.26.66c-.14.29-.29.58-.46.89s-.34.58-.51.85a3.51,3.51,0,0,1-.43.55.81.81,0,0,1-.27.17l-.28.07-.3,0a1,1,0,0,0-.29.07,3.85,3.85,0,0,0-.53.3,1,1,0,0,1-.57.17.48.48,0,0,1-.24-.06L148,28l-.21-.13a.44.44,0,0,0-.23-.06,1.44,1.44,0,0,1-.39.15,3.7,3.7,0,0,1-.48.09,4.45,4.45,0,0,1-.5,0h-.41a1.82,1.82,0,0,1-1-.26,3.05,3.05,0,0,1-.73-.71.71.71,0,0,0-.18.08l-.19.13-.17.12a.28.28,0,0,1-.13.06l0-.16-.07-.08a.24.24,0,0,0-.18.07.93.93,0,0,0-.14.14.67.67,0,0,1-.14.15.29.29,0,0,1-.19.06.69.69,0,0,1-.25,0c-.08,0-.12-.09-.12-.2a.44.44,0,0,1,.06-.23.56.56,0,0,0,0-.23.92.92,0,0,0,0-.29,1.41,1.41,0,0,1,0-.28,1.45,1.45,0,0,1,0-.3,1.36,1.36,0,0,0,0-.29,1.41,1.41,0,0,0,0-.35l-.12-.35c0-.11-.07-.22-.11-.34a1.34,1.34,0,0,1,0-.35,1.08,1.08,0,0,1,.11-.47,1.1,1.1,0,0,0,.1-.47.52.52,0,0,0,0-.14l-.05-.09-.05-.11a.78.78,0,0,1,0-.19,2.53,2.53,0,0,1,0-.27v-.21a2.1,2.1,0,0,0,0-.36,1.5,1.5,0,0,1,0-.37,2.62,2.62,0,0,1,.08-.61,2.08,2.08,0,0,0,.09-.6,5.55,5.55,0,0,0-.07-.82,5.93,5.93,0,0,1-.06-.84,1,1,0,0,1,0-.3l.09-.31c0-.1.07-.2.1-.3a1.46,1.46,0,0,0,0-.31,4.32,4.32,0,0,0-.05-.62c0-.2-.06-.4-.1-.61s-.07-.42-.09-.62a4.44,4.44,0,0,1,0-.63v-.37c0-.12,0-.24,0-.37a1.58,1.58,0,0,0-.19-.84,1.07,1.07,0,0,0-.48-.39,1.57,1.57,0,0,0-.61-.15,5.82,5.82,0,0,1-.62-.08,1,1,0,0,1-.47-.2.58.58,0,0,1-.19-.51.72.72,0,0,1,.17-.5,1.06,1.06,0,0,1,.4-.29,2.09,2.09,0,0,1,.52-.13l.52,0a6,6,0,0,1,1.2.12,9.94,9.94,0,0,0,1.21.13.24.24,0,0,1,.18.13.55.55,0,0,1,0,.23c0,.1,0,.2-.06.32a2.25,2.25,0,0,0,0,.38c0,.25,0,.51,0,.77s0,.49,0,.7,0,.2,0,.38,0,.38,0,.6,0,.46.06.7a5.51,5.51,0,0,0,.11.67,2.3,2.3,0,0,0,.15.5c.07.13.14.2.24.2a.37.37,0,0,0,.21-.06l.2-.14.18-.17a.85.85,0,0,1,.19-.14,2.34,2.34,0,0,1,.55-.15,2.93,2.93,0,0,1,.58-.06.54.54,0,0,0,.21-.05l.21-.13.22-.12a.58.58,0,0,1,.26-.06,1.13,1.13,0,0,1,.32.05l.31.13.3.13a1.36,1.36,0,0,0,.32.08l.48.05a1.83,1.83,0,0,1,.46.12.49.49,0,0,1,.19.14.36.36,0,0,0,.16.14.57.57,0,0,0,.25.1l.23,0,.25.05a1.14,1.14,0,0,1,.29.17l.35.29.34.31a3.07,3.07,0,0,1,.28.35,1.32,1.32,0,0,1,.17.41,8,8,0,0,0,.25,1,3.34,3.34,0,0,0,.42.91,3,3,0,0,1,.31.59A1.82,1.82,0,0,1,152.83,21.76Zm-1.21.48a.26.26,0,0,0-.12-.23,1,1,0,0,0-.23-.13.87.87,0,0,1-.2-.12s-.06-.09,0-.17,0-.11.08-.12a.2.2,0,0,1,.11,0,1.3,1.3,0,0,0-.2-.5,2.74,2.74,0,0,1-.26-.51,1.17,1.17,0,0,1-.09-.33,1.91,1.91,0,0,0-.07-.28.72.72,0,0,0-.14-.24,1.08,1.08,0,0,0-.27-.23l-.23-.13a.56.56,0,0,1-.15-.1.37.37,0,0,1-.12-.13,1.17,1.17,0,0,1-.12-.25.69.69,0,0,0-.17-.26.7.7,0,0,0-.23-.11,1.07,1.07,0,0,0-.27-.06l-.3-.08c-.25-.1-.5-.18-.73-.25a3.21,3.21,0,0,0-.78-.09,3.31,3.31,0,0,0-1.34.24,2.34,2.34,0,0,0-.9.68,3.09,3.09,0,0,0-.53,1,6.46,6.46,0,0,0-.24,1.32,2.83,2.83,0,0,1-.09.56c0,.19-.08.37-.13.56s-.09.36-.13.55a2.74,2.74,0,0,0-.06.56.92.92,0,0,0,0,.19.49.49,0,0,0,.11.14,1,1,0,0,1,.23.5c0,.17,0,.33,0,.49a1.49,1.49,0,0,0,.1.44.55.55,0,0,0,.38.28.78.78,0,0,1,.26.13.67.67,0,0,1,.15.14l.11.19a1.05,1.05,0,0,0,.15.21,4,4,0,0,1,.5-.08,4,4,0,0,0,.5-.08.27.27,0,0,0,.15.24.92.92,0,0,0,.35.14,1.76,1.76,0,0,0,.4.07l.31,0,.42,0a2,2,0,0,0,.43-.08,1.36,1.36,0,0,0,.39-.17.71.71,0,0,0,.28-.31,1.19,1.19,0,0,1,.42-.44q.24-.13.48-.24a2.51,2.51,0,0,0,.45-.26,1,1,0,0,0,.31-.5q.12-.41.27-.84a2.83,2.83,0,0,0,.14-.87,1.53,1.53,0,0,0,0-.3,1.61,1.61,0,0,0-.09-.29l.29.18a.51.51,0,0,0,.31.11.08.08,0,0,0,.08-.05A.15.15,0,0,0,151.62,22.24Z"/><path class="cls-3" d="M166.66,27.18a.81.81,0,0,1-.28.65,1.75,1.75,0,0,1-.66.36,3.55,3.55,0,0,1-.8.16c-.28,0-.51,0-.71,0a2.27,2.27,0,0,1-.64-.08,3.27,3.27,0,0,1-.44-.14L162.8,28a.73.73,0,0,0-.29-.07,1.34,1.34,0,0,0-.39.07,1.07,1.07,0,0,1-.39.07.5.5,0,0,1-.23,0,.61.61,0,0,1-.15-.12l-.11-.11a.19.19,0,0,0-.12,0,.15.15,0,0,0-.13.06l-.11.15a.49.49,0,0,1-.17.14.56.56,0,0,1-.32.07,2.61,2.61,0,0,1-.48-.05,2,2,0,0,0-.48-.06,1.37,1.37,0,0,0-.49.09,1.29,1.29,0,0,1-.45.09.15.15,0,0,1-.14-.07.14.14,0,0,0-.1-.06,1.06,1.06,0,0,0-.42.09,1,1,0,0,1-.44.1.91.91,0,0,1-.23,0,.85.85,0,0,0-.23,0,1,1,0,0,0-.4.09,1.15,1.15,0,0,1-.49.1l-.46,0-.73-.09a5.33,5.33,0,0,1-.68-.15c-.2-.06-.3-.12-.3-.19a1.66,1.66,0,0,1,.12-.61,1.8,1.8,0,0,0,.11-.59v0a.17.17,0,0,1-.18-.16.16.16,0,0,1,.08-.08l.11-.05.1,0s0-.06,0-.11v0l.92.06h.94l1,0a4.72,4.72,0,0,0,1-.17,2.19,2.19,0,0,0,.8-.43,1,1,0,0,0,.32-.8v-.27c0-.86-.08-1.71-.12-2.54s-.07-1.68-.07-2.54a4.89,4.89,0,0,0,0-.66,3.49,3.49,0,0,1-.05-.65,2.4,2.4,0,0,1,.14-.82,1.71,1.71,0,0,1,.46-.69.11.11,0,0,0,0-.1l-.12,0-.14,0-.11,0a.21.21,0,0,1-.09-.16,2.36,2.36,0,0,1,0-.28c0-.11,0-.21,0-.3a.45.45,0,0,0-.07-.23,4.93,4.93,0,0,1,.11-.67,2.52,2.52,0,0,0,.09-.67,1,1,0,0,0-.07-.38.89.89,0,0,0-.14-.24l-.15-.17a.29.29,0,0,1-.07-.19.32.32,0,0,1,.06-.18h-.09a.24.24,0,0,0-.18.06l-.11.13-.11.13a.21.21,0,0,1-.16.06.72.72,0,0,1-.19,0,1.31,1.31,0,0,1-.38.06,3.22,3.22,0,0,1-.81-.11,2.82,2.82,0,0,0-.81-.11h-.44a3,3,0,0,1-.42,0,2.54,2.54,0,0,1-.61-.07,1.21,1.21,0,0,1-.54-.3v-.14a1.1,1.1,0,0,1,.42-.94,1.6,1.6,0,0,1,1-.32,3.22,3.22,0,0,1,.81.11,3.15,3.15,0,0,0,.81.1,2.63,2.63,0,0,0,.47,0l.5-.11.52-.1a2.35,2.35,0,0,1,.52-.05,1.59,1.59,0,0,1,.75.17l.71.32V12a.35.35,0,0,0,0,.2.88.88,0,0,0,.12.17.94.94,0,0,1,.12.18.33.33,0,0,1,.06.19.76.76,0,0,1,0,.21.64.64,0,0,0,0,.2,1.16,1.16,0,0,0,.1.49,1.45,1.45,0,0,1,.1.51,2,2,0,0,1-.07.55,2.51,2.51,0,0,0-.06.55,3.16,3.16,0,0,0,.08.68,2.63,2.63,0,0,1,.08.68,1.71,1.71,0,0,1-.09.55,2,2,0,0,0-.08.54,1.31,1.31,0,0,0,.05.39c0,.13.08.26.12.38s.09.25.13.38a1.84,1.84,0,0,1,0,.41v.23a2,2,0,0,1,0,.36.65.65,0,0,1-.16.32q.06.22.12.48a1.76,1.76,0,0,1,.07.49,2.46,2.46,0,0,1,0,.26,1.31,1.31,0,0,1-.06.27.88.88,0,0,1-.11.24.57.57,0,0,1-.16.18,4.77,4.77,0,0,1,.2.91c0,.3.05.61.07.91a3,3,0,0,0,0,.36c0,.15,0,.3.07.44s.05.28.07.4a1.93,1.93,0,0,1,0,.25,1.23,1.23,0,0,1-.07.39,1,1,0,0,0-.07.39.77.77,0,0,0,.07.32.25.25,0,0,0,.25.17.36.36,0,0,0,.24-.07l.22-.14a2.43,2.43,0,0,1,.28-.14,1.21,1.21,0,0,1,.42-.06,2.14,2.14,0,0,1,.58.08,1.79,1.79,0,0,0,.57.08,2.28,2.28,0,0,0,.45,0l.45-.09.44-.1a2.31,2.31,0,0,1,.46-.05,1.2,1.2,0,0,1,.79.27A1,1,0,0,1,166.66,27.18Zm-6.73-14.59-.11-.1a.23.23,0,0,0-.14,0,.12.12,0,0,0-.1.05.18.18,0,0,0-.05.11l.06.14.07,0a.22.22,0,0,0,.16-.07Zm.71,3.26a.39.39,0,0,0-.06-.2.18.18,0,0,0-.17-.1h-.07l-.07,0v.5a.47.47,0,0,0,.14.05.17.17,0,0,0,.17-.1A.38.38,0,0,0,160.64,15.85Z"/><path class="cls-3" d="M178.75,25.34a1.27,1.27,0,0,1-.1.54,1.5,1.5,0,0,1-.25.4,2.94,2.94,0,0,1-.37.32l-.41.33a1.18,1.18,0,0,1-.3.21,1.42,1.42,0,0,1-.25.12l-.26.09-.31.13-.39.22a2,2,0,0,1-.32.18,1.73,1.73,0,0,1-.34.14,3.78,3.78,0,0,1-.47.08l-.94.14a5.09,5.09,0,0,1-.95.09.72.72,0,0,1-.19,0l-.23-.09-.29-.08a1.38,1.38,0,0,0-.38,0,.79.79,0,0,1-.37-.07,1.2,1.2,0,0,1-.25-.16l-.23-.21a1,1,0,0,0-.31-.19,4.67,4.67,0,0,1-1.19-.76,5.06,5.06,0,0,1-.85-1,6.05,6.05,0,0,1-.58-1.2,11,11,0,0,1-.4-1.34,3.74,3.74,0,0,1-.13-1A2.32,2.32,0,0,1,168,21a1.85,1.85,0,0,1-.12-.64,2.54,2.54,0,0,1,.13-.66,5.25,5.25,0,0,1,.33-.88,6.14,6.14,0,0,1,.45-.81,1.1,1.1,0,0,1,.45-.43l.23-.1s.06-.11.06-.23a.32.32,0,0,1,.11-.24,1.17,1.17,0,0,1,.27-.15l.32-.1.26-.1c.29-.14.57-.26.83-.36a7.75,7.75,0,0,1,.78-.24,5.4,5.4,0,0,1,.82-.15,8.42,8.42,0,0,1,.9-.05,2.08,2.08,0,0,1,.5.07,2.53,2.53,0,0,1,.48.19l.45.24.43.27h0a1,1,0,0,1,.34.1,1.15,1.15,0,0,0,.33.1,2,2,0,0,0,.43.38c.17.12.34.24.51.38a2.94,2.94,0,0,1,.44.42.85.85,0,0,1,.18.53.28.28,0,0,1,0,.09.52.52,0,0,1,0,.11l0-.06a.35.35,0,0,1,.09.11c0,.06.05.12.08.19a1.17,1.17,0,0,1,0,.2c0,.06,0,.11,0,.15a.75.75,0,0,0,.25.25.63.63,0,0,1,.25.26.4.4,0,0,0-.11.3.88.88,0,0,0,.08.39,1.1,1.1,0,0,1,.08.4c0,.15,0,.3,0,.45a3.19,3.19,0,0,0,0,.45.3.3,0,0,1-.13.27,1.64,1.64,0,0,1-.29.16l-.29.14a.22.22,0,0,0-.13.2c0,.07,0,.09-.11.09h-.18a4.46,4.46,0,0,1-1-.12,3.94,3.94,0,0,0-1-.13,7.88,7.88,0,0,0-1.09.07,8,8,0,0,1-1.09.08l-.82,0q-.4,0-.81,0l-.4,0-.62.11a5.44,5.44,0,0,0-.61.15,1.73,1.73,0,0,0-.41.17.76.76,0,0,0,0,.17,2.4,2.4,0,0,0,.32,1.13,4.09,4.09,0,0,0,.85,1.07,5.33,5.33,0,0,0,1.18.8,3,3,0,0,0,1.33.31c.26,0,.51,0,.76,0a2.73,2.73,0,0,1,.75.17,3.72,3.72,0,0,0,.58-.35q.26-.19.51-.42l.48-.46.48-.47a.59.59,0,0,1,.23-.09l.39-.07.41,0a1.49,1.49,0,0,1,.26,0,1.59,1.59,0,0,1,.5.08A2,2,0,0,1,178.75,25.34ZM177,20.58a1,1,0,0,0-.06-.34,3.37,3.37,0,0,1-.1-.34,3.55,3.55,0,0,1-.06-.64,2.27,2.27,0,0,0-.09-.62h0a.24.24,0,0,1-.05.13.15.15,0,0,1-.13.06.54.54,0,0,1-.27-.07.72.72,0,0,1-.22-.17c-.3-.13-.56-.26-.8-.38s-.48-.22-.72-.31a4.22,4.22,0,0,0-.76-.21,5.18,5.18,0,0,0-.93-.07h-.09l-.07,0,.05.13-.09,0-.52.12a1.35,1.35,0,0,0-.37.14,2.35,2.35,0,0,0-.32.23l-.41.35a.82.82,0,0,1-.25.16l-.27.09-.26.09a.43.43,0,0,0-.2.15,3.46,3.46,0,0,1-.24.57,1.08,1.08,0,0,0-.16.58.42.42,0,0,0,.15.31,1.3,1.3,0,0,0,.37.23,4.42,4.42,0,0,0,.51.16,5.17,5.17,0,0,0,.54.11l.5,0,.36,0a4.38,4.38,0,0,0,.88-.09,4.21,4.21,0,0,1,.87-.09c.31,0,.61,0,.92,0s.61,0,.91,0H176a3.78,3.78,0,0,0,.47-.06,1.59,1.59,0,0,0,.4-.16A.29.29,0,0,0,177,20.58Z"/><line class="cls-4" x1="13.73" y1="48.62" x2="182.14" y2="48.62"/><line class="cls-4" x1="12.53" y1="57.64" x2="180.94" y2="57.64"/><line class="cls-4" x1="13.73" y1="66.66" x2="182.14" y2="66.66"/><line class="cls-4" x1="13.73" y1="75.68" x2="182.14" y2="75.68"/></g></g></svg>