<svg xmlns="http://www.w3.org/2000/svg" viewBox="0 0 589.8 322.94"><defs><style>.cls-1{fill:#d8809b;}.cls-1,.cls-2,.cls-3,.cls-4,.cls-5,.cls-6{stroke:#bcbec0;}.cls-1,.cls-2,.cls-3,.cls-4,.cls-5,.cls-6,.cls-7,.cls-8{stroke-miterlimit:10;}.cls-1,.cls-2,.cls-3,.cls-4,.cls-5{stroke-width:13px;}.cls-2{fill:#ec008c;}.cls-3{fill:none;}.cls-4{fill:#88d2d8;}.cls-5,.cls-6{fill:#fff;}.cls-6,.cls-7,.cls-8{stroke-width:5px;}.cls-7{fill:#c49a6c;stroke:#c49a6c;}.cls-8{fill:#754c29;stroke:#754c29;}</style></defs><title>id_header</title><g id="Layer_2" data-name="Layer 2"><g id="Layer_1-2" data-name="Layer 1"><rect class="cls-1" x="6.5" y="6.5" width="576.8" height="309.94" rx="31.2"/><line class="cls-2" x1="6.5" y1="71.37" x2="583.3" y2="71.37"/><line class="cls-3" x1="6.5" y1="133.34" x2="583.3" y2="133.34"/><line class="cls-3" x1="6.5" y1="195.31" x2="583.3" y2="195.31"/><line class="cls-3" x1="6.5" y1="257.28" x2="583.3" y2="257.28"/><rect class="cls-4" x="6.5" y="71.37" width="576.8" height="61.97"/><rect class="cls-5" x="6.5" y="133.34" width="576.8" height="61.97"/><rect class="cls-4" x="6.5" y="198.83" width="576.8" height="61.97"/><rect class="cls-6" x="43.18" y="38.15" width="95.18" height="95.18"/><path class="cls-7" d="M115.07,96.8c0-.3,0-.59,0-.88,0-16.31-11.09-29.53-24.77-29.53S65.55,79.61,65.55,95.92s11.09,29.53,24.77,29.53c12.89,0,23.47-11.73,24.65-26.73A3.68,3.68,0,0,1,115.07,96.8Z"/><path class="cls-8" d="M120.3,91.13a29.36,29.36,0,0,0,4.26-3.35,12.55,12.55,0,0,1-12-7.6c-6.53-13.59-15.63-22.55-20.31-20s-3.18,15.59,3.35,29.18c4,8.38,14.68,6.5,23.35,3.24A3.77,3.77,0,0,1,120.3,91.13Z"/><path class="cls-8" d="M87,63.54C82.51,61.11,74,69.33,67.91,81.9A10.78,10.78,0,0,1,57,88.41a4.07,4.07,0,0,1,.51,1.32,3.38,3.38,0,0,1,2.44,2.06c8.6,3.92,20.25,7.35,24.3-1.07C90.27,78.14,91.52,66,87,63.54Z"/><ellipse class="cls-8" cx="90.15" cy="60.32" rx="9.73" ry="14.28"/></g></g></svg>