<svg id="Layer_1" data-name="Layer 1" xmlns="http://www.w3.org/2000/svg" viewBox="0 0 939.54 258.75"><defs><style>.cls-1{fill:#8dc63f;stroke:#00a651;}.cls-1,.cls-10{stroke-miterlimit:10;}.cls-2{font-size:26px;fill:#fff;font-family:MyriadPro-Regular, Myriad Pro;}.cls-3{letter-spacing:-0.01em;}.cls-4{letter-spacing:-0.01em;}.cls-5{letter-spacing:-0.01em;}.cls-6{letter-spacing:0em;}.cls-7{letter-spacing:0.02em;}.cls-8{letter-spacing:-0.07em;}.cls-9{letter-spacing:-0.01em;}.cls-10{fill:none;stroke:#fff;stroke-width:3px;}.cls-11{letter-spacing:-0.01em;}.cls-12{letter-spacing:0em;}.cls-13{letter-spacing:0em;}.cls-14{letter-spacing:0em;}.cls-15{letter-spacing:0em;}.cls-16{letter-spacing:0em;}.cls-17{letter-spacing:0em;}.cls-18{letter-spacing:0em;}.cls-19{letter-spacing:0.01em;}.cls-20{letter-spacing:0em;}.cls-21{letter-spacing:0.01em;}.cls-22{letter-spacing:0.01em;}.cls-23{letter-spacing:-0.01em;}.cls-24{letter-spacing:0em;}.cls-25{letter-spacing:-0.01em;}.cls-26{letter-spacing:0em;}</style></defs><title>indiana_voting_rules</title><rect class="cls-1" x="0.5" y="0.5" width="418.1" height="54.93"/><text class="cls-2" transform="translate(6.13 39.35)">Displ<tspan class="cls-3" x="54.62" y="0">a</tspan><tspan class="cls-4" x="66.95" y="0">y</tspan><tspan x="79.04" y="0">s the </tspan><tspan class="cls-5" x="136.42" y="0">r</tspan><tspan x="144.66" y="0">eside</tspan><tspan class="cls-6" x="201.76" y="0">n</tspan><tspan class="cls-7" x="216.08" y="0">t</tspan><tspan class="cls-8" x="225.23" y="0">’</tspan><tspan x="228.74" y="0">s pho</tspan><tspan class="cls-9" x="288.05" y="0">t</tspan><tspan x="296.5" y="0">o?</tspan></text><circle class="cls-1" cx="378.84" cy="26.06" r="22.99"/><line class="cls-10" x1="372.21" y1="29.53" x2="376.38" y2="36.6"/><line class="cls-10" x1="376.38" y1="36.6" x2="389.65" y2="15.52"/><rect class="cls-1" x="0.5" y="68.11" width="539.39" height="54.93"/><text class="cls-2" transform="translate(6.13 106.95)">Name <tspan class="cls-4" x="69.86" y="0">c</tspan><tspan x="81.35" y="0">on</tspan><tspan class="cls-11" x="110.06" y="0">f</tspan><tspan x="117.31" y="0">o</tspan><tspan class="cls-12" x="131.58" y="0">r</tspan><tspan x="140.19" y="0">ms </tspan><tspan class="cls-4" x="177.68" y="0">t</tspan><tspan x="186.13" y="0">o the </tspan><tspan class="cls-5" x="247.49" y="0">r</tspan><tspan class="cls-13" x="255.73" y="0">e</tspan><tspan class="cls-9" x="268.76" y="0">g</tspan><tspan x="283.14" y="0">ist</tspan><tspan class="cls-14" x="308.12" y="0">r</tspan><tspan class="cls-15" x="316.5" y="0">a</tspan><tspan x="328.92" y="0">tion </tspan><tspan class="cls-5" x="377.83" y="0">r</tspan><tspan x="386.07" y="0">e</tspan><tspan class="cls-9" x="399.1" y="0">c</tspan><tspan x="410.59" y="0">o</tspan><tspan class="cls-5" x="424.86" y="0">r</tspan><tspan x="433.1" y="0">d?</tspan></text><circle class="cls-1" cx="500.85" cy="95.57" r="22.99"/><line class="cls-10" x1="494.22" y1="99.04" x2="498.38" y2="106.11"/><line class="cls-10" x1="498.38" y1="106.11" x2="511.65" y2="85.03"/><rect class="cls-1" x="0.5" y="135.71" width="938.54" height="54.93"/><text class="cls-2" transform="translate(6.13 174.56)">Has an <tspan class="cls-16" x="77.76" y="0">e</tspan><tspan x="90.71" y="0">xpi</tspan><tspan class="cls-14" x="123.63" y="0">r</tspan><tspan class="cls-6" x="132" y="0">a</tspan><tspan x="144.43" y="0">tion d</tspan><tspan class="cls-6" x="208" y="0">a</tspan><tspan class="cls-4" x="220.42" y="0">t</tspan><tspan x="228.88" y="0">e (and is cu</tspan><tspan class="cls-17" x="349.8" y="0">r</tspan><tspan class="cls-5" x="358.41" y="0">r</tspan><tspan x="366.65" y="0">e</tspan><tspan class="cls-18" x="379.67" y="0">n</tspan><tspan x="394" y="0">tly a</tspan><tspan class="cls-19" x="439.03" y="0">c</tspan><tspan x="451.02" y="0">ti</tspan><tspan class="cls-5" x="465.71" y="0">v</tspan><tspan x="477.95" y="0">e or </tspan><tspan class="cls-20" x="524.78" y="0">e</tspan><tspan x="537.72" y="0">xpi</tspan><tspan class="cls-5" x="570.64" y="0">r</tspan><tspan x="578.88" y="0">ed a</tspan><tspan class="cls-21" x="624.62" y="0">f</tspan><tspan class="cls-9" x="632.49" y="0">t</tspan><tspan x="640.94" y="0">er the last ele</tspan><tspan class="cls-22" x="784.82" y="0">c</tspan><tspan x="796.81" y="0">tion)?</tspan></text><circle class="cls-1" cx="898.31" cy="163.18" r="22.99"/><line class="cls-10" x1="891.67" y1="166.65" x2="895.84" y2="173.71"/><line class="cls-10" x1="895.84" y1="173.71" x2="909.11" y2="152.64"/><rect class="cls-1" x="0.5" y="203.32" width="451.29" height="54.93"/><text class="cls-2" transform="translate(6.13 242.16)">Issued <tspan class="cls-23" x="74.33" y="0">b</tspan><tspan x="88.94" y="0">y the </tspan><tspan class="cls-11" x="148.28" y="0">f</tspan><tspan x="155.53" y="0">ede</tspan><tspan class="cls-24" x="196.25" y="0">r</tspan><tspan x="204.62" y="0">al g</tspan><tspan class="cls-23" x="243.33" y="0">o</tspan><tspan class="cls-25" x="257.42" y="0">v</tspan><tspan x="269.67" y="0">e</tspan><tspan class="cls-26" x="282.69" y="0">r</tspan><tspan x="291.3" y="0">nme</tspan><tspan class="cls-15" x="340.44" y="0">n</tspan><tspan x="354.76" y="0">t?</tspan></text><circle class="cls-1" cx="413.82" cy="230.78" r="22.99"/><line class="cls-10" x1="407.19" y1="234.26" x2="411.36" y2="241.32"/><line class="cls-10" x1="411.36" y1="241.32" x2="424.62" y2="220.25"/></svg>