<svg xmlns="http://www.w3.org/2000/svg" viewBox="0 0 162.97 150.3"><defs><style>.cls-1{fill:#ffcd05;stroke:#f15a29;stroke-miterlimit:10;}.cls-2{fill:#231f20;}</style></defs><title>rec1</title><g id="Layer_2" data-name="Layer 2"><g id="Layer_1-2" data-name="Layer 1"><rect class="cls-1" x="0.5" y="0.5" width="161.97" height="149.3" rx="35.14"/><path class="cls-2" d="M36.06,31.39H29.81l-1.43,4.82H26l6-18.48h2l6,18.48H37.52Zm-5.64-2h5L32.93,21Z"/><path class="cls-2" d="M53.87,30.35a9,9,0,0,1-.48,2.56,5.35,5.35,0,0,1-1.13,1.93,4.84,4.84,0,0,1-1.83,1.21,6.93,6.93,0,0,1-2.52.42,5.54,5.54,0,0,1-2.51-.55,5.2,5.2,0,0,1-1.9-1.56,7.4,7.4,0,0,1-1.22-2.45,11.47,11.47,0,0,1-.42-3.22V25.27a11.52,11.52,0,0,1,.42-3.22,7.32,7.32,0,0,1,1.23-2.45,5.5,5.5,0,0,1,2-1.57,6.08,6.08,0,0,1,2.64-.55,6.49,6.49,0,0,1,2.38.4,4.6,4.6,0,0,1,1.76,1.2A5.52,5.52,0,0,1,53.4,21a9.08,9.08,0,0,1,.47,2.65H51.52a10.07,10.07,0,0,0-.29-1.88,3.58,3.58,0,0,0-.63-1.3,2.38,2.38,0,0,0-1-.76,3.78,3.78,0,0,0-1.46-.25,3.57,3.57,0,0,0-1.75.41,3.5,3.5,0,0,0-1.22,1.17,5.53,5.53,0,0,0-.72,1.81,10.83,10.83,0,0,0-.23,2.37v3.45A12.48,12.48,0,0,0,44.4,31,6.14,6.14,0,0,0,45,32.8,3.35,3.35,0,0,0,46.19,34a3.15,3.15,0,0,0,1.72.45,4.71,4.71,0,0,0,1.61-.24,2.39,2.39,0,0,0,1.07-.73,3.53,3.53,0,0,0,.62-1.29,9.81,9.81,0,0,0,.31-1.88Z"/><path class="cls-2" d="M67.45,19.74H62.59V36.21H60.27V19.74H55.42v-2h12Z"/><path class="cls-2" d="M72.61,36.21H70.28V17.73h2.33Z"/><path class="cls-2" d="M82,32.65l4.23-14.92h2.55L83,36.21H81L75.22,17.73h2.54Z"/><path class="cls-2" d="M100.1,27.67H93.57v6.55h7.61v2H91.24V17.73h9.82v2H93.57v5.94h6.53Z"/><path class="cls-2" d="M122.13,28.6A12.25,12.25,0,0,1,121.7,32a7,7,0,0,1-1.23,2.45,5.12,5.12,0,0,1-2,1.48,6.49,6.49,0,0,1-2.58.5,6.29,6.29,0,0,1-2.54-.5,5.18,5.18,0,0,1-2-1.48A6.86,6.86,0,0,1,110.15,32a11.86,11.86,0,0,1-.45-3.44V25.38a11.83,11.83,0,0,1,.45-3.43,7.08,7.08,0,0,1,1.27-2.48,5.15,5.15,0,0,1,2-1.49,6.16,6.16,0,0,1,2.54-.5,6.25,6.25,0,0,1,2.58.5,5.1,5.1,0,0,1,2,1.49A6.89,6.89,0,0,1,121.7,22a12.23,12.23,0,0,1,.43,3.43Zm-2.32-3.24a11.65,11.65,0,0,0-.26-2.62,5.2,5.2,0,0,0-.75-1.81,3.06,3.06,0,0,0-1.21-1,4.06,4.06,0,0,0-1.68-.33,3.84,3.84,0,0,0-1.62.33,3.08,3.08,0,0,0-1.22,1,5.4,5.4,0,0,0-.79,1.81,11.05,11.05,0,0,0-.27,2.62V28.6a10.6,10.6,0,0,0,.28,2.63,5.35,5.35,0,0,0,.79,1.8,3.13,3.13,0,0,0,1.23,1,3.86,3.86,0,0,0,1.63.33,4,4,0,0,0,1.67-.33,2.94,2.94,0,0,0,1.21-1,5.14,5.14,0,0,0,.74-1.8,12.42,12.42,0,0,0,.25-2.63Z"/><path class="cls-2" d="M131.31,28.74h-3.25v7.47h-2.34V17.73h5.18A5.56,5.56,0,0,1,135,19.14a5.69,5.69,0,0,1,1.39,4.15,5.8,5.8,0,0,1-.75,3,4.81,4.81,0,0,1-2.14,1.92l3.58,7.86v.15h-2.5Zm-3.25-2h2.82a3.31,3.31,0,0,0,1.39-.27,2.87,2.87,0,0,0,1-.74,3,3,0,0,0,.6-1.09,4.24,4.24,0,0,0,.21-1.35,5.43,5.43,0,0,0-.18-1.45,3.15,3.15,0,0,0-.56-1.13,2.48,2.48,0,0,0-1-.72,3.78,3.78,0,0,0-1.46-.25h-2.84Z"/><path class="cls-2" d="M47.49,58.87H41v6.55h7.61v2H38.63V48.93h9.82v2H41v6h6.53Z"/><path class="cls-2" d="M56.74,56l3.47-7.08h2.73L58.13,58.1l4.92,9.31H60.29L56.74,60.2l-3.57,7.21H50.41l4.94-9.31-4.83-9.17h2.71Z"/><path class="cls-2" d="M68.19,60.18v7.23H65.86V48.93h5.89a6.26,6.26,0,0,1,2.37.42,4.73,4.73,0,0,1,1.73,1.17,5.21,5.21,0,0,1,1.07,1.79,6.88,6.88,0,0,1,.36,2.27A7.3,7.3,0,0,1,76.92,57a4.43,4.43,0,0,1-2.8,2.84,6.93,6.93,0,0,1-2.37.38Zm0-2h3.56a3.56,3.56,0,0,0,1.46-.26,2.66,2.66,0,0,0,1-.75A2.94,2.94,0,0,0,74.77,56,5.35,5.35,0,0,0,75,54.6a5.2,5.2,0,0,0-.18-1.37,3.32,3.32,0,0,0-.57-1.18,2.81,2.81,0,0,0-1-.81,3.25,3.25,0,0,0-1.46-.31H68.19Z"/><path class="cls-2" d="M82.7,67.41H80.37V48.93H82.7Z"/><path class="cls-2" d="M92.36,59.94H89.11v7.47H86.77V48.93H92a5.56,5.56,0,0,1,4.12,1.41,5.69,5.69,0,0,1,1.39,4.15,5.8,5.8,0,0,1-.75,3,4.81,4.81,0,0,1-2.14,1.92l3.58,7.86v.15h-2.5Zm-3.25-2h2.82a3.31,3.31,0,0,0,1.39-.27,2.87,2.87,0,0,0,1-.74,3,3,0,0,0,.6-1.09,4.24,4.24,0,0,0,.21-1.35A5.43,5.43,0,0,0,95,53a3.15,3.15,0,0,0-.56-1.13,2.48,2.48,0,0,0-1-.72A3.77,3.77,0,0,0,92,50.93H89.11Z"/><path class="cls-2" d="M109.43,58.87H102.9v6.55h7.61v2h-9.94V48.93h9.82v2H102.9v6h6.53Z"/><path class="cls-2" d="M113.48,67.41V48.93h4.41a7.66,7.66,0,0,1,2.82.49,5.49,5.49,0,0,1,2.14,1.46,6.53,6.53,0,0,1,1.37,2.41,10.24,10.24,0,0,1,.49,3.33v3.13a10.14,10.14,0,0,1-.49,3.32,6.42,6.42,0,0,1-1.38,2.4,5.81,5.81,0,0,1-2.21,1.46,8.55,8.55,0,0,1-3,.48Zm2.33-16.48V65.42h1.86A4.33,4.33,0,0,0,121.28,64a6.78,6.78,0,0,0,1.13-4.24V56.58a6.74,6.74,0,0,0-1.12-4.28,4.16,4.16,0,0,0-3.4-1.37Z"/><path class="cls-2" d="M28.1,93.79H21.86l-1.44,4.82H18l6-18.48h2l6,18.48H29.56Zm-5.63-2h5L25,83.38Z"/><path class="cls-2" d="M43,90.45H36.79v8.16H34.46V80.13h9.63v2h-7.3v6.32H43Z"/><path class="cls-2" d="M58,82.14H53.15V98.61H50.83V82.14H46v-2H58Z"/><path class="cls-2" d="M69.6,90.07H63.06v6.55h7.62v2H60.74V80.13h9.82v2h-7.5v5.94H69.6Z"/><path class="cls-2" d="M79.24,91.14H76v7.47H73.65V80.13h5.18A5.52,5.52,0,0,1,83,81.55a5.65,5.65,0,0,1,1.39,4.14,5.8,5.8,0,0,1-.75,3,4.81,4.81,0,0,1-2.14,1.92L85,98.46v.15h-2.5Zm-3.25-2h2.82a3.31,3.31,0,0,0,1.39-.27,2.87,2.87,0,0,0,1-.74A3,3,0,0,0,81.8,87,4.24,4.24,0,0,0,82,85.69a5.43,5.43,0,0,0-.18-1.45,3.15,3.15,0,0,0-.56-1.13,2.48,2.48,0,0,0-1-.72,3.78,3.78,0,0,0-1.46-.25H76Z"/><path class="cls-2" d="M95.74,96.62H103v2H93.41V80.13h2.33Z"/><path class="cls-2" d="M114.62,93.79h-6.25l-1.43,4.82h-2.39l6-18.48h2l6,18.48h-2.39Zm-5.64-2h5l-2.52-8.4Z"/><path class="cls-2" d="M129.06,93.94a3.94,3.94,0,0,0-.15-1.14,2.32,2.32,0,0,0-.54-.91,4.28,4.28,0,0,0-1.07-.77,14,14,0,0,0-1.74-.75,14.16,14.16,0,0,1-2.07-.89,7.09,7.09,0,0,1-1.58-1.16,4.73,4.73,0,0,1-1-1.49,5,5,0,0,1-.35-1.91,5.23,5.23,0,0,1,.37-2,4.71,4.71,0,0,1,2.75-2.66,5.85,5.85,0,0,1,2.19-.38,5.62,5.62,0,0,1,2.38.47A5.15,5.15,0,0,1,130,81.59,5.38,5.38,0,0,1,131,83.38a6.46,6.46,0,0,1,.35,2.09h-2.33a5.43,5.43,0,0,0-.19-1.43,2.93,2.93,0,0,0-.58-1.14,2.66,2.66,0,0,0-1-.75,4,4,0,0,0-2.78,0,2.42,2.42,0,0,0-1.45,1.57,3.87,3.87,0,0,0-.17,1.2,2.55,2.55,0,0,0,.84,2,7.18,7.18,0,0,0,2.59,1.41,15,15,0,0,1,2.31,1,6.32,6.32,0,0,1,1.58,1.23,4.37,4.37,0,0,1,.9,1.54,6,6,0,0,1,.28,1.93,5.15,5.15,0,0,1-.38,2,4.29,4.29,0,0,1-1.08,1.56,4.83,4.83,0,0,1-1.71,1,6.92,6.92,0,0,1-2.26.35,6.6,6.6,0,0,1-2.15-.36,5.66,5.66,0,0,1-1.89-1.06,5.17,5.17,0,0,1-1.35-1.76,5.5,5.5,0,0,1-.51-2.43h2.33a4.44,4.44,0,0,0,.28,1.63,3,3,0,0,0,.77,1.12,2.88,2.88,0,0,0,1.14.65,4.43,4.43,0,0,0,1.38.21,3.13,3.13,0,0,0,2.31-.78A2.93,2.93,0,0,0,129.06,93.94Z"/><path class="cls-2" d="M145.25,82.14h-4.86V98.61h-2.32V82.14h-4.85v-2h12Z"/><path class="cls-2" d="M34.71,121.27H28.17v6.55h7.62v2H25.85V111.33h9.81v2H28.17v5.94h6.54Z"/><path class="cls-2" d="M41.1,127.82h7.24v2H38.76V111.33H41.1Z"/><path class="cls-2" d="M60,121.27H53.44v6.55h7.61v2H51.11V111.33h9.82v2H53.44v5.94H60Z"/><path class="cls-2" d="M75.61,124a9.33,9.33,0,0,1-.47,2.56A5.52,5.52,0,0,1,74,128.44a4.81,4.81,0,0,1-1.82,1.21,6.93,6.93,0,0,1-2.52.42,5.54,5.54,0,0,1-2.51-.55A5.31,5.31,0,0,1,65.24,128,7.39,7.39,0,0,1,64,125.51a11.46,11.46,0,0,1-.43-3.22v-3.42a11.51,11.51,0,0,1,.43-3.22,7,7,0,0,1,1.23-2.45,5.56,5.56,0,0,1,2-1.57,6.1,6.1,0,0,1,2.65-.55,6.53,6.53,0,0,1,2.38.4,4.57,4.57,0,0,1,1.75,1.2,5.37,5.37,0,0,1,1.13,1.94,9.08,9.08,0,0,1,.47,2.65H73.27a10,10,0,0,0-.3-1.88,3.58,3.58,0,0,0-.62-1.3,2.44,2.44,0,0,0-1-.76,3.81,3.81,0,0,0-1.46-.25,3.3,3.3,0,0,0-3,1.58,5.31,5.31,0,0,0-.71,1.81,10.83,10.83,0,0,0-.24,2.38v3.44a12.45,12.45,0,0,0,.2,2.27,6.14,6.14,0,0,0,.63,1.84,3.53,3.53,0,0,0,1.15,1.24,3.18,3.18,0,0,0,1.73.45,4.75,4.75,0,0,0,1.61-.24,2.35,2.35,0,0,0,1.06-.73,3.38,3.38,0,0,0,.63-1.29,10.66,10.66,0,0,0,.31-1.88Z"/><path class="cls-2" d="M89.2,113.34H84.34v16.47H82V113.34H77.16v-2h12Z"/><path class="cls-2" d="M94.35,129.81H92V111.33h2.32Z"/><path class="cls-2" d="M110.45,122.2a12.2,12.2,0,0,1-.43,3.44,7,7,0,0,1-1.23,2.45,5.12,5.12,0,0,1-2,1.48,6.5,6.5,0,0,1-2.59.5,6.28,6.28,0,0,1-2.53-.5,5.18,5.18,0,0,1-2-1.48,6.86,6.86,0,0,1-1.28-2.45A11.81,11.81,0,0,1,98,122.2V119a11.83,11.83,0,0,1,.45-3.43,7.1,7.1,0,0,1,1.26-2.47,5.18,5.18,0,0,1,2-1.5,6.16,6.16,0,0,1,2.54-.5,6.25,6.25,0,0,1,2.58.5,5,5,0,0,1,2,1.5,6.76,6.76,0,0,1,1.25,2.47,12.23,12.23,0,0,1,.43,3.43ZM108.13,119a11.65,11.65,0,0,0-.26-2.62,5.28,5.28,0,0,0-.75-1.81,3,3,0,0,0-1.22-1,4,4,0,0,0-1.67-.33,3.84,3.84,0,0,0-1.62.33,3.08,3.08,0,0,0-1.22,1,5.5,5.5,0,0,0-.79,1.81,11.05,11.05,0,0,0-.27,2.62v3.24a10.6,10.6,0,0,0,.28,2.63,5.35,5.35,0,0,0,.79,1.8,3.13,3.13,0,0,0,1.23,1,3.84,3.84,0,0,0,1.62.33,4,4,0,0,0,1.68-.33,2.94,2.94,0,0,0,1.21-1,5.14,5.14,0,0,0,.74-1.8,12.42,12.42,0,0,0,.25-2.63Z"/><path class="cls-2" d="M126.12,129.81h-2.34l-7.4-14.24v14.24H114V111.33h2.34l7.43,14.31V111.33h2.31Z"/><path class="cls-2" d="M132.13,124.61a11.34,11.34,0,0,1,.1-1.56,5.64,5.64,0,0,1,.32-1.18,5.89,5.89,0,0,1,.57-1c.24-.33.53-.71.88-1.12l.66-.85a7.52,7.52,0,0,0,.57-.82,4.46,4.46,0,0,0,.39-.92,3.61,3.61,0,0,0,.16-1.14,3.53,3.53,0,0,0-.55-2.09,1.84,1.84,0,0,0-1.59-.76,2.22,2.22,0,0,0-.8.15,2.09,2.09,0,0,0-.73.46,2.36,2.36,0,0,0-.52.78,3,3,0,0,0-.19,1.14h-2.24a5.31,5.31,0,0,1,.36-1.93,4.14,4.14,0,0,1,.94-1.44,4,4,0,0,1,1.42-.9,4.83,4.83,0,0,1,1.76-.31,4.9,4.9,0,0,1,1.86.33,3.88,3.88,0,0,1,1.38,1,4.17,4.17,0,0,1,.85,1.52,6.27,6.27,0,0,1,.29,2,5.27,5.27,0,0,1-.24,1.61,7.31,7.31,0,0,1-.63,1.43,10.36,10.36,0,0,1-.88,1.28c-.33.4-.66.8-1,1.18a3.36,3.36,0,0,0-.73,1.46,8,8,0,0,0-.18,1.75Zm0,4a1.48,1.48,0,0,1,.31-.95,1.16,1.16,0,0,1,1-.39,1.19,1.19,0,0,1,1,.39,1.57,1.57,0,0,1,0,1.9,1.21,1.21,0,0,1-1,.37,1.18,1.18,0,0,1-1-.37A1.48,1.48,0,0,1,132.08,128.63Z"/></g></g></svg>