<svg xmlns="http://www.w3.org/2000/svg" viewBox="0 0 158.53 144.62"><defs><style>.cls-1{fill:#ffcd05;stroke:#f15a29;stroke-miterlimit:10;}.cls-2{fill:#231f20;}</style></defs><title>rec2</title><g id="Layer_2" data-name="Layer 2"><g id="Layer_1-2" data-name="Layer 1"><rect class="cls-1" x="0.5" y="0.5" width="157.53" height="143.62" rx="35.14"/><path class="cls-2" d="M32,33.36H29.64l-7.4-14.25V33.36H19.9V14.87h2.34l7.42,14.31V14.87H32Z"/><path class="cls-2" d="M44.85,28.53H38.6l-1.43,4.83H34.78l5.95-18.49h2l6,18.49H46.31Zm-5.64-2h5l-2.53-8.41Z"/><path class="cls-2" d="M54.2,14.87,59,30l4.82-15.09h3V33.36H64.52v-7.2L64.74,19,59.9,33.36H58.13L53.31,19l.22,7.16v7.2H51.21V14.87Z"/><path class="cls-2" d="M79.71,24.81H73.17v6.56h7.62v2H70.85V14.87h9.81v2H73.17v5.94h6.54Z"/><path class="cls-2" d="M101.3,27.49a9.41,9.41,0,0,1-.47,2.57A5.57,5.57,0,0,1,99.69,32a4.81,4.81,0,0,1-1.82,1.21,7,7,0,0,1-2.52.42,5.75,5.75,0,0,1-2.52-.54,5.41,5.41,0,0,1-1.9-1.57,7.3,7.3,0,0,1-1.21-2.45,11.06,11.06,0,0,1-.43-3.22V22.41a11.08,11.08,0,0,1,.43-3.21A7.11,7.11,0,0,1,91,16.74a5.47,5.47,0,0,1,2-1.57,6.08,6.08,0,0,1,2.64-.55,6.48,6.48,0,0,1,2.38.41,4.58,4.58,0,0,1,1.76,1.19,5.52,5.52,0,0,1,1.13,1.94,9.15,9.15,0,0,1,.47,2.66H99a9.19,9.19,0,0,0-.29-1.88,3.5,3.5,0,0,0-.62-1.3,2.43,2.43,0,0,0-1-.77,4,4,0,0,0-1.46-.24,3.48,3.48,0,0,0-1.75.41,3.38,3.38,0,0,0-1.22,1.16A5.37,5.37,0,0,0,91.88,20a10.8,10.8,0,0,0-.24,2.37v3.44a12.45,12.45,0,0,0,.2,2.27,6,6,0,0,0,.63,1.84,3.44,3.44,0,0,0,1.15,1.24,3.18,3.18,0,0,0,1.73.45A4.92,4.92,0,0,0,97,31.4,2.43,2.43,0,0,0,98,30.66a3.27,3.27,0,0,0,.63-1.28,10.71,10.71,0,0,0,.3-1.89Z"/><path class="cls-2" d="M116.47,25.74a12.2,12.2,0,0,1-.43,3.44,7.1,7.1,0,0,1-1.23,2.46,5.07,5.07,0,0,1-2,1.48,6.45,6.45,0,0,1-2.58.49,6.32,6.32,0,0,1-2.54-.49,5.37,5.37,0,0,1-2-1.48,7.16,7.16,0,0,1-1.28-2.46,11.81,11.81,0,0,1-.45-3.44V22.53a11.79,11.79,0,0,1,.45-3.43,7.33,7.33,0,0,1,1.27-2.48,5.17,5.17,0,0,1,1.95-1.5,6.36,6.36,0,0,1,2.54-.5,6.5,6.5,0,0,1,2.59.5,5.2,5.2,0,0,1,2,1.5A7,7,0,0,1,116,19.1a12.18,12.18,0,0,1,.43,3.43Zm-2.32-3.24a12.39,12.39,0,0,0-.25-2.62,5.14,5.14,0,0,0-.75-1.8,3,3,0,0,0-1.22-1,4,4,0,0,0-1.68-.33,3.84,3.84,0,0,0-1.62.33,3.17,3.17,0,0,0-1.22,1,5.15,5.15,0,0,0-.78,1.8,11.07,11.07,0,0,0-.28,2.62v3.24a11.25,11.25,0,0,0,.28,2.64,5.35,5.35,0,0,0,.79,1.8,3.1,3.1,0,0,0,1.23,1,3.92,3.92,0,0,0,1.63.33,4,4,0,0,0,1.67-.33,2.94,2.94,0,0,0,1.22-1,5.13,5.13,0,0,0,.73-1.8,12,12,0,0,0,.25-2.64Z"/><path class="cls-2" d="M132.14,33.36H129.8l-7.4-14.25V33.36h-2.33V14.87h2.33l7.43,14.31V14.87h2.31Z"/><path class="cls-2" d="M140,26.46h-5.24V24.55H140Z"/><path class="cls-2" d="M35.2,56.39H29v8.17H26.63V46.07h9.62v2H29V54.4H35.2Z"/><path class="cls-2" d="M51.14,56.94a12.2,12.2,0,0,1-.43,3.44,7.1,7.1,0,0,1-1.23,2.46,5.07,5.07,0,0,1-1.95,1.48,6.49,6.49,0,0,1-2.58.49,6.32,6.32,0,0,1-2.54-.49,5.37,5.37,0,0,1-2-1.48,7,7,0,0,1-1.28-2.46,11.81,11.81,0,0,1-.45-3.44V53.73a11.91,11.91,0,0,1,.45-3.44,7.2,7.2,0,0,1,1.27-2.47,5.17,5.17,0,0,1,2-1.5,6.33,6.33,0,0,1,2.54-.5,6.5,6.5,0,0,1,2.59.5,5.28,5.28,0,0,1,2,1.5,7,7,0,0,1,1.24,2.47,12.3,12.3,0,0,1,.43,3.44ZM48.82,53.7a11.71,11.71,0,0,0-.26-2.62,5,5,0,0,0-.74-1.8,3,3,0,0,0-1.22-1,4,4,0,0,0-1.68-.33,3.84,3.84,0,0,0-1.62.33,3.1,3.1,0,0,0-1.22,1,5.15,5.15,0,0,0-.78,1.8A10.57,10.57,0,0,0,41,53.7v3.24a11.18,11.18,0,0,0,.28,2.64,5.35,5.35,0,0,0,.79,1.8,3.1,3.1,0,0,0,1.23,1,3.89,3.89,0,0,0,1.63.33,4,4,0,0,0,1.67-.33,3,3,0,0,0,1.22-1,5.13,5.13,0,0,0,.73-1.8,11.89,11.89,0,0,0,.25-2.64Z"/><path class="cls-2" d="M60.32,57.08H57.07v7.48H54.73V46.07h5.18A5.55,5.55,0,0,1,64,47.49a5.65,5.65,0,0,1,1.39,4.14,5.77,5.77,0,0,1-.75,3,4.78,4.78,0,0,1-2.14,1.93l3.58,7.86v.15h-2.5Zm-3.25-2h2.82a3.24,3.24,0,0,0,1.4-.28,2.81,2.81,0,0,0,1-.73A3.23,3.23,0,0,0,62.89,53a4.56,4.56,0,0,0,.2-1.36,5.48,5.48,0,0,0-.18-1.45,2.88,2.88,0,0,0-.56-1.12,2.41,2.41,0,0,0-1-.73,3.75,3.75,0,0,0-1.46-.25H57.07Z"/><path class="cls-2" d="M71.53,46.07l4.82,15.09,4.83-15.09h3V64.56H81.85v-7.2l.22-7.21L77.23,64.56H75.45L70.64,50.2l.22,7.16v7.2H68.53V46.07Z"/><path class="cls-2" d="M96.25,59.89a4,4,0,0,0-.15-1.15,2,2,0,0,0-.54-.9,4.16,4.16,0,0,0-1.06-.78,12.77,12.77,0,0,0-1.74-.74,13.16,13.16,0,0,1-2.07-.9,6.63,6.63,0,0,1-1.58-1.15,4.68,4.68,0,0,1-1-1.49,4.83,4.83,0,0,1-.36-1.92,5.24,5.24,0,0,1,.38-2,4.71,4.71,0,0,1,1.06-1.6,4.82,4.82,0,0,1,1.68-1.06,6.14,6.14,0,0,1,2.19-.38,5.74,5.74,0,0,1,2.38.47,5.09,5.09,0,0,1,2.8,3,6.26,6.26,0,0,1,.35,2.1H96.25A5.07,5.07,0,0,0,96.06,50a3.06,3.06,0,0,0-.57-1.14,2.78,2.78,0,0,0-1-.75,4.12,4.12,0,0,0-2.77,0,2.59,2.59,0,0,0-.92.63,2.48,2.48,0,0,0-.54,1,4.07,4.07,0,0,0-.17,1.19,2.59,2.59,0,0,0,.84,2,7.59,7.59,0,0,0,2.59,1.41,12.63,12.63,0,0,1,2.31,1,6.3,6.3,0,0,1,1.58,1.22,4.37,4.37,0,0,1,.9,1.54,6.07,6.07,0,0,1,.29,1.93,5.3,5.3,0,0,1-.38,2,4.57,4.57,0,0,1-1.09,1.57,4.81,4.81,0,0,1-1.71,1,6.66,6.66,0,0,1-2.26.35A7,7,0,0,1,91,64.46a5.76,5.76,0,0,1-1.89-1.06,5.3,5.3,0,0,1-1.86-4.2H89.6a4.18,4.18,0,0,0,.28,1.63A3.13,3.13,0,0,0,90.64,62a3.23,3.23,0,0,0,1.14.65,4.43,4.43,0,0,0,1.38.21A3.07,3.07,0,0,0,95.47,62,2.9,2.9,0,0,0,96.25,59.89Z"/><path class="cls-2" d="M117.89,48.08H113V64.56h-2.32V48.08h-4.85v-2h12Z"/><path class="cls-2" d="M132.29,56.94a12.2,12.2,0,0,1-.43,3.44,7.1,7.1,0,0,1-1.23,2.46,5.22,5.22,0,0,1-1.95,1.48,6.49,6.49,0,0,1-2.58.49,6.29,6.29,0,0,1-2.54-.49,5.29,5.29,0,0,1-2-1.48,7,7,0,0,1-1.28-2.46,11.81,11.81,0,0,1-.45-3.44V53.73a11.91,11.91,0,0,1,.45-3.44,7,7,0,0,1,1.27-2.47,5.17,5.17,0,0,1,2-1.5,6.33,6.33,0,0,1,2.54-.5,6.42,6.42,0,0,1,2.58.5,5.13,5.13,0,0,1,2,1.5,6.84,6.84,0,0,1,1.25,2.47,12.3,12.3,0,0,1,.43,3.44ZM130,53.7a11.71,11.71,0,0,0-.26-2.62,5.14,5.14,0,0,0-.75-1.8,3,3,0,0,0-1.21-1,4.06,4.06,0,0,0-1.68-.33,3.84,3.84,0,0,0-1.62.33,3,3,0,0,0-1.22,1,5.35,5.35,0,0,0-.79,1.8,11.11,11.11,0,0,0-.27,2.62v3.24a11.18,11.18,0,0,0,.28,2.64,5.35,5.35,0,0,0,.79,1.8,3.1,3.1,0,0,0,1.23,1,3.86,3.86,0,0,0,1.63.33,4,4,0,0,0,1.67-.33,2.92,2.92,0,0,0,1.21-1,5.14,5.14,0,0,0,.74-1.8,12.52,12.52,0,0,0,.25-2.64Z"/><path class="cls-2" d="M42.68,87.6H36.43v8.16H34.11V77.27h9.62v2h-7.3V85.6h6.25Z"/><path class="cls-2" d="M55.47,87.21H48.93v6.55h7.61v2H46.6V77.27h9.82v2H48.93v5.94h6.54Z"/><path class="cls-2" d="M59.52,95.76V77.27h4.4a7.87,7.87,0,0,1,2.82.49,5.6,5.6,0,0,1,2.14,1.46,6.65,6.65,0,0,1,1.38,2.42A10.53,10.53,0,0,1,70.74,85v3.12a10.53,10.53,0,0,1-.48,3.33,6.74,6.74,0,0,1-1.39,2.4,5.79,5.79,0,0,1-2.21,1.45,8.28,8.28,0,0,1-3,.49Zm2.32-16.48V93.76H63.7a4.3,4.3,0,0,0,3.61-1.43,6.78,6.78,0,0,0,1.13-4.24V84.93a6.76,6.76,0,0,0-1.12-4.29,4.16,4.16,0,0,0-3.4-1.36Z"/><path class="cls-2" d="M83.22,87.21H76.68v6.55H84.3v2H74.36V77.27h9.81v2H76.68v5.94h6.54Z"/><path class="cls-2" d="M92.85,88.28H89.6v7.48H87.27V77.27h5.18a5.54,5.54,0,0,1,4.11,1.42A5.65,5.65,0,0,1,98,82.83a5.78,5.78,0,0,1-.76,3,4.78,4.78,0,0,1-2.14,1.93l3.58,7.86v.15h-2.5Zm-3.25-2h2.82a3.24,3.24,0,0,0,1.4-.28,2.72,2.72,0,0,0,1-.73,3.14,3.14,0,0,0,.61-1.09,4.56,4.56,0,0,0,.2-1.36,5.48,5.48,0,0,0-.18-1.45,2.88,2.88,0,0,0-.56-1.12,2.41,2.41,0,0,0-1-.73,3.73,3.73,0,0,0-1.45-.25H89.6Z"/><path class="cls-2" d="M109.69,90.93h-6.25L102,95.76H99.62l5.95-18.49h2l6,18.49h-2.38Zm-5.64-2h5l-2.53-8.41Z"/><path class="cls-2" d="M118.38,93.76h7.25v2h-9.58V77.27h2.33Z"/><path class="cls-2" d="M38.5,119.48H35.25V127H32.92V108.47H38.1a5.54,5.54,0,0,1,4.11,1.42,6.58,6.58,0,0,1,.64,7.13A4.73,4.73,0,0,1,40.71,119l3.58,7.86V127h-2.5Zm-3.25-2h2.82a3.21,3.21,0,0,0,1.4-.28,2.85,2.85,0,0,0,1-.73,3.29,3.29,0,0,0,.6-1.09,4.56,4.56,0,0,0,.2-1.36,5.48,5.48,0,0,0-.18-1.45,2.87,2.87,0,0,0-.55-1.12,2.51,2.51,0,0,0-1-.73,3.69,3.69,0,0,0-1.45-.25H35.25Z"/><path class="cls-2" d="M55.58,118.41H49V125h7.62v2H46.72V108.47h9.81v2H49v5.94h6.54Z"/><path class="cls-2" d="M71.22,121.09a9,9,0,0,1-.48,2.57,5.4,5.4,0,0,1-1.13,1.92,4.81,4.81,0,0,1-1.82,1.21,7,7,0,0,1-2.52.42,5.75,5.75,0,0,1-2.52-.54,5.41,5.41,0,0,1-1.9-1.57,7.11,7.11,0,0,1-1.21-2.45,11.06,11.06,0,0,1-.43-3.22V116a11.08,11.08,0,0,1,.43-3.21,7.11,7.11,0,0,1,1.23-2.46,5.39,5.39,0,0,1,2-1.57,6.08,6.08,0,0,1,2.64-.55,6.48,6.48,0,0,1,2.38.41,4.69,4.69,0,0,1,1.76,1.19,5.52,5.52,0,0,1,1.13,1.94,9.15,9.15,0,0,1,.47,2.66H68.87a9.94,9.94,0,0,0-.29-1.88,3.5,3.5,0,0,0-.62-1.3,2.43,2.43,0,0,0-1-.77,4,4,0,0,0-1.46-.24,3.48,3.48,0,0,0-1.75.41,3.38,3.38,0,0,0-1.22,1.16,5.58,5.58,0,0,0-.72,1.82,11.48,11.48,0,0,0-.23,2.37v3.44a11.62,11.62,0,0,0,.2,2.27,6,6,0,0,0,.63,1.84,3.36,3.36,0,0,0,1.15,1.24,3.16,3.16,0,0,0,1.73.45,4.92,4.92,0,0,0,1.6-.23,2.4,2.4,0,0,0,1.07-.74,3.56,3.56,0,0,0,.63-1.28,10.71,10.71,0,0,0,.3-1.89Z"/><path class="cls-2" d="M86.39,119.34a12.2,12.2,0,0,1-.43,3.44,7.1,7.1,0,0,1-1.23,2.46,5.14,5.14,0,0,1-2,1.48,6.49,6.49,0,0,1-2.58.49,6.32,6.32,0,0,1-2.54-.49,5.29,5.29,0,0,1-2-1.48,7,7,0,0,1-1.28-2.46,11.81,11.81,0,0,1-.45-3.44v-3.21a11.91,11.91,0,0,1,.45-3.44,7,7,0,0,1,1.27-2.47,5.17,5.17,0,0,1,1.95-1.5,6.33,6.33,0,0,1,2.54-.5,6.42,6.42,0,0,1,2.58.5,5.24,5.24,0,0,1,2,1.5A7,7,0,0,1,86,112.69a12.3,12.3,0,0,1,.43,3.44Zm-2.32-3.24a11.71,11.71,0,0,0-.26-2.62,5.14,5.14,0,0,0-.75-1.8,3,3,0,0,0-1.21-1,4.19,4.19,0,0,0-1.68-.33,4,4,0,0,0-1.62.33,3.1,3.1,0,0,0-1.22,1,5.15,5.15,0,0,0-.78,1.8,10.57,10.57,0,0,0-.28,2.62v3.24a11.18,11.18,0,0,0,.28,2.64,5.35,5.35,0,0,0,.79,1.8,3.1,3.1,0,0,0,1.23,1,3.89,3.89,0,0,0,1.63.33,4,4,0,0,0,1.67-.33,2.92,2.92,0,0,0,1.21-1,5.14,5.14,0,0,0,.74-1.8,12.52,12.52,0,0,0,.25-2.64Z"/><path class="cls-2" d="M95.57,119.48H92.32V127H90V108.47h5.18a5.55,5.55,0,0,1,4.12,1.42,5.66,5.66,0,0,1,1.39,4.14,5.77,5.77,0,0,1-.75,3A4.83,4.83,0,0,1,97.78,119l3.58,7.86V127h-2.5Zm-3.25-2h2.82a3.16,3.16,0,0,0,1.39-.28,2.85,2.85,0,0,0,1-.73,3,3,0,0,0,.6-1.09,4.26,4.26,0,0,0,.21-1.36,5.48,5.48,0,0,0-.18-1.45,3,3,0,0,0-.56-1.12,2.41,2.41,0,0,0-1-.73,3.75,3.75,0,0,0-1.46-.25H92.32Z"/><path class="cls-2" d="M103.78,127V108.47h4.41A7.87,7.87,0,0,1,111,109a5.6,5.6,0,0,1,2.14,1.46,6.49,6.49,0,0,1,1.37,2.42,10.24,10.24,0,0,1,.49,3.33v3.12a10.24,10.24,0,0,1-.49,3.33,6.58,6.58,0,0,1-1.38,2.4,5.79,5.79,0,0,1-2.21,1.45,8.32,8.32,0,0,1-3,.49Zm2.33-16.48V125H108a4.31,4.31,0,0,0,3.61-1.44,6.78,6.78,0,0,0,1.13-4.24v-3.16a6.71,6.71,0,0,0-1.12-4.28,4.13,4.13,0,0,0-3.4-1.37Z"/><path class="cls-2" d="M120.62,121.75a10,10,0,0,1,.1-1.56A5.23,5.23,0,0,1,121,119a4.77,4.77,0,0,1,.57-1c.24-.34.53-.71.87-1.13l.66-.84a6.44,6.44,0,0,0,.57-.83,4.49,4.49,0,0,0,.4-.92,3.94,3.94,0,0,0,.15-1.14,3.48,3.48,0,0,0-.55-2.09,1.85,1.85,0,0,0-1.58-.75,2.56,2.56,0,0,0-.81.14,2.06,2.06,0,0,0-.72.46,2.22,2.22,0,0,0-.52.79,2.93,2.93,0,0,0-.2,1.13h-2.23a5.31,5.31,0,0,1,.35-1.93,4.35,4.35,0,0,1,1-1.44,4.15,4.15,0,0,1,1.41-.9,4.88,4.88,0,0,1,1.77-.31,4.69,4.69,0,0,1,1.85.34,3.73,3.73,0,0,1,1.38,1,4.27,4.27,0,0,1,.86,1.52,6.62,6.62,0,0,1,.29,2,5.29,5.29,0,0,1-.24,1.62,7.62,7.62,0,0,1-.64,1.43,9.37,9.37,0,0,1-.88,1.28c-.33.4-.65.79-1,1.17A3.31,3.31,0,0,0,123,120a7.51,7.51,0,0,0-.19,1.75Zm-.05,4a1.48,1.48,0,0,1,.31-1,1.15,1.15,0,0,1,1-.39,1.19,1.19,0,0,1,1,.39,1.48,1.48,0,0,1,.32,1,1.41,1.41,0,0,1-.32.94,1.21,1.21,0,0,1-1,.38,1.17,1.17,0,0,1-1-.38A1.4,1.4,0,0,1,120.57,125.78Z"/></g></g></svg>