<svg xmlns="http://www.w3.org/2000/svg" viewBox="0 0 158.53 144.62"><defs><style>.cls-1{fill:#ffcd05;stroke:#f15a29;stroke-miterlimit:10;}.cls-2{fill:#231f20;}</style></defs><title>rec3</title><g id="Layer_2" data-name="Layer 2"><g id="Layer_1-2" data-name="Layer 1"><rect class="cls-1" x="0.5" y="0.5" width="157.53" height="143.62" rx="35.14"/><path class="cls-2" d="M27.33,35.52H24.91V16.32h2.42Z"/><path class="cls-2" d="M39.94,30.67a4.25,4.25,0,0,0-.15-1.19,2.29,2.29,0,0,0-.56-.94,4.19,4.19,0,0,0-1.11-.81,12.55,12.55,0,0,0-1.8-.77A13.76,13.76,0,0,1,34.17,26a7.16,7.16,0,0,1-1.64-1.2,4.63,4.63,0,0,1-1.05-1.55,5,5,0,0,1-.37-2,5.37,5.37,0,0,1,.39-2.07,4.88,4.88,0,0,1,1.11-1.67,5,5,0,0,1,1.74-1.1,6.29,6.29,0,0,1,2.27-.39,5.82,5.82,0,0,1,2.47.49A5.29,5.29,0,0,1,42,19.7a6.64,6.64,0,0,1,.37,2.17H39.94a5.48,5.48,0,0,0-.19-1.49,3.29,3.29,0,0,0-.6-1.18,2.66,2.66,0,0,0-1-.78,3.62,3.62,0,0,0-1.5-.28,3.55,3.55,0,0,0-1.38.24,2.55,2.55,0,0,0-1,.65,2.7,2.7,0,0,0-.55,1,4.08,4.08,0,0,0-.18,1.24,2.66,2.66,0,0,0,.87,2,7.56,7.56,0,0,0,2.69,1.47,12.92,12.92,0,0,1,2.4,1A6.37,6.37,0,0,1,41.15,27a4.45,4.45,0,0,1,.93,1.6,6.14,6.14,0,0,1,.3,2A5.52,5.52,0,0,1,42,32.76a4.64,4.64,0,0,1-1.13,1.62,5,5,0,0,1-1.77,1,7.2,7.2,0,0,1-2.35.36,6.92,6.92,0,0,1-2.24-.37,5.83,5.83,0,0,1-2-1.1,5.58,5.58,0,0,1-1.4-1.83A5.75,5.75,0,0,1,30.61,30H33a4.54,4.54,0,0,0,.29,1.7,3.16,3.16,0,0,0,.8,1.16,3.1,3.1,0,0,0,1.18.68,4.52,4.52,0,0,0,1.44.22,3.22,3.22,0,0,0,2.4-.82A3,3,0,0,0,39.94,30.67Z"/><path class="cls-2" d="M53.93,30.67a4.25,4.25,0,0,0-.15-1.19,2.29,2.29,0,0,0-.56-.94,4.19,4.19,0,0,0-1.11-.81,13.63,13.63,0,0,0-1.8-.77A13.36,13.36,0,0,1,48.16,26a7,7,0,0,1-1.64-1.2,4.63,4.63,0,0,1-1.05-1.55,5,5,0,0,1-.37-2,5.37,5.37,0,0,1,.39-2.07,4.86,4.86,0,0,1,1.1-1.67,5.17,5.17,0,0,1,1.74-1.1,6.38,6.38,0,0,1,2.28-.39,5.86,5.86,0,0,1,2.47.49,5.32,5.32,0,0,1,1.81,1.29A5.43,5.43,0,0,1,56,19.7a6.64,6.64,0,0,1,.37,2.17H53.93a5.48,5.48,0,0,0-.19-1.49,3.29,3.29,0,0,0-.6-1.18,2.62,2.62,0,0,0-1-.78,3.54,3.54,0,0,0-1.49-.28,3.64,3.64,0,0,0-1.39.24,2.59,2.59,0,0,0-.95.65,2.73,2.73,0,0,0-.56,1,4.42,4.42,0,0,0-.17,1.24,2.66,2.66,0,0,0,.87,2,7.56,7.56,0,0,0,2.69,1.47,12.92,12.92,0,0,1,2.4,1A6.55,6.55,0,0,1,55.14,27a4.45,4.45,0,0,1,.93,1.6,6.14,6.14,0,0,1,.3,2,5.34,5.34,0,0,1-.4,2.12,4.62,4.62,0,0,1-1.12,1.62,5,5,0,0,1-1.78,1,7.1,7.1,0,0,1-2.34.36,6.92,6.92,0,0,1-2.24-.37,5.74,5.74,0,0,1-2-1.1A5.52,5.52,0,0,1,44.6,30H47a4.54,4.54,0,0,0,.29,1.7,3.16,3.16,0,0,0,.8,1.16,3.1,3.1,0,0,0,1.18.68,4.52,4.52,0,0,0,1.44.22,3.22,3.22,0,0,0,2.4-.82A3,3,0,0,0,53.93,30.67Z"/><path class="cls-2" d="M71,16.32V29.85a7,7,0,0,1-.49,2.75,5.22,5.22,0,0,1-1.3,1.84,5.1,5.1,0,0,1-1.89,1,7.54,7.54,0,0,1-2.24.32,7.89,7.89,0,0,1-2.32-.32,4.83,4.83,0,0,1-1.86-1,5,5,0,0,1-1.25-1.84,7.43,7.43,0,0,1-.45-2.75V16.32h2.4V29.85a5.77,5.77,0,0,0,.25,1.86,2.93,2.93,0,0,0,.7,1.2,2.52,2.52,0,0,0,1.1.63,5.23,5.23,0,0,0,1.43.18,5.41,5.41,0,0,0,1.44-.18,2.52,2.52,0,0,0,1.1-.63,3,3,0,0,0,.7-1.2,5.77,5.77,0,0,0,.25-1.86V16.32Z"/><path class="cls-2" d="M83.9,26.64H77.11v6.81H85v2.07H74.7V16.32H84.89V18.4H77.11v6.17H83.9Z"/><path class="cls-2" d="M88.1,35.52V16.32h4.58a8,8,0,0,1,2.92.51,5.76,5.76,0,0,1,2.23,1.52,6.86,6.86,0,0,1,1.43,2.5,11,11,0,0,1,.5,3.46v3.24a11,11,0,0,1-.5,3.46,6.92,6.92,0,0,1-1.44,2.49A6,6,0,0,1,95.52,35a8.63,8.63,0,0,1-3.07.51ZM90.52,18.4V33.45h1.93A4.5,4.5,0,0,0,96.2,32a7.05,7.05,0,0,0,1.17-4.41V24.27a7,7,0,0,0-1.17-4.45,4.3,4.3,0,0,0-3.52-1.42Z"/><path class="cls-2" d="M109.7,35.52V16.32h5.47a7.55,7.55,0,0,1,2.22.3,4,4,0,0,1,2.7,2.51,6.85,6.85,0,0,1,.35,2.31,4.24,4.24,0,0,1-.67,2.37,4.49,4.49,0,0,1-1.82,1.6,3.43,3.43,0,0,1,1.23.64,3.91,3.91,0,0,1,.9,1,5.1,5.1,0,0,1,.55,1.33,6.6,6.6,0,0,1,.18,1.56,7,7,0,0,1-.38,2.38,4.82,4.82,0,0,1-1.09,1.74,4.54,4.54,0,0,1-1.71,1.06,6.5,6.5,0,0,1-2.22.36Zm2.41-11h3.1a2.94,2.94,0,0,0,1.12-.21,2.49,2.49,0,0,0,.88-.61,2.76,2.76,0,0,0,.58-1,3.73,3.73,0,0,0,.21-1.3,3.24,3.24,0,0,0-.69-2.3,2.87,2.87,0,0,0-2.14-.72h-3.06Zm0,2v6.91h3.3a3,3,0,0,0,1.26-.25,2.67,2.67,0,0,0,.94-.68,3.11,3.11,0,0,0,.58-1.08,4.94,4.94,0,0,0,.2-1.43,5.8,5.8,0,0,0-.17-1.44,3,3,0,0,0-.51-1.1,2.49,2.49,0,0,0-.9-.69,3.23,3.23,0,0,0-1.31-.24Z"/><path class="cls-2" d="M128.7,26l3.93-9.64h2.72l-5.45,12v7.16h-2.42V28.36l-5.45-12h2.74Z"/><path class="cls-2" d="M41.27,59.44H34.79v8.48H32.38V48.72h10V50.8H34.79v6.57h6.48Z"/><path class="cls-2" d="M54.55,59H47.76v6.81h7.91v2.07H45.35V48.72H55.54V50.8H47.76V57h6.79Z"/><path class="cls-2" d="M58.76,67.92V48.72h4.57a8,8,0,0,1,2.93.51,5.81,5.81,0,0,1,2.22,1.51,7,7,0,0,1,1.43,2.51,11,11,0,0,1,.5,3.46V60a11,11,0,0,1-.5,3.46,6.78,6.78,0,0,1-1.44,2.49,5.92,5.92,0,0,1-2.29,1.51,8.73,8.73,0,0,1-3.08.51ZM61.17,50.8v15H63.1a4.49,4.49,0,0,0,3.75-1.49A7.05,7.05,0,0,0,68,60V56.67a7,7,0,0,0-1.16-4.45,4.33,4.33,0,0,0-3.53-1.42Z"/><path class="cls-2" d="M83.37,59H76.58v6.81h7.91v2.07H74.17V48.72H84.36V50.8H76.58V57h6.79Z"/><path class="cls-2" d="M93.38,60.15H90v7.77H87.58V48.72H93a5.77,5.77,0,0,1,4.28,1.47,5.92,5.92,0,0,1,1.45,4.31,6,6,0,0,1-.79,3.1,5,5,0,0,1-2.22,2l3.72,8.16v.16h-2.6ZM90,58.08h2.93a3.47,3.47,0,0,0,1.45-.28,3,3,0,0,0,1-.77A3.21,3.21,0,0,0,96,55.9a4.56,4.56,0,0,0,.21-1.4A5.84,5.84,0,0,0,96.07,53a3.21,3.21,0,0,0-.58-1.17,2.53,2.53,0,0,0-1-.75A3.78,3.78,0,0,0,93,50.8H90Z"/><path class="cls-2" d="M110.86,62.91h-6.49l-1.49,5H100.4l6.19-19.2h2.07l6.19,19.2h-2.48ZM105,60.82h5.24l-2.63-8.72Z"/><path class="cls-2" d="M119.89,65.85h7.53v2.07h-10V48.72h2.43Z"/><path class="cls-2" d="M44.27,97.93c-.16.21-.37.47-.64.77a4.46,4.46,0,0,1-1.08.87,6.66,6.66,0,0,1-1.65.71,8.26,8.26,0,0,1-2.38.3,7.24,7.24,0,0,1-2.72-.5,5.66,5.66,0,0,1-2.12-1.5,6.92,6.92,0,0,1-1.37-2.52,11.4,11.4,0,0,1-.49-3.53V88.91q0-8.05,6.45-8a7.05,7.05,0,0,1,2.48.4,4.9,4.9,0,0,1,1.84,1.16,5.49,5.49,0,0,1,1.18,1.85,8.46,8.46,0,0,1,.5,2.48H41.85a4.78,4.78,0,0,0-1-2.8,3.2,3.2,0,0,0-2.58-1,4.21,4.21,0,0,0-1.87.37,3.11,3.11,0,0,0-1.25,1.11,5.23,5.23,0,0,0-.69,1.86,13.39,13.39,0,0,0-.22,2.61v3.64a10.48,10.48,0,0,0,.3,2.66,5.4,5.4,0,0,0,.86,1.87,3.59,3.59,0,0,0,1.36,1.1,4.16,4.16,0,0,0,1.76.36,5.6,5.6,0,0,0,1.4-.14,4,4,0,0,0,.94-.36,3.11,3.11,0,0,0,.6-.42l.38-.36V92.81h-3.5v-2h5.92Z"/><path class="cls-2" d="M60.69,92.41A13.1,13.1,0,0,1,60.25,96,7.27,7.27,0,0,1,59,98.53a5.38,5.38,0,0,1-2,1.54,6.74,6.74,0,0,1-2.68.51,6.61,6.61,0,0,1-2.64-.51,5.57,5.57,0,0,1-2-1.54A7.15,7.15,0,0,1,48.26,96a12,12,0,0,1-.47-3.57V89.07a12,12,0,0,1,.47-3.56,7.29,7.29,0,0,1,1.31-2.58,5.38,5.38,0,0,1,2-1.55,6.43,6.43,0,0,1,2.63-.52,6.62,6.62,0,0,1,2.69.52,5.38,5.38,0,0,1,2,1.55,7.12,7.12,0,0,1,1.3,2.58,13.08,13.08,0,0,1,.44,3.56Zm-2.41-3.36A12.64,12.64,0,0,0,58,86.32a5.46,5.46,0,0,0-.78-1.87A3,3,0,0,0,56,83.38,4.12,4.12,0,0,0,54.23,83a4,4,0,0,0-1.68.35,3.15,3.15,0,0,0-1.27,1.07,5.47,5.47,0,0,0-.81,1.87,11.41,11.41,0,0,0-.28,2.73v3.36a10.88,10.88,0,0,0,.29,2.73A5.39,5.39,0,0,0,51.29,97a3.22,3.22,0,0,0,1.28,1.08,4,4,0,0,0,1.69.34A4.13,4.13,0,0,0,56,98.09,3.1,3.1,0,0,0,57.26,97,5.19,5.19,0,0,0,58,95.14a12,12,0,0,0,.26-2.73Z"/><path class="cls-2" d="M69.62,96.61,74,81.12h2.65l-6,19.2H68.58l-6-19.2h2.64Z"/><path class="cls-2" d="M88.46,91.44H81.67v6.81h7.91v2.07H79.26V81.12H89.45V83.2H81.67v6.17h6.79Z"/><path class="cls-2" d="M98.47,92.55H95.09v7.77H92.66V81.12H98a5.73,5.73,0,0,1,4.27,1.47,5.88,5.88,0,0,1,1.45,4.31A6,6,0,0,1,103,90a5,5,0,0,1-2.22,2l3.72,8.16v.16h-2.6Zm-3.38-2.07H98a3.47,3.47,0,0,0,1.45-.28,3,3,0,0,0,1-.77,3.21,3.21,0,0,0,.63-1.13,4.56,4.56,0,0,0,.21-1.4,5.43,5.43,0,0,0-.19-1.51,3,3,0,0,0-.58-1.17,2.43,2.43,0,0,0-1-.75A3.78,3.78,0,0,0,98,83.2h-3Z"/><path class="cls-2" d="M119.53,100.32h-2.42l-7.69-14.8v14.8H107V81.12h2.43L117.13,96V81.12h2.4Z"/><path class="cls-2" d="M127.71,93.16h-5.45v-2h5.45Z"/><path class="cls-2" d="M46.65,113.52l5,15.66,5-15.66h3.11v19.2H57.37v-7.48l.23-7.49-5,15H50.73l-5-14.91.22,7.43v7.48H43.54v-19.2Z"/><path class="cls-2" d="M73.14,123.84H66.35v6.81h7.91v2.07H63.94v-19.2H74.13v2.08H66.35v6.17h6.79Z"/><path class="cls-2" d="M89.88,132.72H87.46l-7.69-14.8v14.8H77.35v-19.2h2.42l7.71,14.86V113.52h2.4Z"/><path class="cls-2" d="M104.9,115.6H99.85v17.12H97.44V115.6h-5v-2.08h12.5Z"/><path class="cls-2" d="M109.8,127.31a10.66,10.66,0,0,1,.11-1.62,5.53,5.53,0,0,1,.33-1.23,5.64,5.64,0,0,1,.59-1.07c.25-.35.55-.74.91-1.17l.69-.87a7.63,7.63,0,0,0,.58-.86,4.36,4.36,0,0,0,.42-1,4.21,4.21,0,0,0,.16-1.18,3.54,3.54,0,0,0-.58-2.17,1.89,1.89,0,0,0-1.64-.79,2.48,2.48,0,0,0-.84.15,2.33,2.33,0,0,0-.75.48,2.44,2.44,0,0,0-.54.82A3.2,3.2,0,0,0,109,118h-2.32a5.49,5.49,0,0,1,.37-2,4.16,4.16,0,0,1,1-1.49,4.35,4.35,0,0,1,1.47-.94,5.45,5.45,0,0,1,3.76,0,3.82,3.82,0,0,1,1.43,1,4.43,4.43,0,0,1,.89,1.58,6.74,6.74,0,0,1,.3,2.08,5.36,5.36,0,0,1-.25,1.67,7.86,7.86,0,0,1-.66,1.48,10.26,10.26,0,0,1-.92,1.34c-.33.41-.67.82-1,1.22a3.49,3.49,0,0,0-.76,1.51,8.69,8.69,0,0,0-.19,1.82Zm0,4.18a1.6,1.6,0,0,1,.32-1,1.44,1.44,0,0,1,2,0,1.5,1.5,0,0,1,.34,1,1.41,1.41,0,0,1-.34,1,1.46,1.46,0,0,1-2,0A1.5,1.5,0,0,1,109.75,131.49Z"/></g></g></svg>