<svg xmlns="http://www.w3.org/2000/svg" viewBox="0 0 162.97 150.3"><defs><style>.cls-1{fill:#ffcd05;stroke:#f15a29;stroke-miterlimit:10;}.cls-2{fill:#231f20;}</style></defs><title>rec4</title><g id="Layer_2" data-name="Layer 2"><g id="Layer_1-2" data-name="Layer 1"><rect class="cls-1" x="0.5" y="0.5" width="161.97" height="149.3" rx="35.14"/><path class="cls-2" d="M43,75.9v7.24H40.7V64.65h5.89a6.21,6.21,0,0,1,2.36.42,4.85,4.85,0,0,1,1.74,1.17A5.18,5.18,0,0,1,51.75,68a6.88,6.88,0,0,1,.36,2.27,7.3,7.3,0,0,1-.36,2.38,4.53,4.53,0,0,1-1.07,1.76A4.58,4.58,0,0,1,49,75.52a6.87,6.87,0,0,1-2.36.38Zm0-2h3.57A3.54,3.54,0,0,0,48,73.64a2.74,2.74,0,0,0,1-.74,3.09,3.09,0,0,0,.57-1.13,5.45,5.45,0,0,0,.19-1.44A5.22,5.22,0,0,0,49.6,69,3.32,3.32,0,0,0,49,67.77,2.92,2.92,0,0,0,48,67a3.23,3.23,0,0,0-1.45-.3H43Z"/><path class="cls-2" d="M67.2,83.14H64.87V74.59H57.43v8.55H55.1V64.65h2.33V72.6h7.44V64.65H67.2Z"/><path class="cls-2" d="M83.25,75.52A12.2,12.2,0,0,1,82.82,79a7.1,7.1,0,0,1-1.23,2.46,5.2,5.2,0,0,1-2,1.47,6.49,6.49,0,0,1-2.58.5,6.29,6.29,0,0,1-2.54-.5,5.26,5.26,0,0,1-2-1.47A7,7,0,0,1,71.27,79a11.81,11.81,0,0,1-.45-3.44V72.31a11.86,11.86,0,0,1,.45-3.44,7,7,0,0,1,1.27-2.47,5.07,5.07,0,0,1,1.95-1.5A6.16,6.16,0,0,1,77,64.4a6.25,6.25,0,0,1,2.58.5,5,5,0,0,1,2,1.5,6.84,6.84,0,0,1,1.25,2.47,12.25,12.25,0,0,1,.43,3.44Zm-2.32-3.24a11.71,11.71,0,0,0-.26-2.62,5.14,5.14,0,0,0-.75-1.8,3,3,0,0,0-1.21-1A4.06,4.06,0,0,0,77,66.49a3.84,3.84,0,0,0-1.62.33,3,3,0,0,0-1.22,1,5.35,5.35,0,0,0-.79,1.8,11.11,11.11,0,0,0-.27,2.62v3.24a11.1,11.1,0,0,0,.28,2.63A5.4,5.4,0,0,0,74.2,80a3.1,3.1,0,0,0,1.23,1,3.86,3.86,0,0,0,1.63.33A4,4,0,0,0,78.73,81a2.92,2.92,0,0,0,1.21-1,5.19,5.19,0,0,0,.74-1.81,12.42,12.42,0,0,0,.25-2.63Z"/><path class="cls-2" d="M97.3,66.66H92.44V83.14H90.12V66.66H85.27v-2h12Z"/><path class="cls-2" d="M111.7,75.52a12.2,12.2,0,0,1-.43,3.44A7.1,7.1,0,0,1,110,81.42a5.2,5.2,0,0,1-2,1.47,6.49,6.49,0,0,1-2.58.5,6.29,6.29,0,0,1-2.54-.5,5.26,5.26,0,0,1-2-1.47A7,7,0,0,1,99.72,79a11.81,11.81,0,0,1-.45-3.44V72.31a11.86,11.86,0,0,1,.45-3.44A7,7,0,0,1,101,66.4a5.07,5.07,0,0,1,2-1.5,6.16,6.16,0,0,1,2.54-.5,6.25,6.25,0,0,1,2.58.5,5,5,0,0,1,2,1.5,6.84,6.84,0,0,1,1.25,2.47,12.25,12.25,0,0,1,.43,3.44Zm-2.32-3.24a11.71,11.71,0,0,0-.26-2.62,5.14,5.14,0,0,0-.75-1.8,3,3,0,0,0-1.21-1,4.06,4.06,0,0,0-1.68-.33,3.84,3.84,0,0,0-1.62.33,3.1,3.1,0,0,0-1.22,1,5.35,5.35,0,0,0-.79,1.8,11.11,11.11,0,0,0-.27,2.62v3.24a11.1,11.1,0,0,0,.28,2.63,5.4,5.4,0,0,0,.79,1.81,3.1,3.1,0,0,0,1.23,1,3.86,3.86,0,0,0,1.63.33,4,4,0,0,0,1.67-.33,2.92,2.92,0,0,0,1.21-1,5.19,5.19,0,0,0,.74-1.81,12.42,12.42,0,0,0,.25-2.63Z"/><path class="cls-2" d="M117.29,77.93a10,10,0,0,1,.1-1.56,5.09,5.09,0,0,1,.32-1.18,4.83,4.83,0,0,1,.57-1c.23-.33.53-.71.87-1.12l.66-.84a8.75,8.75,0,0,0,.57-.83,4.49,4.49,0,0,0,.4-.92,3.94,3.94,0,0,0,.15-1.14,3.46,3.46,0,0,0-.55-2.09,1.86,1.86,0,0,0-1.58-.76,2.32,2.32,0,0,0-.81.15,2,2,0,0,0-.72.46,2.18,2.18,0,0,0-.52.78,3,3,0,0,0-.2,1.14h-2.23a5.11,5.11,0,0,1,.35-1.93A4.08,4.08,0,0,1,117,64.71a5.28,5.28,0,0,1,3.62,0,3.88,3.88,0,0,1,1.38,1,4.43,4.43,0,0,1,.86,1.52,6.62,6.62,0,0,1,.29,2,5.22,5.22,0,0,1-.24,1.61,8,8,0,0,1-.64,1.43,10.36,10.36,0,0,1-.88,1.28c-.33.41-.65.8-1,1.18a3.43,3.43,0,0,0-.74,1.46,8,8,0,0,0-.18,1.75Zm-.05,4a1.43,1.43,0,0,1,.31-1,1.13,1.13,0,0,1,1-.39,1.15,1.15,0,0,1,.95.39,1.39,1.39,0,0,1,.33,1,1.37,1.37,0,0,1-.33,1,1.18,1.18,0,0,1-.95.38,1.16,1.16,0,0,1-1-.38A1.41,1.41,0,0,1,117.24,82Z"/></g></g></svg>